<?xml version="1.0" encoding="utf-8"?>
<!-- Generator: Adobe Illustrator 24.1.2, SVG Export Plug-In . SVG Version: 6.00 Build 0)  -->
<svg version="1.1" xmlns="http://www.w3.org/2000/svg" xmlns:xlink="http://www.w3.org/1999/xlink" x="0px" y="0px"
	 viewBox="0 0 150 150" style="enable-background:new 0 0 150 150;" xml:space="preserve">
<style type="text/css">
	.st0{fill:#FFFFFF;}
	.st1{fill:#475993;}
</style>
<g id="Layer_2">
	<g>
		<rect x="50.5" y="23.8" class="st0" width="72" height="123.1"/>
	</g>
</g>
<g id="Layer_1">
	<g>
		<path class="st1" d="M127.6,3.8H23c-10.7,0-19.3,8.6-19.3,19.3v104.6c0,10.7,8.6,19.3,19.3,19.3h51.6l0.1-51.2H61.4
			c-1.7,0-3.1-1.4-3.1-3.1l-0.1-16.5c0-1.7,1.4-3.1,3.1-3.1h13.3V57.1c0-18.5,11.3-28.6,27.8-28.6h13.5c1.7,0,3.1,1.4,3.1,3.1v13.9
			c0,1.7-1.4,3.1-3.1,3.1l-8.3,0c-9,0-10.7,4.3-10.7,10.5v13.8h19.7c1.9,0,3.3,1.6,3.1,3.5l-2,16.5c-0.2,1.6-1.5,2.8-3.1,2.8H97
			L96.9,147h30.7c10.7,0,19.3-8.6,19.3-19.3V23.1C146.9,12.5,138.2,3.8,127.6,3.8L127.6,3.8z M127.6,3.8"/>
	</g>
</g>
</svg>
