<svg id="Layer_1" data-name="Layer 1" xmlns="http://www.w3.org/2000/svg" viewBox="0 0 936.97 612.38"><path d="M759.86,845.56c-3.36,2.8-6.61,5.74-10.09,8.38-8.23,6.23-18,8.85-27.85,10.85-30.07,6.12-58.64,1.62-85.65-12.88-2.5-1.34-5-2.73-7.4-4.2s-4.54-2.92-6.84-4.4c-7.27,3.34-14.46,6.79-21.76,10-24.66,10.72-50.13,18.84-76.74,23-19.72,3.06-39.5,3.7-59.18-.55-3.13-.68-6.2-1.68-9.29-2.53,6.11-6.53,9-14.66,11.1-23.08,3.58-14.33,4.69-29,4.66-43.68a11.61,11.61,0,0,0-.57-2.54l0-13.31v-3.82a44.79,44.79,0,0,1-.68-5.26c-.12-6.63-.05-13.21-1.46-19.81-1.49-6.93-2.24-14-4.86-20.67-1-2.61-2-5.25-3.12-7.8-1.82-4.09-5.4-6.32-9.2-8.25.65,0,1.29-.12,1.93-.12H646.61a9.33,9.33,0,0,1,2.31.07,4,4,0,0,1,3.32,3.75,3.51,3.51,0,0,1-2.49,3.89c-.73.26-1.47.47-2.22.67-3.49.92-5.38,3-5.2,5.7.19,2.87,2.71,5.06,6.22,5.13,5.67.11,11.34.09,17,.07a6.23,6.23,0,0,0,1.84-.58,5.4,5.4,0,0,0-3.33-1c-4.64-.05-9.28,0-13.92-.13a7.4,7.4,0,0,1-4-.9,4.51,4.51,0,0,1-1.73-3.46c.12-1.1,1.38-2.27,2.42-3,.76-.56,2-.39,3-.72,2.89-1,4.65-3.61,4.26-6.14-.46-3-2.64-4.79-6-4.94-.77,0-1.54,0-2.32,0q-96.69,0-193.39,0A26.46,26.46,0,0,0,448,724c-1.41,0-2.83.08-4.23,0a18.78,18.78,0,0,0-11.87,3.37L430,728.62c-4.16,3.12-5.46,7.7-6.4,12.46H395l.06-.8c4.74-5.4,9.51-10.78,14.22-16.21,5.37-6.19,10.69-12.44,16-18.66L430,700l8.61-9.88,5.51-6.28c3.88-3.92,7.53-8.11,11.68-11.72,10.06-8.75,22-13.84,35-16.12,7.83-1.38,15.83-1.71,23.76-2.51-.36,1.2-.64,2.44-1.1,3.59-1.29,3.21-3,6.3-3.94,9.6-2.89,9.86.7,17.58,9.76,21.44a35.08,35.08,0,0,0,5.07,1.79c9.76,2.48,19.62,2.14,29.48.87A130.68,130.68,0,0,0,605.48,673c8.62-5.21,16.59-11.28,21.8-20.23l.88-.64a226.84,226.84,0,0,1,35.8,2.07c19.54,2.71,38.26,8,55.75,17.25,16.91,8.93,31.45,20.75,41.91,36.88,16.82,25.94,24.78,54.35,22.25,85.4a83,83,0,0,1-7.6,28.17C772.19,830.74,766.38,838.39,759.86,845.56ZM698.11,702.07c2.59.62,3.52-.29,3.67-2.65a20.35,20.35,0,0,0-1.67-9.34c-2.84-6.64-8.06-10.76-14.71-13.14a4,4,0,0,0-3.16.66c-.56.41-.45,1.73-.67,2.78a19.4,19.4,0,0,1,11.68,6.88c2.19,2.73,3.91,5.6,3.91,9.32A30.91,30.91,0,0,0,698.11,702.07Zm-152.72,68a15.26,15.26,0,0,0,0,1.55c1.75,9.67,7.29,16.45,16,20.72a6.3,6.3,0,0,0,3.34.42,2.18,2.18,0,0,0,1.36-1.57,3,3,0,0,0-1-1.85c-.31-.32-1-.23-1.44-.45-5.68-2.77-10.44-6.45-12.42-12.81a61,61,0,0,0-2-6.13c-.32-.75-1.61-1.75-2.15-1.59C546.26,768.6,545.69,769.74,545.39,770.06Zm-27.15,59.28c-9.37-.68-16.16,4.36-20.73,9.49-.88,1-1.45,2.15-.21,2.94.78.49,2.1.27,3.15.16.4,0,.79-.63,1.1-1,4.12-5.39,9.74-7.59,16.33-7.73a15.79,15.79,0,0,0,3.84-.12,3.14,3.14,0,0,0,1.78-2c.11-.4-1-1.52-1.65-1.65A16.7,16.7,0,0,0,518.24,829.34ZM655.81,820l.09.33a61.19,61.19,0,0,0,6.17-1.9c5.39-2.3,9.23-6.31,12.07-11.36.67-1.19.73-2.45-.6-2.9-.89-.29-2.09.23-3.11.51-.26.07-.37.64-.56,1a20.86,20.86,0,0,1-13,10.09c-1,.28-2.1.14-3,.55-.69.32-1.54,1.2-1.54,1.82s.88,1.41,1.56,1.82C654.39,820.19,655.17,820,655.81,820ZM478.69,685.05c-1.61,1.6-3.16,2.94-4.46,4.48-3.69,4.35-4.28,12.4-1.27,16.53.75,1,1.64,2.23,3.16,1.42s1.38-2.09.81-3.36c-2.4-5.35-1.82-10.15,2.43-14.37C480.82,688.3,480.76,686.84,478.69,685.05ZM758.2,805.49c-.23-.32-.53-1.17-1.1-1.45-4.07-2-7.11-4.85-8.43-9.32-.41-1.41-1.38-2.22-2.9-1.68s-1.74,1.88-1.29,3.18a19.79,19.79,0,0,0,10.8,11.8C757,808.83,758.36,807.75,758.2,805.49ZM617.4,708a7.16,7.16,0,0,0,2.05-1.55c.26-.38-.2-1.41-.57-2-.21-.34-.9-.37-1.36-.57-3.49-1.48-6.18-3.62-6.38-7.8,0-.37,0-.9-.27-1.08-.84-.67-1.78-1.23-2.69-1.83-.55.89-1.59,1.79-1.55,2.64a12.87,12.87,0,0,0,1.21,5.13C609.7,704.63,612.81,707,617.4,708Z" transform="translate(-13.52 -266.33)" style="fill:#feb706"/><path d="M755.93,441.47c6.3-1.55,12.55-3.29,18.9-4.62,13.67-2.85,27.58-3,41.41-2.21a101.9,101.9,0,0,1,41.22,10.78c13.17,6.72,23.68,16.28,29.6,30.1,2.66,6.19,5,12.55,5.16,19.49.06,3.7.87,7.43.65,11.1-.76,12.15-2.74,24-7.67,35.34a86.7,86.7,0,0,1-20.09,28.81c-7.47,7-15.33,13.66-22.84,20.65-10.59,9.84-19.37,20.9-22.41,35.51a46.71,46.71,0,0,0-1.16,9.47c0,6.67.45,13.33.71,20a12.88,12.88,0,0,0-2.25.37c-11.12,4-22.5,6.13-34.37,5.08-2.17-.2-4.44.27-6.55-.15-13.12-2.56-25.74-6.47-36.84-14.29a12.1,12.1,0,0,0-2.83-1.07h0l-6.19-4.65h0c-1.8-1.91-2.89-4.76-6.21-4.64l-2.31-2.31c-.56-3.93-3.88-5.86-6.19-8.53h0c-1.59-3.47-3.28-6.89-4.75-10.41-2.15-5.12-2.76-10.62-2.88-16.08a47.15,47.15,0,0,1,1.48-10.56,72.51,72.51,0,0,1,8-21c1.7-3,2.92-6.17,4.35-9.27.52-.28,1.21-.44,1.54-.87,2.09-2.73,4.17-5.46,6.13-8.28,2.16-3.09,4.18-6.28,6.27-9.43h0l2.32-3.09h0a14.44,14.44,0,0,0,2.2-2.07c6.54-9.28,12.84-18.68,17.34-29.21,5.5-12.84,8.83-25.9,6.88-40.06a61.45,61.45,0,0,0-6.4-19.49Q757,443.65,755.93,441.47ZM769.1,591.36A23.82,23.82,0,0,0,772,605.83c2.51,4.24,5.78,7.61,11.46,6.72a12.72,12.72,0,0,0,9.58-6.32A143.69,143.69,0,0,0,800,592.14c3.18-7.43,6.72-14.33,14.65-18a96.66,96.66,0,0,0,12.57-7.36,19.07,19.07,0,0,0,7.86-9.71c1-2.81,1.49-5.88-.34-8.47a14.35,14.35,0,0,0-10.18-6.36,189.8,189.8,0,0,0-19.95-.81,21.72,21.72,0,0,0-7.73,2,38.13,38.13,0,0,0-15.5,11.74C773.17,565.46,768.6,577.19,769.1,591.36Zm78.17-62.46c0,5.41,2.08,7.82,6.69,7.78a10,10,0,0,0,9.53-8.85c.19-3.52-3.23-5.83-8.36-5.86C849.59,521.94,847.27,524,847.27,528.9Z" transform="translate(-13.52 -266.33)" style="fill:#d2f0fa"/><path d="M721.86,634.23l2.31,2.31c1.81,1.89,2.9,4.76,6.21,4.64h0c.87,3.14,3.28,4.24,6.19,4.65h0c.61.74,1.07,1.73,1.84,2.17,4.67,2.67,9.33,5.38,14.16,7.74a68.82,68.82,0,0,0,20.42,6.2c6.3.91,12.77.76,19.17.89a59.45,59.45,0,0,0,17-2.55c3.67-1,7.38-1.9,11.07-2.84q3.69,10.88,7.36,21.74a15.35,15.35,0,0,1,.4,2.25h0c-5.18-.1-10.17.49-14.67,3.44-6.19,4.06-10,9.53-10.07,17.09-.1,12.64,0,25.29,0,37.93a12,12,0,0,0,.24,3.06,22.29,22.29,0,0,0,21.44,16.67H867.4c0,3.87.07,7.73,0,11.59-.26,14.27-5.12,27-13.3,38.5s-19.27,19.74-32,25.55a114.77,114.77,0,0,1-27.4,8.13c-11.57,2.08-23.16,2.2-34.8,2.17,6.52-7.17,12.33-14.82,16.41-23.69a83,83,0,0,0,7.6-28.17c2.53-31.05-5.43-59.46-22.25-85.4-10.46-16.13-25-27.95-41.91-36.88-17.49-9.23-36.21-14.54-55.75-17.25a226.84,226.84,0,0,0-35.8-2.07q8.52-15.33,17-30.66c3.91-7.07,7.78-14.17,11.67-21.26a12.9,12.9,0,0,0,.92-1.18q9.38-15.27,18.72-30.57c.84-1.39,1.62-2.3,3.53-2.42a69.17,69.17,0,0,0,12.54-1.59c6.17-1.55,11.76-4.27,15.73-9.7,4.89-6.69,5.14-14.19,3.82-21.77-.57-3.25-2.78-6.21-4.24-9.3,5.89-1.14,9.82-4.77,12.51-9.94,9-17.34.69-37.7-18-43.91a60.8,60.8,0,0,1,6-5.69c12-8.68,25.21-14.95,39-20.2a52.78,52.78,0,0,1,7-1.68c.72,1.36,1.35,2.77,2.17,4.07,4.37,6.85,6.36,14.53,7,22.45a66.54,66.54,0,0,1-3.68,26.8c-4.35,13-11.15,24.71-19.12,35.79-1.17,1.62-2.87,3-2.66,5.33h0c-2.11,0-2.41,1.41-2.32,3.09h0a10,10,0,0,0-2.32,1.65c-2.93,3.7-5.84,7.42-8.57,11.27a48.72,48.72,0,0,0-3,5.66,4.61,4.61,0,0,0-1.19.92c-5.14,7.88-9.55,16.19-11.77,25.32-2.7,11.08-3.32,22.31,1.42,33.13,1.29,2.94,2,6.38,5.35,8h0C716.15,629.69,719,631.94,721.86,634.23Z" transform="translate(-13.52 -266.33)" style="fill:#d1f0f9"/><path d="M707.88,523.65c1.46,3.09,3.67,6.05,4.24,9.3,1.32,7.58,1.07,15.08-3.82,21.77-4,5.43-9.56,8.15-15.73,9.7A69.17,69.17,0,0,1,680,566c-1.91.12-2.69,1-3.53,2.42q-9.32,15.32-18.72,30.57a12.9,12.9,0,0,1-.92,1.18c-.75.35-1.75.5-2.2,1.08A92.94,92.94,0,0,1,641,615.73a135,135,0,0,1-22.32,15.45,158.54,158.54,0,0,1-35.14,14.1c-6,1.6-12,3.2-18.16,4.34s-12.09,1.62-18.13,2.48c-.41.06-.71.84-1.07,1.29l-30.4.14q7.56-11.32,15.11-22.67a12.74,12.74,0,0,0,2.31,0,115.12,115.12,0,0,0,25.95-7.23c10.18-4.33,19.55-9.89,26.93-18.31,1.91-2.17,3.54-4.58,5.72-7.43-2.12,0-3.37-.08-4.61,0-11.3.83-22.59,1.67-33.87,2.59a11.74,11.74,0,0,0-3.12,1.2c-1.58-.28-3.14-.68-4.73-.8-7.9-.59-15.55-2-22.16-6.77-8.13-5.83-12.6-13.65-12.88-23.8a37.54,37.54,0,0,1,3-16.51c3.12-7.18,5.84-14.53,8.73-21.8,3,.19,4.77-1.76,6.33-3.79,1.74-2.28.46-4.83-2.55-5.51q2.24-5.65,4.46-11.29l8.15,1.21q-1.22,2-2.45,3.93a40.34,40.34,0,0,0-5,9h14.86l.36-.63-8-6.83a18.36,18.36,0,0,1,1.69-4.06c4.14-5.69,8.42-11.27,12.65-16.9,1.41-1.88,2.8-3.78,4.2-5.67l-.69-.74a10.29,10.29,0,0,0-2,1.54c-1.54,1.88-2.93,3.87-4.43,5.78-.87,1.09-1.77,2.36-3.47,1.24-2.23-2.52-4.64-4.8-7.91-5.95l2.19-4.35c4.4.88,8.34-.7,12.25-2.34,2.72-1.13,3.67-3,3-5.42s-2.42-3.07-5.64-2.34c-1.67.38-3.32.87-5.23,1.37l.52-1.47.82-.93-.06.07.85-.83,0,.09a19.13,19.13,0,0,0,2.49-.83c2.18-1.08,4.25-2.43,6.5-3.36a194.4,194.4,0,0,1,57.8-14.19,69.54,69.54,0,0,1,18.06.66c9.79,1.75,12.38,5.81,13.32,15.24a46.3,46.3,0,0,1,.05,8.49c-.74,8.45-1.75,16.88-2.49,25.33-.52,6.05-.75,12.18,1.16,18,2.35,7.18,6.19,9.78,14.4,7.16,7.06-2.25,12.37-7.21,15.7-14l-.05,0c.57-.78,1.13-1.57,1.69-2.35,3.22,0,6.44,0,9.66,0C693.44,517.21,701.17,518.58,707.88,523.65ZM680.18,535c.67,3.64-1,5.62-4.32,7-3.07,1.28-5.85,3.22-8.85,4.68-4.38,2.15-8.68,4.69-13.31,6s-9.36,1.24-14.06,1.8l-19.8,2.37c-1.29-4.3-4.42-6.21-8.67-6.08a22.52,22.52,0,0,0-14.08,5.26c-3.34,2.81-3.87,5.68-2.1,9.84l.82.87v0c-.31,2.11,1.37,3,2.69,3.85,4.2,2.77,9,3.19,13.71,2.22,4.25-.87,8-2.94,9.42-7.58.36-1.18.53-2.41.74-3.42,5.81-.9,11.34-1.76,16.87-2.6,3.65-.55,7.29-1.13,11-1.59,4.31-.54,8.54-1,12-4.13,1.9-1.67,4.33-2.73,6.41-4.2.61-.43.87-1.35,1.29-2l9.44-5.39,1.36,2.53c.08,1.49.16,3,.25,4.75,2.77,0,5.2.31,7.53-.06,5.49-.85,7.9-4,7.86-9.56s-2.61-8.64-8-9.57c-.63-.11-1.28-.13-1.91-.22C680.27,528.78,680.13,528.89,680.18,535Zm-95.27-23.89,1.15.77.05-.11c1.5,1.31,2.8,3,4.52,3.88,8.59,4.35,17.64,4.88,26.82,2.34,4.6-1.28,8.81-3.5,11.72-7.54a6.19,6.19,0,0,0,.08-7.85,17.73,17.73,0,0,0-3.71-3.78c-5.45-4-11.69-5.55-18.4-5.4-4.51.78-9.14,1.16-13.48,2.49a21.6,21.6,0,0,0-7.72,4.76C582.22,504,582.13,507,584.91,511.13Zm32.77,12.64c-5.25.91-10.51,1.7-15.72,2.8a12.4,12.4,0,0,0-5,2.41c-3,2.44-2.73,5.35.8,6.73a93.05,93.05,0,0,0,13.08,4c3.07.71,6.44.2,9.46,1,3.91,1.1,7.59.36,11.34-.23,2.26-.36,5.44-4.26,5-6.16-.72-2.86-1.77-5.55-4.73-7.08C627.39,525,622.69,524.16,617.68,523.77Zm18.08-40.94c-.09-6.86-6.34-12.31-13.66-11.51a14.57,14.57,0,0,1-8.52-1.67,17.2,17.2,0,0,0-5-2c-1.66-.25-3.8-.23-5.08.64a23.27,23.27,0,0,1-4.89,2.69,5.16,5.16,0,0,0-3,6.07c.53,2.41,2.46,2.72,4.44,2.93a22.19,22.19,0,0,0,2.31.08c8.09.06,15.86,1.43,23.15,5.18A17.68,17.68,0,0,0,631.4,487C634.76,487.42,635.81,486.26,635.76,482.83Zm-45.88,60.29c-7.19,2.48-14.38,4.38-21.49,7.73,5.13,3.68,9.94,4.74,15.17,1.92A11.06,11.06,0,0,0,589.88,543.12ZM538.1,577.21c2.06-2.39,2.31-4,1.16-5.68s-2.47-1.92-5.22-.91C538.44,572.82,538.44,572.82,538.1,577.21Z" transform="translate(-13.52 -266.33)" style="fill:#fd9d9b"/><path d="M350.39,537.5c3.85-1.6,7.67-3.25,11.56-4.74A13.38,13.38,0,0,1,366,532c4.24-.21,5.61,1.09,5.94,5.44l0,0c-2.29.26-4.58.44-6.85.82a3.33,3.33,0,0,0-2.19,1.2c-2.83,5.12-4.87,10.49-4.11,16.52.35,2.77,1.62,4,4.65,4.7q-1.56,5-3.13,10.06l-2.22,5.43c-2.12,5.21-4.26,10.42-6.35,15.66-1.61,4-3.14,8.1-4.71,12.15q-1.12,2.73-2.26,5.44a22.89,22.89,0,0,0-3.2,9.17c-.7,5-1.91,9.91-2.91,14.86l-1.59,5.4c-1,2.56-2,5.16-3.13,7.68-2.65,6-5.67,11.71-11.1,15.7-1.43,1-1.31,2.32-1.07,3.74.23,1.82.47,3.65.71,5.47q1,10.77,1.94,21.53c-1.4.88-2.86,1.68-4.2,2.64-11.21,8-24,11.81-37.41,13.57-7.47,1-15.11.83-22.68.83a59.06,59.06,0,0,1-11-1.35c-4.75-.91-9.42-2.15-14.13-3.24l-.32.08V700c0-1.51.15-3,.1-4.52-.11-3.25-.3-6.49-.46-9.73,14.77,1.46,26.51-5.09,37.41-13.9a86.84,86.84,0,0,0-9.08,1.52c-9.84,1.9-19.45,2.07-28.19-3.95-.17-.12-.5,0-.75,0l-2.57-2.77-7-10.83-6.4-17-2.08-5.46c-.56-3.08-1.12-6.17-1.69-9.25,1.8.64,3.62,1.22,5.39,1.93,4.14,1.67,8.31,2,12.08-.66,2.22-1.56,4-3.78,6.13-5.88a24.62,24.62,0,0,0,3.37,1c5,.82,10.12,1.46,14.52-1.44a43.64,43.64,0,0,0,8.06-7.56c1.45-1.62,2.56-2.4,4.87-1.72,5.18,1.52,10.57-1.56,13.14-6.31.51-.92,1.06-1.86-.22-2.64.52-1.56,1.43-3.1,1.49-4.68.18-5.22.18-10.42-1.12-15.61a189.06,189.06,0,0,0-11.56-33.93,50.32,50.32,0,0,1-2-6.13c.55-11.74,1-23.49,1.68-35.23.22-4,.83-8,1.27-12.06,3,.73,5.95,1.68,9,2.14,4.79.74,7.27.25,9.3-1.68a83.94,83.94,0,0,1-9.06-.3c-3-.43-6-1.39-9-2.12l.24-7a75,75,0,0,0,26.48.3,6.58,6.58,0,0,0,1.85-1.07c-.1-.28-.19-.55-.28-.83-9.46,1.14-18.9,1.41-28.29-.28.5-6.87.87-13.74,1.53-20.6.58-6.07,1.28-12.16,2.33-18.16.42-2.41,1.95-4.62,3-6.92.53.52,1,1.38,1.6,1.49,3.35.61,6.79,1.66,10.1,1.38,5.76-.5,11.69-.5,17.16-2.89.7,2.42,2,4.82,2,7.24q.24,21.47,0,42.93c-.11,10.42-.47,20.83-.77,31.24-.18,6.43-.47,12.84-.71,19.26v5.45c.29,5.12.3,10.27,1,15.33.55,4.25,1.86,8.4,2.83,12.59a36.91,36.91,0,0,0,1.52,4.67c2.41,5.14,8.89,4.85,11.9,1.42,1.56-1.77,2.49-4.09,3.71-6.16.54-1,1.14-1.93,1.61-2.94,4-8.65,7.33-17.69,13.89-24.93Zm-45.73,57.65c-14.87-.06-39.84,38.9-33.69,53.18,1.15-5.69,1.74-11,3.36-16s4.21-9.89,6.6-14.71a40.62,40.62,0,0,1,10.53-12.73C295.52,601.46,300,598.54,304.66,595.15Z" transform="translate(-13.52 -266.33)" style="fill:#fe9e9c"/><path d="M185.94,845.59c-6.28-.27-12.6-.15-18.82-.9-10.41-1.24-20.79-3.06-29.67-9.22-7.62-5.29-9.87-12.23-8.15-20.8,1.53-7.6,3.92-15,5.31-22.66a33.08,33.08,0,0,0,.06-12.62c-1.34-6.26-6.45-9.57-12.06-12-7.68-3.28-16-4.32-24-6.24-4.7-1.11-9.46-2-14.16-3.14-10.18-2.48-15.4-9.49-16-20.24C67.7,725,72.62,714.32,80,704.44a99.41,99.41,0,0,1,26.15-24l8-5.19v30.2h5.24l115.32,0,.32-.08c0,1.82-.07,3.63-.11,5.45-4.27,3.87-8.28,7.92-9.93,13.69a34.71,34.71,0,0,0-1.61,4.21c-1.75,7.06-.46,13.87,1.89,20.57l-.24,1.14c-.81,4.5-2.07,9-2.35,13.51-.56,8.71.58,17.34,2.33,25.88-.91.81-1.8,1.64-2.74,2.41-1.52,1.26-3.08,2.48-4.62,3.71l-1.28,1.38c-1,1.39-2.48,2.64-2.94,4.19a52.27,52.27,0,0,0-1.15,7.75c-3.06.2-6.12.36-9.18.6-12,1-20.61,11.88-20.42,22.47h41.57q22.38,0,44.77-.1l3.11.17-.61,1.53H182.73C182.57,838,183.44,841,185.94,845.59Z" transform="translate(-13.52 -266.33)" style="fill:#e0f4fb"/><path d="M271.54,834l.61-1.53q5-10.5,10-21c2.29-4.28,4.53-8.58,6.87-12.83,2.21-4,4.36-8.08,6.81-12,5.73-9,11-18.36,18.07-26.42,4.3-3,8.37-6.49,13-9,13.4-7.29,27.87-10.2,43.09-9.52,6.92,0,13.84,0,20.76-.07a23.18,23.18,0,0,0,3.65-.61h.29l.29,0h28.62l11.88.64c.5,4.41,1.31,8.82,1.46,13.25.43,12.17.17,24.3-4.68,35.78-4.58,10.83-11.51,19.58-22.45,24.67-2,1-4,2-6.08,3-.51.29-1.22.44-1.51.88-2.06,3.06-4.07,6.16-6,9.3a13.15,13.15,0,0,0-1,2.75,21.46,21.46,0,0,0-2.89,2.91c-4.31,6.38-8.46,12.87-12.8,19.23-3.58,5.25-7.78,10-13.5,13-4.48,2.33-9.19,3.91-14.38,2.31s-8.6-4.82-10-10.08c3,.84,6.1,1.64,9.12,2.53,1.42.43,2.79,1,4.55,1.69,1.46-4.49,2.63-8.65,4.18-12.66,2.48-6.47-1-13.46-8.76-13.34,5.15-9.77,10.15-19.62,15.51-29.26a26.77,26.77,0,0,1,9.22-9.73c.5-.32.76-1,1.14-1.53l-.5-.66a12,12,0,0,0-3.17,1.67c-2.54,2.52-5.3,5-7.27,7.91-8.41,12.53-14.85,26.13-20.8,39.95-1.57,3.63-2.52,7.52-3.76,11.29l0,2.17c-3.68,4.82-7.54,9.48-12.64,12.87-4.48,3-9.29,4.92-14.85,3.61-7.31-1.71-10.37-5.07-11.48-12.58.16-1.17.66-1.3,1.81-1,3.65,1.08,7.37,1.93,11,3,1.52.42,2.93.5,3.49-1.23,1.89-5.79,4.28-11.51,5.33-17.46,1.25-7.11-2.7-11-9.93-11.12a4.91,4.91,0,0,1-.75-.13,20.21,20.21,0,0,1,1.2-3.18c7.08-12.24,14-24.61,21.41-36.63,4.18-6.75,8.11-14,16.21-17.64-3.11-.72-4.25-.65-6.38,1.76A95.15,95.15,0,0,0,336,791.07c-7.34,11.79-14.62,23.64-21.29,35.81-4.5,8.21-8.06,17-11.74,25.59-1,2.4-1,5.24-1.48,7.88-.24.74-.49,1.48-.74,2.22-3.83,4.83-7.76,9.58-13.21,12.7-6,3.43-12.06,4.13-18.13.26a10.06,10.06,0,0,1-4.54-6.87c-.08-.39.69-.94,1.07-1.41,3.91,1,7.81,2,11.74,3,1.63.39,2.54-.4,3-2.1,1-3.56,2.34-7,3.49-10.55a37.51,37.51,0,0,0,1.92-12.84c-.16-5.12-2.9-9.34-9.35-8.39-2.22.32-4.31,1.46-6.46,2.23Z" transform="translate(-13.52 -266.33)" style="fill:#fe9e9c"/><path d="M545.42,478.81l-.52,1.47c1.91-.5,3.56-1,5.23-1.37,3.22-.73,5,0,5.64,2.34s-.25,4.29-3,5.42c-3.91,1.64-7.85,3.22-12.25,2.34l-2.3-4.92.5-.28-2.74-2c1.65-5.42.38-10-2.79-14.75s-5.91-10-6.89-15.76c-1.43-8.42.82-17.64,10-22,2.07-1,4.25-1.75,6.39-2.59,3.81-1.48,7.77-2.66,11.4-4.5,4.21-2.13,7.78-5.09,7.54-10.57l9.65,4.55a37,37,0,0,0,2.12,3.11c3.51,4.23,7.08,8.41,10.63,12.61.45.53.94,1,2,2.26-.13-1.49,0-2.14-.25-2.52a61.39,61.39,0,0,0-4.24-5.94c-2.91-3.39-6-6.63-9-9.94,3.33-7.17,7.24-14,13.16-19.36,13.25-12.05,28.86-15.29,45.71-10.6,22.73,6.33,36.93,21.2,41.14,44.81.6,3.4.46,6.92.67,10.69.85-.24,1.65-.41,2.42-.69,10.75-3.81,21.39,3,22.37,14.31a22.24,22.24,0,0,1-1.63,10.6c-.44,1.05-.85,2.11-1.47,3.65l7.38.6c18.69,6.21,27,26.57,18,43.91-2.69,5.17-6.62,8.8-12.51,9.94-6.71-5.07-14.44-6.44-22.6-6.3-3.22.06-6.44,0-9.66,0-1.92-.2-1.79,1.09-1.69,2.35l.05,0a10.77,10.77,0,0,0-2.6,1.32c-1.91,1.74-3.74,3.57-5.49,5.46a18,18,0,0,1-6.8,4.17c-2.64,1.08-4.54.31-6.21-1.5a8.64,8.64,0,0,1-2.14-3.56,47.88,47.88,0,0,1-1.57-9.38,86.48,86.48,0,0,1,.38-15c1-6.79,3.09-13.36,3.53-20.3.35-5.48-.13-10.65-2.84-15.42-4.8-8.44-12-13.23-21.86-13.11-5.34.07-10.65,1.13-16,1.42-8.08.44-15.87,2.43-23.61,4.42a176.52,176.52,0,0,0-22.51,7.44c-5.9,2.39-11.41,5.75-17,8.83-1,.53-1.51,1.8-2.26,2.73l0-.09-.85.83.06-.07Zm107.3-59.46c-.52-3.92-1.94-6.92-5.55-12.07-7.79-11.09-21.11-13.82-33.1-11.77a33.25,33.25,0,0,0-16,7.75c-3.2,2.74-5.75,6.22-5.5,10.92.1,1.72.79,2.73,2.65,2.33,2.85-.6,5.69-1.27,8.53-1.92,6.31-1.44,12.4-3.83,19.12-3.43a19.49,19.49,0,0,1,10.42,3.28c3.55,2.48,7.05,5,10.62,7.49,1.93,1.33,4.19,2.54,6.39,1.3C651.47,422.58,651.94,420.68,652.72,419.35ZM536.81,446.19a5.9,5.9,0,0,0,2.48,5c1.6,1.3,3.35,2.26,5.58,1.33a4.26,4.26,0,0,0,2.83-4.88c-.4-3.75,1.91-6,4.71-7.75,1.29-.84,2.84-1.28,4.08-2.16a13.4,13.4,0,0,0,3.55-3.36,3.83,3.83,0,0,0-2.83-6c-3-.4-6-.19-8.45,1.78A60.46,60.46,0,0,0,541,437C538.87,439.47,536.75,442.18,536.81,446.19Z" transform="translate(-13.52 -266.33)" style="fill:#253051"/><path d="M318.53,271.17c13.74,4.11,25.37,11.64,35.38,21.78,1.24,1.26,2.29,2.71,3.43,4.08a14.13,14.13,0,0,0,.12,3.06c1.56,6.15,2.06,12.37.46,18.52-.67,2.57-.25,5.74-3,7.51a16.47,16.47,0,0,0-2.61-1.53c-5.23-1.92-9.79-.38-13.86,3-1.58,1.31-2.89,2.92-4.4,4.31-3.3,3-4.89,3.19-8.95,1.39a9.88,9.88,0,0,0-4-.89c-.81,0-2.18.84-2.27,1.45a4.8,4.8,0,0,0,.82,3.44,4.46,4.46,0,0,0,3.11,1.14,21.36,21.36,0,0,0,4.87-.7c5.79-1.31,6.91-.88,10.06,4.15.4.64.69,1.37,1,2.05-2.72,1.87-5.66,3.48-8.09,5.67-3.73,3.37-6.63,7.39-6.61,12.8a12.33,12.33,0,0,1-2.39,8.08,6.88,6.88,0,0,0-.55,1.1c.53,1.28,1,2.3,1.39,3.33-1.76.51-3.55,1-5.29,1.56-4.66,1.63-10.09.89-14.06,4.61-.28-.51-.56-1-.85-1.54l.22,0c1.83-.13,1.58-1.56,1.33-2.58a20.48,20.48,0,0,0-1.84-5c-2.89-5.12-5.79-10.24-8.95-15.19-4.08-6.36-5.24-12.93-2.34-20.05.58-1.4,1-2.86,1.54-4.29,1.27,0,2.54,0,3.79-.11,1.67-.17,3.47-.59,3.86-2.43a4,4,0,0,0-2.46-4.61c-.68-.31-1.4-.53-2.11-.8.26-4.06.78-8.13.64-12.18-.06-1.86-1.4-3.67-2.16-5.5l0,0c-.25-.52-.51-1.05-.76-1.58-.5-.72-1-1.44-1.49-2.17-2.31-3.49-5.06-5.88-9.74-5.69a32.34,32.34,0,0,0-10.54,1.77c-3.94,1.52-7.84,3.16-11.8,4.63-3,1.1-6,2-9,3a12.77,12.77,0,0,1,.56-2.57c1.83-4.07,3.75-8.1,5.63-12.15,4.64,0,9.28.07,13.91-.05a12.06,12.06,0,0,0,4.82-1,3.93,3.93,0,0,0,2-2.88,4.05,4.05,0,0,0-2-2.85,11,11,0,0,0-4.44-.93c-3-.14-5.92-.05-8.89-.05.8-1.56,1.6-3.11,2.39-4.67,6.26-.25,12.54-.23,18.76-.83,7.83-.76,15.67-1.7,23.37-3.2C310.63,274.82,314.53,272.7,318.53,271.17ZM301.79,349c2.06-.2,3.65-.1,5-.58a3.68,3.68,0,0,0,2.2-2.29,3,3,0,0,0-1.83-2.34,36.06,36.06,0,0,0-8.3-.33c-.75.06-1.74,1.77-2,2.86-.29,1.53.91,2.17,2.41,2.27A18.57,18.57,0,0,1,301.79,349Z" transform="translate(-13.52 -266.33)" style="fill:#1dafd7"/><path d="M234.37,685.77c.16,3.24.35,6.48.46,9.73,0,1.5-.06,3-.1,4.52h-115c-.41-9.37.16-18.17-.37-27.32l-5.16,1.8-.06-31,0,0h5.19l.52-4.65h5.9l0,0c.49,4.46-2.94,5-5.93,5.75v27.15c2.49-1.15,4.48-2.22,6.57-3,2.83-1.06,5.73-1.9,8.6-2.84v21.49H172V656.06a10.58,10.58,0,0,0-2.51-.1q-12.24,2.85-24.46,5.81c-3.32.81-6.6,1.77-9.9,2.66V650.7H171.9c.26,1.54.48,2.88.73,4.44,17.34-.93,34.49-1.8,51.57.71l7,10.83-25.1.05c-.9,0-2-.25-2.66.13A3.17,3.17,0,0,0,201.8,669a3.14,3.14,0,0,0,1.54,2.23c.69.39,1.76.14,2.66.13h27.42Q233.89,678.56,234.37,685.77Z" transform="translate(-13.52 -266.33)" style="fill:#e0f4fb"/><path d="M515.79,653.53l30.4-.14c3.19-.18,6.38-.51,9.57-.52q35.76-.12,71.52-.13c-5.21,9-13.18,15-21.8,20.23a130.68,130.68,0,0,1-51.69,17.82c-9.86,1.27-19.72,1.61-29.48-.87a35.08,35.08,0,0,1-5.07-1.79c-9.06-3.86-12.65-11.58-9.76-21.44,1-3.3,2.65-6.39,3.94-9.6.46-1.15.74-2.39,1.1-3.59Z" transform="translate(-13.52 -266.33)" style="fill:#feedc8"/><path d="M71.82,653.83a100.8,100.8,0,0,1-3.29,22.34c-.56,2.27-2.19,3.16-4,3.63a96.12,96.12,0,0,1-11.21,2.32,60,60,0,0,1-12.24.75c-6.33-.49-12.62-1.58-18.9-2.6-3.14-.51-4.91-2.21-5.73-5.72-1.82-7.77-3.16-15.53-2.84-23.5a90.73,90.73,0,0,1,3.3-19.56c.56-2.09,2.18-3,4.2-3.48,7-1.83,14.08-2.28,21.17-2.88a47.09,47.09,0,0,1,10.29.79c3.77.54,7.48,1.48,11.25,2.08,2.43.39,4.06,1.57,4.64,4,.86,3.46,1.77,6.92,2.31,10.43C71.31,646.16,71.48,650,71.82,653.83ZM37,664.26c3.13-1.7,6.25-3,8.87-4.94s6.51-2.26,8.06-6L37,643.89Z" transform="translate(-13.52 -266.33)" style="fill:#d2f0fa"/><path d="M256.61,292c-1.88,4-3.8,8.08-5.63,12.15a12.77,12.77,0,0,0-.56,2.57l-.78.78c-3.09,0-6.18-.16-9.25,0s-6,1.42-7.37,4.62c-1,2.36-.19,3.89,2.34,3.8,2-.08,3.95-.85,5.94-1.14.78-.11,2.06,0,2.33.47a5.65,5.65,0,0,1,.24,2.84c0,.3-.46.59-.71.88-1.85,2.11-3.6,4.33-5.59,6.31a11.7,11.7,0,0,0-3.18,9.07c.29,5.73,1.79,11.3,6,15.7.26.5.52,1,.77,1.5,0,3.7-.09,7.41,0,11.11.1,3.28.35,6.56.67,9.83.49,4.9,1.09,9.79,1.64,14.68l0,.8-27.27.87-1.26-1c-.34-.68-.73-1.33-1-2q-3.35-8.25-6.66-16.5a13.89,13.89,0,0,0,10.89-3.73c2.66-2.42,2.63-4.26.31-6.92-3.72-4.29-8.55-5.78-14.06-5.52a23.34,23.34,0,0,1-.31-3.79c.5-6.22,1.09-12.44,1.66-18.65.64-2.1,1.27-4.2,1.91-6.29l1.59-5.37,1-.77c4.15-.55,8.29-1.09,12.43-1.67a6.94,6.94,0,0,0,1.4-.63c1.47-.57,1.69-1.74,1.63-3.13a2.19,2.19,0,0,0-2.05-2.34c-1.63-.25-3.26-.48-4.88-.76-1.31-.23-2.61-.52-3.92-.78a66.43,66.43,0,0,1,19.25-22.49,3.72,3.72,0,0,1,1.13.19c6.73,3.5,14,4.31,21.44,4.51C256.61,291.53,256.61,291.79,256.61,292Zm-32.42,57,.21-.51h1.53c1.94,0,3.29-.89,3.51-2.81s-1.1-3-3-3.33a32.91,32.91,0,0,0-5.65-.69c-1,0-2.59.8-2.67,1.4-.16,1.22.12,3.06,1,3.73C220.51,348,222.47,348.35,224.19,349.05Z" transform="translate(-13.52 -266.33)" style="fill:#4fc0dc"/><path d="M268.22,540.55a50.32,50.32,0,0,0,2,6.13,189.06,189.06,0,0,1,11.56,33.93c1.3,5.19,1.3,10.39,1.12,15.61-.06,1.58-1,3.12-1.49,4.68-3.42,3.37-7.6,4.32-12.22,3.86l-3.59-3.63c4.58-1.91,9.17-3.79,13.73-5.75a1.89,1.89,0,0,0,1-2.85c-1.73-3.73-3.59-7.34-6.87-10-4.33-3.55-10.12-2.14-11.72,3.06a8.37,8.37,0,0,0,0,4.47c1,3.66,2.31,7.23,3.5,10.84a5.8,5.8,0,0,1-1.48-1.11c-3.86-5.76-8.16-11.29-11.4-17.39A216.2,216.2,0,0,1,234.57,538a8.89,8.89,0,0,0-1.1-2c-.15-3.72-.17-7.34,1.35-10.94,3.13-7.4,16.44-9.37,21.05-3.78,4.05,4.92,7,10.33,10.06,15.81C266.59,538.35,267.45,539.42,268.22,540.55Z" transform="translate(-13.52 -266.33)" style="fill:#fdb2b2"/><path d="M214.87,537.48c5.57-2.42,10.91-2.39,16,1.33.43.31,1.24.12,1.87.16l-.09,0,.67,1.67c.7,2.2,1.37,4.41,2.11,6.6a254.25,254.25,0,0,0,19.71,44.26c.22.32.44.64.65,1a.91.91,0,0,1,.23.47c.71,2.52,1.23,5.13,2.17,7.57,2.7,7-2.38,17.21-11.23,15.9-.92-.52-1.82-1-2.74-1.56-1.4-.78-3.48-.6-3.95-2.73a106.27,106.27,0,0,0,14.92-8.59,44,44,0,0,0-3.16-4.34c-2.79-3-5.51-6.17-9.73-7.28-4.87-1.28-9,2.37-8,7.29a24.82,24.82,0,0,0,2,5.78c1.14,2.41,2.58,4.67,3.88,7a6.82,6.82,0,0,1-2.41-.75,29.54,29.54,0,0,1-5.24-5.05c-3.84-5.43-8-10.77-10.93-16.68-4.06-8.11-7.14-16.71-10.71-25.08-.44-1-.13-2.78-2.06-2.76l-.24-.26a12.93,12.93,0,0,0-.05-3.41c-1.52-5.28-.31-10.22,1.61-15.1Q212.49,540.17,214.87,537.48Z" transform="translate(-13.52 -266.33)" style="fill:#fdb2b2"/><path d="M254.76,422.19l-.25.06-.23-.13-7-20.92c4.83.79,9.07-.87,12.95-3.44a20,20,0,0,1,12.55-3.51,24.16,24.16,0,0,0,9.1,10.13c5.36,3.21,11.11,3.46,16.45.57,5-2.68,7.19-7.5,7-13.2-.09-2.27-.54-4.54-.83-6.8l1.63-.74V392c3-.32,5.41-.58,7.8-.82s5.07-.39,7.57-.78c6.7-1.06,10.18-5.08,10.19-11.61l13.94-3.87,8.53-2.3c2.67,3.42,3.28,7.06,1.21,9.79-4.64,6.1-8.85,12.6-15.33,17.06-4.24,2.93-8.66,5.61-13.82,6.35-6.93,1-13.92,1.58-20.88,2.43a41.48,41.48,0,0,0-6.35,1.26c-4.63,1.31-5,1.76-5.19,6.58-.08,1.95-.82,3.28-2.69,3.66a48.19,48.19,0,0,1-6.45.82C274.7,421.12,264.73,421.64,254.76,422.19Z" transform="translate(-13.52 -266.33)" style="fill:#0ea7cd"/><path d="M254.76,422.19c10-.55,19.94-1.07,29.91-1.66a48.19,48.19,0,0,0,6.45-.82c1.87-.38,2.61-1.71,2.69-3.66.19-4.82.56-5.27,5.19-6.58a41.48,41.48,0,0,1,6.35-1.26c7-.85,13.95-1.42,20.88-2.43,5.16-.74,9.58-3.42,13.82-6.35,6.48-4.46,10.69-11,15.33-17.06,2.07-2.73,1.46-6.37-1.21-9.79,4-1.22,7.92-2.5,11.92-3.62,2.65-.74,5.38-1.24,8.07-1.84A66.74,66.74,0,0,1,363,392.31c-14.24,20.34-33.9,32.14-58.25,36.36l-3.42.59-15.94.61c-4.17-.59-8.38-1-12.51-1.81C266.6,426.84,260.38,425.4,254.76,422.19Z" transform="translate(-13.52 -266.33)" style="fill:#0397b4"/><path d="M271.54,834l-1.26,4.6c-.38,1-.76,2-1.13,3-1,2.89-2.06,5.79-3.08,8.68q-36.06,0-72.11,0a13.86,13.86,0,0,0-3.15.75l-4.87-5.39c-2.5-4.55-3.37-7.55-3.21-11.62Z" transform="translate(-13.52 -266.33)" style="fill:#47c6e9"/><path d="M214.87,537.48q-2.38,2.68-4.75,5.39H119.83V604h81l3.16,5.42H114.46v-72Z" transform="translate(-13.52 -266.33)" style="fill:#e0f4fb"/><path d="M322.41,374.9c-.43-1-.86-2-1.39-3.33a6.88,6.88,0,0,1,.55-1.1,12.33,12.33,0,0,0,2.39-8.08c0-5.41,2.88-9.43,6.61-12.8,2.43-2.19,5.37-3.8,8.09-5.67,2.13,2.84,4.61,5.19,8.39,5.4,2.06.12,4.12,0,6.18,0,2.53.35,4.39-.79,6.18-2.46,3.75-3.49,2.63-7.85,2.13-11.94a7.8,7.8,0,0,0-4.33-6.45h0l-.78-.79v0l-.84-.81-.73-.77c2.79-1.77,2.37-4.94,3-7.51,1.6-6.15,1.1-12.37-.46-18.52a14.13,14.13,0,0,1-.12-3.06l.7.4,1.56.15,6.87,0c0,1.72,0,3.43,0,5.15l-3.66.43c1.61,3,3.09,5.81,4.57,8.59.27,1.49.53,3,.82,4.47.73,3.86,2,7.69,2.08,11.57a104.21,104.21,0,0,1-.76,17.21c-1,7.36-4.22,13.38-12.2,15.52a63.58,63.58,0,0,0-7.95,2.7,35.18,35.18,0,0,0-6.4,3.37c-1.07.72-2.74,1.8-1.2,3.63l0,.8a15.06,15.06,0,0,0-1.9.16C334,372.43,328.22,373.67,322.41,374.9Z" transform="translate(-13.52 -266.33)" style="fill:#0ea7cd"/><path d="M204,609.44,200.81,604c-2.61-5.28-5.41-10.48-7.77-15.86a39.71,39.71,0,0,1-3.8-17.86c.3-6.9,6-12.06,12-11.13a50.58,50.58,0,0,1,7.27,2.21l.24.26a40,40,0,0,0,1,4.8c4.84,14.1,11,27.55,19.82,39.67l.72,1v0c.19,1.24.33,2.5.59,3.74,1.67,7.87-4.08,13.61-11.49,11.35a67.81,67.81,0,0,1-6.37-2.64ZM228.89,613c-2-4.55-4.4-8.13-8.36-10.32a7.59,7.59,0,0,0-8,0c-2.83,1.64-2.73,4.27-2.31,6.75.64,3.74,3,6.7,5.44,9.51a2.59,2.59,0,0,0,2.44.31C221.69,617.33,225.16,615.2,228.89,613Z" transform="translate(-13.52 -266.33)" style="fill:#fdb2b2"/><path d="M561.68,411.66c.24,5.48-3.33,8.44-7.54,10.57-3.63,1.84-7.59,3-11.4,4.5-2.14.84-4.32,1.61-6.39,2.59-9.2,4.37-11.45,13.59-10,22,1,5.8,3.74,11,6.89,15.76s4.44,9.33,2.79,14.75c-9.54-4.88-17.19-11.75-21.66-21.63-4.22-9.32-3.44-18.63,1.56-27.39,7.67-13.43,19.42-21,34.82-22.44C554.31,410.05,558,411.19,561.68,411.66Z" transform="translate(-13.52 -266.33)" style="fill:#34446c"/><path d="M344.78,609.41q1.14-2.71,2.26-5.44h91.19a13.54,13.54,0,0,0,.28-1.83q0-27.64,0-55.28a18,18,0,0,0-1-4H371.05l.23-3.07c.22-.77.45-1.54.67-2.32l0,0h70.93v71.95Z" transform="translate(-13.52 -266.33)" style="fill:#e0f4fb"/><path d="M97.45,800.66c-8.93.3-17.24-1.62-24.67-6.77a22.29,22.29,0,0,1-8.16-9.46c-1.77-4-.41-8.66,3.46-10.57a15.78,15.78,0,0,1,5.82-1.77c10.63-.74,20.94.67,30.54,5.54a47.22,47.22,0,0,1,6.22,4.42c4.06,3,4.2,7.2,3.12,11.45-.9,3.54-6.41,7-10.54,7.14C101.31,800.71,99.38,800.65,97.45,800.66Z" transform="translate(-13.52 -266.33)" style="fill:#e0f4fb"/><path d="M927.76,789.8c4.26,0,8.51,0,12.76,0,4.57,0,8.44,2.6,9.24,7.06.91,5,1.16,10.23-.37,15.23-1.32,4.3-4.44,6.36-9,6.36-8.25,0-16.5-.18-24.75.07a9.32,9.32,0,0,1-9.59-9.69c.24-3.21,0-6.44.05-9.67,0-5.81,3.56-9.34,9.28-9.37h12.37Zm-12.37,11.93c.25.7.43,1.17.59,1.64,1.6,4.62,5.31,6.64,9.83,5,2-.75,3.68-.28,5.5.28a6.4,6.4,0,0,0,8.32-7.7c-2.27,0-2.27,0-3.4,1.49-2.2,2.81-3.21,3-5.83.43-1.69-1.66-2.83-1.58-4.49,0-2.61,2.54-3.74,2.45-5.77-.52C918.79,800.34,917.51,800.24,915.39,801.73Z" transform="translate(-13.52 -266.33)" style="fill:#d2f0fa"/><path d="M867.4,759.62h-.77v-5.41c9,0,18,0,27.07,0a30.65,30.65,0,0,0,6.81-.83c5.16-1.25,11.32-8.88,11.15-14.25-.4-12.36-.14-24.74-.11-37.11a12.34,12.34,0,0,0-2-6.86c-3.52-5.64-8.61-8.23-15.09-8.24-21.13,0-42.27,0-63.41,0-.26-.27-.53-.54-.79-.82-.78-1.54-1.57-3.08-2.35-4.63h66.17a23,23,0,0,1,18.8,8.8,17.75,17.75,0,0,1,4,11c.15,12.89.19,25.79,0,38.68-.12,8.84-7.55,16.78-15.61,18.83a30.62,30.62,0,0,1-7.21.83C885.19,759.68,876.29,759.62,867.4,759.62Z" transform="translate(-13.52 -266.33)" style="fill:#e0f4fb"/><path d="M550.21,601.7a11.74,11.74,0,0,1,3.12-1.2c11.28-.92,22.57-1.76,33.87-2.59,1.24-.09,2.49,0,4.61,0-2.18,2.85-3.81,5.26-5.72,7.43-7.38,8.42-16.75,14-26.93,18.31a115.12,115.12,0,0,1-25.95,7.23,12.74,12.74,0,0,1-2.31,0q9.15-13.77,18.3-27.53C549.56,602.8,549.88,602.24,550.21,601.7Z" transform="translate(-13.52 -266.33)" style="fill:#253051"/><path d="M431.72,862.65c-1.35-2.59-3.12-5-4-7.8-2.41-7.79-4.43-15.71-6.61-23.57l-1.14-12,28.62.1,0,6.85c-.18,1.3-.36,2.6-.55,3.9q-.87,5.79-1.75,11.58c-.36,1.24-.73,2.49-1.1,3.74-1.39,4.76-2.95,9.46-6,13.5C437.34,861.41,435,863,431.72,862.65Z" transform="translate(-13.52 -266.33)" style="fill:#253051"/><path d="M337.08,638.84l1.59-5.4H443.18v4.38c0,14,0,28.1,0,42.15a18.53,18.53,0,0,0,.87,3.88l-5.51,6.28V638.84Z" transform="translate(-13.52 -266.33)" style="fill:#e0f4fb"/><path d="M114.21,674.5l5.16-1.8c.53,9.15,0,17.95.37,27.32h115v5.47l-115.32,0h-5.24v-30.2C114.18,675,114.19,674.74,114.21,674.5Z" transform="translate(-13.52 -266.33)" style="fill:#c6ecf9"/><path d="M114.15,643.54c-4.12,0-8.24,0-12.36,0-3.79,0-4.62-.8-4.65-4.44,0-5.53,0-11.07,0-16.61,0-3.13,1-4.39,4-4.45q10.44-.21,20.87,0c2.76.06,3.77,1.39,3.8,4.2,0,3.74,0,7.47,0,11.21H114.17V643.5Z" transform="translate(-13.52 -266.33)" style="fill:#d2f0fa"/><path d="M417.66,347.08c.1,2.88.88,5.65.06,8.66-2.63,9.69-15.25,13.41-22.5,6.47-1-1-2.07-1.9-3.11-2.85q-.78-2.31-1.54-4.62c.06-1.91-.3-3.95.25-5.7,2.81-8.88,11.65-13.21,20-9,1.45.74,2.89,1.5,4.33,2.26Z" transform="translate(-13.52 -266.33)" style="fill:#bcd3d5"/><path d="M417.66,347.08l-2.51-4.73c4.36-3.38,8.78-6.69,13.06-10.16a18.05,18.05,0,0,0,3.2-3.84c4.22-6.1,3.35-10.46-2.85-14.63a41.39,41.39,0,0,0-16.14-6c-9.83-1.74-19.78-2.8-29.68-4.14,0-1.75,0-3.5,0-5.25,14,.55,27.82,2.17,41.09,6.94a37.69,37.69,0,0,1,8.24,4.09c9.38,6.3,9.88,14.37,3.82,22.73C431.15,338.62,424.69,343.21,417.66,347.08Z" transform="translate(-13.52 -266.33)" style="fill:#6ef1fe"/><path d="M214.91,388l1.26,1c.86,1.76,1.73,3.51,2.59,5.26l-29.48.08c-6.76-.81-13.54-1.52-20.27-2.49-3.09-.45-6.11-1.43-9.16-2.17a50,50,0,0,1-14.78-5.94c-4.31-2.76-8.35-6-8.44-11.86l4.65,0c2.95,6,8.51,8.61,14.3,10.82,4.06,1.54,8.26,3.14,12.66,2.23A30.28,30.28,0,0,1,190,388.25a5.53,5.53,0,0,0,2.56.54q10,.07,20,0A7.56,7.56,0,0,0,214.91,388Z" transform="translate(-13.52 -266.33)" style="fill:#c6ecf9"/><path d="M431.72,862.65c3.29.34,5.62-1.24,7.5-3.73,3-4,4.59-8.74,6-13.5a63.28,63.28,0,0,0,19.24,3.28c-.35,1.63-.62,3.28-1.06,4.88a52.49,52.49,0,0,1-10.07,19.26A29.79,29.79,0,0,1,431.72,862.65Z" transform="translate(-13.52 -266.33)" style="fill:#e29c01"/><path d="M215.72,633.4l2.08,5.46-92,0,0,0v-5.41h0Z" transform="translate(-13.52 -266.33)" style="fill:#e0f4fb"/><path d="M318.53,271.17c-4,1.53-7.9,3.65-12,4.45-7.7,1.5-15.54,2.44-23.37,3.2-6.22.6-12.5.58-18.76.83,0-.25,0-.5,0-.76,1.18-1.31,2.43-2.57,3.52-3.95,1.73-2.18,3.35-4.44,5-6.67a79.25,79.25,0,0,1,32.78-.43C310,268.68,314.25,270.05,318.53,271.17Z" transform="translate(-13.52 -266.33)" style="fill:#47c6e9"/><path d="M213.08,619.52a67.81,67.81,0,0,0,6.37,2.64c7.41,2.26,13.16-3.48,11.49-11.35-.26-1.24-.4-2.5-.59-3.74a31.59,31.59,0,0,0,3.15,2.76c3.26,2.24,6.53,4.48,9.94,6.47.89.51,2.33.09,3.52.09,8.85,1.31,13.93-8.88,11.23-15.9-.94-2.44-1.46-5-2.17-7.57.48.59,1,1.16,1.43,1.77,2.73,3.71,5.41,7.49,9.47,9.91.57.34,1.48.12,2.23.16,4.62.46,8.8-.49,12.22-3.86,1.28.78.73,1.72.22,2.64-2.57,4.75-8,7.83-13.14,6.31-2.31-.68-3.42.1-4.87,1.72a43.64,43.64,0,0,1-8.06,7.56c-4.4,2.9-9.55,2.26-14.52,1.44a24.62,24.62,0,0,1-3.37-1c-2.15,2.1-3.91,4.32-6.13,5.88-3.77,2.65-7.94,2.33-12.08.66-1.77-.71-3.59-1.29-5.39-1.93Z" transform="translate(-13.52 -266.33)" style="fill:#f18787"/><path d="M190.81,851a13.86,13.86,0,0,1,3.15-.75q36.06,0,72.11,0c-.48,2.19-1,4.39-1.45,6.59-19.82-.09-39.65-.14-59.47-.27A20.12,20.12,0,0,1,190.81,851Z" transform="translate(-13.52 -266.33)" style="fill:#1dafd7"/><path d="M247.31,401.2l7,20.92-9.33-5c2.27-4,1-6.31-3.51-6.62-.51,0-1,0-1.53,0l-5.72,0c-4.48-4.67-9-9.32-13.43-14a12.15,12.15,0,0,1-1.33-2.24c6.51-.27,13-.49,19.53-.81,2-.1,4-.5,6-.76l0,0Z" transform="translate(-13.52 -266.33)" style="fill:#4fc0dc"/><path d="M264.62,856.82c.48-2.2,1-4.4,1.45-6.59,1-2.89,2.05-5.79,3.08-8.68l1.39,0c.28.68.38,1.64.89,2,2.49,1.67,5.19,2.62,8.27,1.68,1.56-.48,3.16-.81,4.74-1.21.64,8.63-3.5,16.07-5.73,24.13l-12.79-1.75c-1.34-.08-1.6-.93-1.56-2.07C264.47,861.83,264.54,859.32,264.62,856.82Z" transform="translate(-13.52 -266.33)" style="fill:#fe9e9c"/><path d="M142.83,355.54a20.65,20.65,0,0,1-3.92-11.72c-.34-7.34.72-14.25,5.22-20.35a29.8,29.8,0,0,1,19.62-12.14c11.26-2,20.29,1.92,27.85,9.89,1.68,1.77,2.59,4.28,3.86,6.46l-3.11,1.53c-1.12-1.51-2.17-3.08-3.37-4.51a25.84,25.84,0,0,0-29.42-7.89c-10.14,3.72-15.94,12.57-16.68,23.1-.35,4.88,1.45,9.48,3,14Z" transform="translate(-13.52 -266.33)" style="fill:#feecec"/><path d="M420,819.25l1.14,12-25.91.1a13.15,13.15,0,0,1,1-2.75c1.92-3.14,3.93-6.24,6-9.3.29-.44,1-.59,1.51-.88Z" transform="translate(-13.52 -266.33)" style="fill:#feb706"/><path d="M285.37,429.87l15.94-.61c1.59,1.58,3.27,3.08,4.73,4.78a9.17,9.17,0,0,1,1.09,2.72c-5.47,2.39-11.4,2.39-17.16,2.89-3.31.28-6.75-.77-10.1-1.38-.6-.11-1.07-1-1.6-1.49C279.6,433.41,282.82,432,285.37,429.87Z" transform="translate(-13.52 -266.33)" style="fill:#f18787"/><path d="M307.65,542.88v-5.45l42.74.07-6.32,5.36Z" transform="translate(-13.52 -266.33)" style="fill:#e0f4fb"/><path d="M499.84,612.27c-2.31,2.52-3.9,4.36-5.6,6.08-2.66,2.68-2.74,2.69-5.48-.11-1.62-1.65-3.08-3.45-4.92-5.52-2.62,2.51-4.81,4.6-7.23,6.93l-2.69-2.29L484,608.18l7.14,7,8.28-8.11,9.3,9.43c-2.31,3-2.43,3-4.81.64C502.68,615.86,501.61,614.39,499.84,612.27Z" transform="translate(-13.52 -266.33)" style="fill:#d2f0fa"/><path d="M341.75,371.06l0-.8a18.79,18.79,0,0,0,3-.41c8.54-2.54,17-5.16,25.58-7.72,1.57-.47,3.19-.76,4.79-1.14,0,1.53-.08,3.06-.13,4.59l-.87,1.54c-2.69.6-5.42,1.1-8.07,1.84-4,1.12-7.95,2.4-11.92,3.62l-8.53,2.3a21.76,21.76,0,0,1-1.9-1.55C343,372.62,342.41,371.82,341.75,371.06Z" transform="translate(-13.52 -266.33)" style="fill:#1dafd7"/><path d="M269.15,604.76c-.75,0-1.66.18-2.23-.16-4.06-2.42-6.74-6.2-9.47-9.91-.45-.61-.95-1.18-1.43-1.77a.91.91,0,0,0-.23-.47c-.21-.33-.43-.65-.65-1a254.25,254.25,0,0,1-19.71-44.26c-.74-2.19-1.41-4.4-2.11-6.6l-.67-1.67.09,0c.24-1,.49-1.94.73-2.9a8.89,8.89,0,0,1,1.1,2,216.2,216.2,0,0,0,17.76,44.34c3.24,6.1,7.54,11.63,11.4,17.39a5.8,5.8,0,0,0,1.48,1.11.45.45,0,0,0,.35.26Z" transform="translate(-13.52 -266.33)" style="fill:#5b4b64"/><path d="M453.31,872.84a52.49,52.49,0,0,0,10.07-19.26c.44-1.6.71-3.25,1.06-4.88l.81-3.74q1.17-6.66,2.33-13.3l.35-3.93q.44-8.51.86-17l.06-3.86c.39-1-.64-2.73,1.4-3a11.61,11.61,0,0,1,.57,2.54c0,14.73-1.08,29.35-4.66,43.68-2.1,8.42-5,16.55-11.1,23.08Z" transform="translate(-13.52 -266.33)" style="fill:#5b4b64"/><path d="M256.62,291.28c-7.42-.2-14.71-1-21.44-4.51a3.72,3.72,0,0,0-1.13-.19l8.59-6.23c.41.8.65,2.12,1.26,2.32a30.62,30.62,0,0,0,7,1.57c3.18.26,6.4.07,9.6.07C260.28,287.24,258.48,289.27,256.62,291.28Z" transform="translate(-13.52 -266.33)" style="fill:#5bc5e2"/><path d="M738.12,536.67c-.21-2.32,1.49-3.71,2.66-5.33,8-11.08,14.77-22.77,19.12-35.79a66.54,66.54,0,0,0,3.68-26.8c-.67-7.92-2.66-15.6-7-22.45-.82-1.3-1.45-2.71-2.17-4.07l1.55-.76q1.11,2.17,2.21,4.37a61.45,61.45,0,0,1,6.4,19.49c2,14.16-1.38,27.22-6.88,40.06-4.5,10.53-10.8,19.93-17.34,29.21A14.44,14.44,0,0,1,738.12,536.67Z" transform="translate(-13.52 -266.33)" style="fill:#e0f4fb"/><path d="M260.49,284.31c-3.2,0-6.42.19-9.6-.07a30.62,30.62,0,0,1-7-1.57c-.61-.2-.85-1.52-1.26-2.32l13.22-6.81c1.61,3.73,4.8,4.95,8.5,5.35,0,.26,0,.51,0,.76-.79,1.56-1.59,3.11-2.39,4.67Z" transform="translate(-13.52 -266.33)" style="fill:#4fc0dc"/><path d="M245,392.68c-2,.26-4,.66-6,.76-6.51.32-13,.54-19.53.81a2.51,2.51,0,0,1-.67-.08c-.86-1.75-1.73-3.5-2.59-5.26l27.27-.87Z" transform="translate(-13.52 -266.33)" style="fill:#5bc5e2"/><path d="M234.19,410.51l5.72,0c.51,0,1,0,1.53,0,4.54.31,5.78,2.65,3.51,6.62a21.55,21.55,0,0,0-2.56.28,29,29,0,0,1-14.1.19c-.74-.2-1.75-.33-2.08-.84a6.66,6.66,0,0,1-1.2-3.39c0-1.45,1.22-2.14,2.67-2.26Z" transform="translate(-13.52 -266.33)" style="fill:#0ea7cd"/><path d="M159.85,389.59c3.05.74,6.07,1.72,9.16,2.17,6.73,1,13.51,1.68,20.27,2.49-.75,2-2.62,2.49-4.3,2.81-4.24.82-8.47,1.76-12.85.42-2.4-.74-5.07-.59-7.49-1.29C160.48,395,159.91,394,159.85,389.59Z" transform="translate(-13.52 -266.33)" style="fill:#d2f0fa"/><path d="M820.18,657.44c-3.69.94-7.4,1.83-11.07,2.84a59.45,59.45,0,0,1-17,2.55c-6.4-.13-12.87,0-19.17-.89a68.82,68.82,0,0,1-20.42-6.2c-4.83-2.36-9.49-5.07-14.16-7.74-.77-.44-1.23-1.43-1.84-2.17a12.1,12.1,0,0,1,2.83,1.07c11.1,7.82,23.72,11.73,36.84,14.29,2.11.42,4.38-.05,6.55.15,11.87,1,23.25-1.12,34.37-5.08a12.88,12.88,0,0,1,2.25-.37Z" transform="translate(-13.52 -266.33)" style="fill:#e0f4fb"/><path d="M210.19,318.38l-1,.77c-2.3,0-4.62.18-6.9,0-3.71-.37-4.88-2.86-2.73-5.87,1.83-2.56,4.12-4.51,7.65-4.22,2.29.19,4.6.11,6.9.16Z" transform="translate(-13.52 -266.33)" style="fill:#c6ecf9"/><path d="M538.36,493.36c3.27,1.15,5.68,3.43,7.91,5.95.45,2.24-1.51,3.2-2.5,4.67-3,2.85-6.62,2.89-11.11,2.53C534.51,501.84,536.26,497.53,538.36,493.36Z" transform="translate(-13.52 -266.33)" style="fill:#2b395d"/><path d="M265.92,866.41l12.79,1.75c2.23-8.06,6.37-15.5,5.73-24.13-.27-.84-.5-1.7-.82-2.52-1.17-3-4-4.63-7-3.52-2.18.81-4.07,2.37-6.09,3.59l-1.39,0c.37-1,.75-2,1.13-3,2.15-.77,4.24-1.91,6.46-2.23,6.45-1,9.19,3.27,9.35,8.39a37.51,37.51,0,0,1-1.92,12.84c-1.15,3.52-2.46,7-3.49,10.55-.5,1.7-1.41,2.49-3,2.1-3.93-.92-7.83-2-11.74-3Z" transform="translate(-13.52 -266.33)" style="fill:#feecec"/><path d="M300.71,862.57c.25-.74.5-1.48.74-2.22l1.65-.83,13.5,3.53c2.35-7,6.11-13.17,5-20.58-.67-4.86-2.68-6.33-7.21-5.31-1,.23-2,.4-2.95.6l1-2.13.67-1h0a4.91,4.91,0,0,0,.75.13c7.23.12,11.18,4,9.93,11.12-1.05,6-3.44,11.67-5.33,17.46-.56,1.73-2,1.65-3.49,1.23-3.67-1-7.39-1.87-11-3-1.15-.34-1.65-.21-1.81,1Z" transform="translate(-13.52 -266.33)" style="fill:#feecec"/><path d="M142.83,355.54l3.08-1.59c1,1.31,2.07,2.62,3.11,3.92l-2.34,3.84c-3.65,2.36-5,6-5.4,10.06l-4.65,0c-.26-.53-.82-1.13-.72-1.57,1-4.4,1.79-8.91,5.46-12.16A9.41,9.41,0,0,0,142.83,355.54Z" transform="translate(-13.52 -266.33)" style="fill:#e0f4fb"/><path d="M375,365.58c.05-1.53.09-3.06.13-4.59l.86-1.63c1.92-.47,3.87-.83,5.75-1.45,3-1,5.87-2.1,8.8-3.17q.76,2.31,1.54,4.62c-3.14,1.34-6.24,2.78-9.43,4C380.19,364.24,377.59,364.84,375,365.58Z" transform="translate(-13.52 -266.33)" style="fill:#c6ecf9"/><path d="M210.19,318.38l4-9.2c.21-.05.43-.08.65-.11,1.31.26,2.61.55,3.92.78,1.62.28,3.25.51,4.88.76a2.19,2.19,0,0,1,2.05,2.34c.06,1.39-.16,2.56-1.63,3.13a6.94,6.94,0,0,1-1.4.63C218.48,317.29,214.34,317.83,210.19,318.38Z" transform="translate(-13.52 -266.33)" style="fill:#5bc5e2"/><path d="M264.36,278.89c-3.7-.4-6.89-1.62-8.5-5.35,5.3-3,11.11-4.3,17-5.27-1.66,2.23-3.28,4.49-5,6.67C266.79,276.32,265.54,277.58,264.36,278.89Z" transform="translate(-13.52 -266.33)" style="fill:#5bc5e2"/><path d="M382.76,298.3c0,1.75,0,3.5,0,5.25l-16.26-.78c0-1.72,0-3.43,0-5.15Z" transform="translate(-13.52 -266.33)" style="fill:#47c6e9"/><path d="M341.06,858.73l0-2.17,1.91-.4c2.94,1.23,5.89,2.44,8.81,3.71,1.67.73,2.62.31,3.14-1.48,1.1-3.78,2.35-7.53,3.43-11.32a5,5,0,0,0-.11-2.55c-1.18-4.22-3.22-5.36-8.82-5.06l1.27-2.54c7.74-.12,11.24,6.87,8.76,13.34-1.55,4-2.72,8.17-4.18,12.66-1.76-.66-3.13-1.26-4.55-1.69-3-.89-6.08-1.69-9.12-2.53A2.73,2.73,0,0,1,341.06,858.73Z" transform="translate(-13.52 -266.33)" style="fill:#feecec"/><path d="M192.35,329.21l3.11-1.53,12.18-3.16c-.64,2.09-1.27,4.19-1.91,6.29-1.2.27-2.42.47-3.58.84-2.7.86-5.14,2.66-8.19,2.23C193.42,332.32,192.89,330.76,192.35,329.21Z" transform="translate(-13.52 -266.33)" style="fill:#e0f4fb"/><path d="M543.77,504c1-1.47,3-2.43,2.5-4.67,1.7,1.12,2.6-.15,3.47-1.24,1.5-1.91,2.89-3.9,4.43-5.78a10.29,10.29,0,0,1,2-1.54l.69.74c-1.4,1.89-2.79,3.79-4.2,5.67-4.23,5.63-8.51,11.21-12.65,16.9a18.36,18.36,0,0,0-1.69,4.06l-2.21-1.55q1.23-2,2.45-3.93a54.52,54.52,0,0,0,4-4.92A14.92,14.92,0,0,0,543.77,504Z" transform="translate(-13.52 -266.33)" style="fill:#5b4b64"/><path d="M411.22,379.76l-6-5.66c2-2.06,4.08-4.14,5.75-5.83l5.83,5.8C415.14,375.73,413.2,377.73,411.22,379.76Z" transform="translate(-13.52 -266.33)" style="fill:#feedc8"/><path d="M119.72,339.26a49.37,49.37,0,0,1-5.23-.88,2.7,2.7,0,0,1-1.71-1.68,3,3,0,0,1,.71-2.37c2-2.05,8.82-1.6,10.66.71a3.34,3.34,0,0,1,.62,2.75c-.28.69-1.49,1.11-2.36,1.44A10.42,10.42,0,0,1,119.72,339.26Z" transform="translate(-13.52 -266.33)" style="fill:#feedc8"/><path d="M271.44,482.46c9.39,1.69,18.83,1.42,28.29.28.09.28.18.55.28.83a6.58,6.58,0,0,1-1.85,1.07,75,75,0,0,1-26.48-.3Z" transform="translate(-13.52 -266.33)" style="fill:#5b4b64"/><path d="M121,303.29a57.25,57.25,0,0,1,4.12-4.43c.43-.39,1.5-.08,2.27,0,.17,0,.29.4.45.6,1.11,1.41,3.05,2.8,3.09,4.23,0,1.23-2.05,2.61-3.36,3.73-.52.45-1.85.79-2.19.49C123.79,306.52,122.45,304.89,121,303.29Z" transform="translate(-13.52 -266.33)" style="fill:#5bc5e2"/><path d="M572.64,415.79c3,3.31,6.09,6.55,9,9.94a61.39,61.39,0,0,1,4.24,5.94c.25.38.12,1,.25,2.52-1.11-1.23-1.6-1.73-2-2.26-3.55-4.2-7.12-8.38-10.63-12.61a37,37,0,0,1-2.12-3.11Z" transform="translate(-13.52 -266.33)" style="fill:#bcd3d5"/><path d="M145.07,286.53l4.59,4.21a28.36,28.36,0,0,1-3.35,3,2.43,2.43,0,0,1-2.3,0,30.27,30.27,0,0,1-3.24-3.84Z" transform="translate(-13.52 -266.33)" style="fill:#fd8a8a"/><path d="M271.44,491.3c3,.73,5.93,1.69,9,2.12a83.94,83.94,0,0,0,9.06.3c-2,1.93-4.51,2.42-9.3,1.68-3-.46-6-1.41-9-2.14Z" transform="translate(-13.52 -266.33)" style="fill:#5b4b64"/><path d="M526,522.72c3,.68,4.29,3.23,2.55,5.51-1.56,2-3.35,4-6.33,3.79Z" transform="translate(-13.52 -266.33)" style="fill:#f18787"/><path d="M210.26,411.36c2.25,0,4.24,1.17,4.34,2.5s-1.68,2.57-3.35,2.58c-2.18,0-4-1.17-4.12-2.65C207,412.1,208,411.33,210.26,411.36Z" transform="translate(-13.52 -266.33)" style="fill:#6ccef1"/><path d="M132.77,352.61c-2.46,2.94-4.87-.25-7.1.57-1.16-1.75-.65-2.78.94-3.46C128.38,349,130.69,350,132.77,352.61Z" transform="translate(-13.52 -266.33)" style="fill:#feedc8"/><path d="M430.41,380.58l3.83,3.53-3.74,3.27-2.85-3.68Z" transform="translate(-13.52 -266.33)" style="fill:#feedc8"/><path d="M397.92,397l-4,2.52a2.75,2.75,0,0,1-2.43-3,3.2,3.2,0,0,1,1.95-2.11C395.44,393.87,396.32,395.72,397.92,397Z" transform="translate(-13.52 -266.33)" style="fill:#c6ecf9"/><path d="M359.6,297.58l-1.56-.15Z" transform="translate(-13.52 -266.33)" style="fill:#47c6e9"/><path d="M627.28,652.74q-35.76,0-71.52.13c-3.19,0-6.38.34-9.57.52.36-.45.66-1.23,1.07-1.29,6-.86,12.14-1.37,18.13-2.48s12.15-2.74,18.16-4.34a158.54,158.54,0,0,0,35.14-14.1A135,135,0,0,0,641,615.73a92.94,92.94,0,0,0,13.65-14.47c.45-.58,1.45-.73,2.2-1.08-3.89,7.09-7.76,14.19-11.67,21.26q-8.49,15.34-17,30.66Z" transform="translate(-13.52 -266.33)" style="fill:#f18787"/><path d="M431.89,727.37A18.78,18.78,0,0,1,443.76,724c1.4.09,2.82,0,4.23,0l2.91.94c3.8,1.93,7.38,4.16,9.2,8.25,1.14,2.55,2.1,5.19,3.12,7.8,2.62,6.66,3.37,13.74,4.86,20.67,1.41,6.6,1.34,13.18,1.46,19.81a44.79,44.79,0,0,0,.68,5.26c-5.69-.26-11.38-.51-17.06-.83a8.34,8.34,0,0,1-2.13-.71c-.82-8.58-1.25-17.22-2.58-25.72a119.72,119.72,0,0,0-5-20.17C441.53,733.8,438.42,728.74,431.89,727.37Z" transform="translate(-13.52 -266.33)" style="fill:#e29c01"/><path d="M425.26,705.42l-65.25,0c-1.55,0-3.09.07-4.63.11-1.4-1.84-2.79-3.69-4.18-5.53H430Z" transform="translate(-13.52 -266.33)" style="fill:#e0f4fb"/><path d="M450.9,725,448,724a26.46,26.46,0,0,1,4.36-.73q96.69-.06,193.39,0c.78,0,1.55,0,2.32,0,3.35.15,5.53,2,6,4.94.39,2.53-1.37,5.14-4.26,6.14-1,.33-2.2.16-3,.72-1,.76-2.3,1.93-2.42,3a4.51,4.51,0,0,0,1.73,3.46,7.4,7.4,0,0,0,4,.9c4.64.13,9.28.08,13.92.13a5.4,5.4,0,0,1,3.33,1,6.23,6.23,0,0,1-1.84.58c-5.68,0-11.35,0-17-.07-3.51-.07-6-2.26-6.22-5.13-.18-2.72,1.71-4.78,5.2-5.7.75-.2,1.49-.41,2.22-.67a3.51,3.51,0,0,0,2.49-3.89,4,4,0,0,0-3.32-3.75,9.33,9.33,0,0,0-2.31-.07H452.83C452.19,724.83,451.55,724.91,450.9,725Z" transform="translate(-13.52 -266.33)" style="fill:#feedc8"/><path d="M470.25,803.87c-2,.26-1,2-1.4,3l-19.3-.79c.16-3.15.44-6.29.45-9.44,0-2.26-.36-4.52-.56-6.79l1.24-.11,19.54.83Z" transform="translate(-13.52 -266.33)" style="fill:#e29c01"/><path d="M435.45,741.72l-11.88-.64c.94-4.76,2.24-9.34,6.4-12.46,2.11.83,4.6,1.2,6.25,2.59a16.66,16.66,0,0,1,6,10.35Z" transform="translate(-13.52 -266.33)" style="fill:#253051"/><path d="M698.11,702.07a30.91,30.91,0,0,1-1-5.49c0-3.72-1.72-6.59-3.91-9.32a19.4,19.4,0,0,0-11.68-6.88c.22-1,.11-2.37.67-2.78a4,4,0,0,1,3.16-.66c6.65,2.38,11.87,6.5,14.71,13.14a20.35,20.35,0,0,1,1.67,9.34C701.63,701.78,700.7,702.69,698.11,702.07Z" transform="translate(-13.52 -266.33)" style="fill:#e29c01"/><path d="M545.39,770.06c.3-.32.87-1.46,1.71-1.71.54-.16,1.83.84,2.15,1.59a61,61,0,0,1,2,6.13c2,6.36,6.74,10,12.42,12.81.45.22,1.13.13,1.44.45a3,3,0,0,1,1,1.85,2.18,2.18,0,0,1-1.36,1.57,6.3,6.3,0,0,1-3.34-.42c-8.71-4.27-14.25-11.05-16-20.72A15.26,15.26,0,0,1,545.39,770.06Z" transform="translate(-13.52 -266.33)" style="fill:#e29c01"/><path d="M442.25,741.56a16.66,16.66,0,0,0-6-10.35c-1.65-1.39-4.14-1.76-6.25-2.59l1.92-1.25c6.53,1.37,9.64,6.43,11.53,11.94a119.72,119.72,0,0,1,5,20.17c1.33,8.5,1.76,17.14,2.58,25.72-.12,1.51-.24,3-.35,4.53l-1.24.11a229.65,229.65,0,0,0-3.24-33.93C445.3,751.05,443.59,746.34,442.25,741.56Z" transform="translate(-13.52 -266.33)" style="fill:#feedc8"/><path d="M518.24,829.34a16.7,16.7,0,0,1,3.61.08c.67.13,1.76,1.25,1.65,1.65a3.14,3.14,0,0,1-1.78,2,15.79,15.79,0,0,1-3.84.12c-6.59.14-12.21,2.34-16.33,7.73-.31.4-.7,1-1.1,1-1.05.11-2.37.33-3.15-.16-1.24-.79-.67-2,.21-2.94C502.08,833.7,508.87,828.66,518.24,829.34Z" transform="translate(-13.52 -266.33)" style="fill:#e29c01"/><path d="M655.81,820c-.64,0-1.42.23-1.89-.06-.68-.41-1.56-1.19-1.56-1.82s.85-1.5,1.54-1.82c.88-.41,2-.27,3-.55a20.86,20.86,0,0,0,13-10.09c.19-.34.3-.91.56-1,1-.28,2.22-.8,3.11-.51,1.33.45,1.27,1.71.6,2.9-2.84,5.05-6.68,9.06-12.07,11.36a61.19,61.19,0,0,1-6.17,1.9Z" transform="translate(-13.52 -266.33)" style="fill:#e29c01"/><path d="M478.69,685.05c2.07,1.79,2.13,3.25.67,4.7-4.25,4.22-4.83,9-2.43,14.37.57,1.27.59,2.61-.81,3.36s-2.41-.4-3.16-1.42c-3-4.13-2.42-12.18,1.27-16.53C475.53,688,477.08,686.65,478.69,685.05Z" transform="translate(-13.52 -266.33)" style="fill:#e29c01"/><path d="M758.2,805.49c.16,2.26-1.17,3.34-2.92,2.53a19.79,19.79,0,0,1-10.8-11.8c-.45-1.3-.25-2.64,1.29-3.18s2.49.27,2.9,1.68C750,799.19,753,802,757.1,804,757.67,804.32,758,805.17,758.2,805.49Z" transform="translate(-13.52 -266.33)" style="fill:#e29c01"/><path d="M450.68,789.73c.11-1.51.23-3,.35-4.53a8.34,8.34,0,0,0,2.13.71c5.68.32,11.37.57,17.06.83v3.82Z" transform="translate(-13.52 -266.33)" style="fill:#d28d01"/><path d="M617.4,708c-4.59-1-7.7-3.33-9.56-7.06a12.87,12.87,0,0,1-1.21-5.13c0-.85,1-1.75,1.55-2.64.91.6,1.85,1.16,2.69,1.83.24.18.25.71.27,1.08.2,4.18,2.89,6.32,6.38,7.8.46.2,1.15.23,1.36.57.37.59.83,1.62.57,2A7.16,7.16,0,0,1,617.4,708Z" transform="translate(-13.52 -266.33)" style="fill:#e29c01"/><path d="M394.37,741.07l.64-.78-.06.8-.29,0Z" transform="translate(-13.52 -266.33)" style="fill:#f18787"/><path d="M715.67,625.7c-3.34-1.6-4.06-5-5.35-8-4.74-10.82-4.12-22.05-1.42-33.13,2.22-9.13,6.63-17.44,11.77-25.32a4.61,4.61,0,0,1,1.19-.92c-1.43,3.1-2.65,6.32-4.35,9.27a72.51,72.51,0,0,0-8,21A47.15,47.15,0,0,0,708,599.21c.12,5.46.73,11,2.88,16.08C712.39,618.81,714.08,622.23,715.67,625.7Z" transform="translate(-13.52 -266.33)" style="fill:#e0f4fb"/><path d="M721.86,558.35a48.72,48.72,0,0,1,3-5.66c2.73-3.85,5.64-7.57,8.57-11.27a10,10,0,0,1,2.32-1.65c-2.09,3.15-4.11,6.34-6.27,9.43-2,2.82-4,5.55-6.13,8.28C723.07,557.91,722.38,558.07,721.86,558.35Z" transform="translate(-13.52 -266.33)" style="fill:#e0f4fb"/><path d="M721.86,634.23c-2.82-2.29-5.71-4.54-6.19-8.53C718,628.37,721.3,630.3,721.86,634.23Z" transform="translate(-13.52 -266.33)" style="fill:#e0f4fb"/><path d="M736.57,645.83c-2.91-.41-5.32-1.51-6.19-4.65Z" transform="translate(-13.52 -266.33)" style="fill:#e0f4fb"/><path d="M730.38,641.18c-3.31.12-4.4-2.75-6.21-4.64C727.49,636.42,728.58,639.27,730.38,641.18Z" transform="translate(-13.52 -266.33)" style="fill:#e0f4fb"/><path d="M735.8,539.77c-.09-1.68.21-3.06,2.32-3.09Z" transform="translate(-13.52 -266.33)" style="fill:#e0f4fb"/><path d="M866.62,754.21v5.41h-41.8A22.29,22.29,0,0,1,803.39,743a12,12,0,0,1-.24-3.06c0-12.64-.08-25.29,0-37.93.06-7.56,3.88-13,10.07-17.09,4.5-3,9.49-3.54,14.67-3.44.78,1.55,1.57,3.09,2.35,4.63a8.8,8.8,0,0,1-2,.76c-2.4.32-4.83.43-7.21.81A14.75,14.75,0,0,0,808.57,702q0,18.56,0,37.12a16.27,16.27,0,0,0,.38,3.41c1.22,5.61,8.56,11.74,15.93,11.67,13.66-.13,27.33,0,41-.06Z" transform="translate(-13.52 -266.33)" style="fill:#c6ecf9"/><path d="M547,477.21c.75-.93,1.3-2.2,2.26-2.73,5.6-3.08,11.11-6.44,17-8.83a176.52,176.52,0,0,1,22.51-7.44c7.74-2,15.53-4,23.61-4.42,5.35-.29,10.66-1.35,16-1.42,9.84-.12,17.06,4.67,21.86,13.11,2.71,4.77,3.19,9.94,2.84,15.42-.44,6.94-2.58,13.51-3.53,20.3a86.48,86.48,0,0,0-.38,15,47.88,47.88,0,0,0,1.57,9.38,8.64,8.64,0,0,0,2.14,3.56c1.67,1.81,3.57,2.58,6.21,1.5a18,18,0,0,0,6.8-4.17c1.75-1.89,3.58-3.72,5.49-5.46a10.77,10.77,0,0,1,2.6-1.32c-3.33,6.81-8.64,11.77-15.7,14-8.21,2.62-12,0-14.4-7.16-1.91-5.84-1.68-12-1.16-18,.74-8.45,1.75-16.88,2.49-25.33a46.3,46.3,0,0,0-.05-8.49c-.94-9.43-3.53-13.49-13.32-15.24a69.54,69.54,0,0,0-18.06-.66A194.4,194.4,0,0,0,556,473c-2.25.93-4.32,2.28-6.5,3.36A19.13,19.13,0,0,1,547,477.21Z" transform="translate(-13.52 -266.33)" style="fill:#1c243d"/><path d="M617.68,523.77c5,.39,9.71,1.19,14.15,3.49,3,1.53,4,4.22,4.73,7.08.48,1.9-2.7,5.8-5,6.16-3.75.59-7.43,1.33-11.34.23-3-.84-6.39-.33-9.46-1a93.05,93.05,0,0,1-13.08-4c-3.53-1.38-3.81-4.29-.8-6.73a12.4,12.4,0,0,1,5-2.41C607.17,525.47,612.43,524.68,617.68,523.77Z" transform="translate(-13.52 -266.33)" style="fill:#f18787"/><path d="M635.76,482.83c0,3.43-1,4.59-4.36,4.17a17.68,17.68,0,0,1-5.86-1.77c-7.29-3.75-15.06-5.12-23.15-5.18a22.19,22.19,0,0,1-2.31-.08c-2-.21-3.91-.52-4.44-2.93a5.16,5.16,0,0,1,3-6.07,23.27,23.27,0,0,0,4.89-2.69c1.28-.87,3.42-.89,5.08-.64a17.2,17.2,0,0,1,5,2,14.57,14.57,0,0,0,8.52,1.67C629.42,470.52,635.67,476,635.76,482.83Z" transform="translate(-13.52 -266.33)" style="fill:#1c243d"/><path d="M607.14,493.44c.27.26.52.54.82.78,6.34,5,6.36,11-.05,16-5.12,3.94-11,3.94-17,2.85-1.63-.3-3.22-.82-4.84-1.24l-.05.11-1.15-.77c-2.78-4.12-2.69-7.11,1-10.44a21.6,21.6,0,0,1,7.72-4.76C598,494.6,602.63,494.22,607.14,493.44Z" transform="translate(-13.52 -266.33)" style="fill:#253051"/><path d="M595,565.89c-1.77-4.16-1.24-7,2.1-9.84a22.52,22.52,0,0,1,14.08-5.26c4.25-.13,7.38,1.78,8.67,6.08v1.5c-.83,4.5-3.69,7.14-7.89,8.5-5.39,1.76-10.77,1.26-16.14-.16v0Z" transform="translate(-13.52 -266.33)" style="fill:#34446c"/><path d="M595.82,566.71c5.37,1.42,10.75,1.92,16.14.16,4.2-1.36,7.06-4,7.89-8.5,1.41,0,2.83,0,4.23-.13q12.13-1.44,24.27-3c5-.65,10.1-1,14.43-4.39,2.08-1.61,4.76-2.45,7.17-3.65-.42.7-.68,1.62-1.29,2-2.08,1.47-4.51,2.53-6.41,4.2-3.51,3.1-7.74,3.59-12,4.13-3.66.46-7.3,1-11,1.59-5.53.84-11.06,1.7-16.87,2.6-.21,1-.38,2.24-.74,3.42-1.42,4.64-5.17,6.71-9.42,7.58-4.73,1-9.51.55-13.71-2.22C597.19,569.69,595.51,568.82,595.82,566.71Z" transform="translate(-13.52 -266.33)" style="fill:#f18787"/><path d="M680.18,535c0-6.13.09-6.24,6.32-5.33.63.09,1.28.11,1.91.22,5.37.93,7.93,4,8,9.57s-2.37,8.71-7.86,9.56c-2.33.37-4.76.06-7.53.06-.09-1.77-.17-3.26-.25-4.75a44.35,44.35,0,0,0,5.89-1.42,3.9,3.9,0,0,0,2.52-4.32c-.23-2.1-1.74-3.13-3.62-3.41A45.5,45.5,0,0,0,680.18,535Z" transform="translate(-13.52 -266.33)" style="fill:#253051"/><path d="M680.18,535a45.5,45.5,0,0,1,5.36.18c1.88.28,3.39,1.31,3.62,3.41a3.9,3.9,0,0,1-2.52,4.32,44.35,44.35,0,0,1-5.89,1.42l-1.36-2.53L670,547.21c-2.41,1.2-5.09,2-7.17,3.65-4.33,3.36-9.39,3.74-14.43,4.39q-12.14,1.54-24.27,3c-1.4.17-2.82.09-4.23.13v-1.5l19.8-2.37c4.7-.56,9.57-.51,14.06-1.8s8.93-3.87,13.31-6c3-1.46,5.78-3.4,8.85-4.68C679.15,540.64,680.85,538.66,680.18,535Z" transform="translate(-13.52 -266.33)" style="fill:#feecec"/><path d="M536.12,516.57l2.21,1.55,8,6.83-.36.63H531.07A40.34,40.34,0,0,1,536.12,516.57Z" transform="translate(-13.52 -266.33)" style="fill:#253051"/><path d="M538.1,577.21c.34-4.39.34-4.39-4.06-6.59,2.75-1,4.05-.78,5.22.91S540.16,574.82,538.1,577.21Z" transform="translate(-13.52 -266.33)" style="fill:#5b4b64"/><path d="M673.93,519.74c-.1-1.26-.23-2.55,1.69-2.35C675.06,518.17,674.5,519,673.93,519.74Z" transform="translate(-13.52 -266.33)" style="fill:#1c243d"/><path d="M595,565.89l.82.87Z" transform="translate(-13.52 -266.33)" style="fill:#f18787"/><path d="M546.18,478l.85-.83Z" transform="translate(-13.52 -266.33)" style="fill:#1c243d"/><path d="M545.42,478.81l.82-.93Z" transform="translate(-13.52 -266.33)" style="fill:#1c243d"/><path d="M234.94,710.86c0-1.82.07-3.63.11-5.45,4.71,1.09,9.38,2.33,14.13,3.24a59.06,59.06,0,0,0,11,1.35c7.57,0,15.21.15,22.68-.83,13.38-1.76,26.2-5.56,37.41-13.57,1.34-1,2.8-1.76,4.2-2.64l.33,3.06a35.54,35.54,0,0,1-2.43,2.88A78.87,78.87,0,0,1,304,711.76l-.93.69h0l-1.55.78h0L300,714l0,0-3.88,1.57h0l-1.56.77h0a41.45,41.45,0,0,0-15.5,5.44l0,0c-2.21-.05-4.4,0-6.19,1.57a5.74,5.74,0,0,1-1.42.58c-6.32.87-12.65,1.63-19,2.56A63.1,63.1,0,0,0,246.4,728L238,728l-2.13-.24c-.16-5.44-.31-10.88-.49-16.32C235.4,711.24,235.1,711.05,234.94,710.86Z" transform="translate(-13.52 -266.33)" style="fill:#f18787"/><path d="M321.78,666h88.46c1,0,2.21-.29,3.06.1a5.54,5.54,0,0,1,2.58,2.43c.24.51-.69,2.06-1.42,2.37a13.35,13.35,0,0,1-5.09,1.23c-21.89.08-43.78,0-65.68.06-3.6,0-7.2.09-10.81.15l-10.39-.87C322.25,669.61,322,667.78,321.78,666Z" transform="translate(-13.52 -266.33)" style="fill:#e0f4fb"/><path d="M234.37,685.77l-1-14.41c.11-.64.22-1.28.34-1.91.25,0,.58-.13.75,0,8.74,6,18.35,5.85,28.19,3.95a86.84,86.84,0,0,1,9.08-1.52C260.88,680.68,249.14,687.23,234.37,685.77Z" transform="translate(-13.52 -266.33)" style="fill:#253051"/><path d="M360.32,570.73H411c3.31,0,5.16,1.07,5,2.85s-1.84,2.56-4.92,2.56h-53Z" transform="translate(-13.52 -266.33)" style="fill:#e0f4fb"/><path d="M322.49,671.43l10.39.87.39,1.44c1.17,9-2.19,16.18-8.51,22.28l-.33-3.06Q323.45,682.21,322.49,671.43Z" transform="translate(-13.52 -266.33)" style="fill:#253051"/><path d="M233.76,669.45c-.12.63-.23,1.27-.34,1.91H206c-.9,0-2,.26-2.66-.13A3.14,3.14,0,0,1,201.8,669a3.17,3.17,0,0,1,1.63-2.15c.71-.38,1.76-.13,2.66-.13l25.1-.05Z" transform="translate(-13.52 -266.33)" style="fill:#c6ecf9"/><path d="M304.66,595.15c-4.63,3.39-9.14,6.31-13.2,9.75a40.62,40.62,0,0,0-10.53,12.73c-2.39,4.82-4.94,9.63-6.6,14.71s-2.21,10.3-3.36,16C264.82,634.05,289.79,595.09,304.66,595.15Z" transform="translate(-13.52 -266.33)" style="fill:#5b4b64"/><path d="M311.44,570.8l17.13-.07c-1.22,2.07-2.15,4.39-3.71,6.16-3,3.43-9.49,3.72-11.9-1.42A36.91,36.91,0,0,1,311.44,570.8Z" transform="translate(-13.52 -266.33)" style="fill:#e0f4fb"/><path d="M364.23,559.17l-.78,1.5c-3-.69-4.3-1.93-4.65-4.7-.76-6,1.28-11.4,4.11-16.52a3.33,3.33,0,0,1,2.19-1.2c2.27-.38,4.56-.56,6.85-.82-.22.78-.45,1.55-.67,2.32H364.7c-3.1,5.7-4.52,10.12-4.4,13.71C360.39,556.18,361.14,558.49,364.23,559.17Z" transform="translate(-13.52 -266.33)" style="fill:#feecec"/><path d="M351.2,700c1.39,1.84,2.78,3.69,4.18,5.53,3.12,5.71,6.49,11.29,9.29,17.15s5.09,12.27,5.29,19c-15.22-.68-29.69,2.23-43.09,9.52-4.59,2.5-8.66,6-13,9a37.74,37.74,0,0,0-4.15.64q-30.54,8.22-60.26,19c-3.44,1.25-6.7,3-10,4.53l-2.17.7-7,3.12-5.25,1.6c-1.75-8.54-2.89-17.17-2.33-25.88.28-4.53,1.54-9,2.35-13.51,4.08.49,8.17,1.44,12.23,1.36a152.31,152.31,0,0,0,19.2-1.57C272,748,286.65,742.8,301.12,737c.5-.21.82-.88,1.23-1.33l3.81-2.32,3.4-1.06c3.79-2.17,7.6-4.32,11.34-6.57.39-.23.41-1.07.6-1.62.37-.07.85,0,1.12-.21,5.66-4.49,11.45-8.83,16.87-13.6a16.43,16.43,0,0,0,5.41-12.61,13.71,13.71,0,0,1,.78-3.12Z" transform="translate(-13.52 -266.33)" style="fill:#feb706"/><path d="M239.46,784.44c3.34-1.52,6.6-3.28,10-4.53q29.73-10.73,60.26-19a37.74,37.74,0,0,1,4.15-.64c-7.11,8.06-12.34,17.42-18.07,26.42-2.45,3.87-4.6,7.93-6.81,12-2.34,4.25-4.58,8.55-6.87,12.83a32.7,32.7,0,0,0-3.84.2c-12.38,2.14-24.74,4.42-37.13,6.45-6.95,1.13-14,1.86-21,2.77-4.76-2.41-6.78-6.69-7.93-11.58a52.27,52.27,0,0,1,1.15-7.75c.46-1.55,1.92-2.8,2.94-4.19l2.29,7.18a40.1,40.1,0,0,0,15-5.82c3.89-2.55,6.76-6,5.88-11.21A22.4,22.4,0,0,1,239.46,784.44Z" transform="translate(-13.52 -266.33)" style="fill:#fd8a8a"/><path d="M212.3,809.3c1.15,4.89,3.17,9.17,7.93,11.58.44,2.79,3,3,4.89,3.66,3.7,1.21,7.46,1,11.34.22,8.25-1.56,16.58-2.67,24.89-3.88,3-.43,5.94-.62,9.49-1-.38,2.24-.68,3.71-.89,5.19-.33,2.39-.61,4.79-.91,7.19q-22.4,0-44.77.1H182.7c-.19-10.59,8.41-21.51,20.42-22.47C206.18,809.66,209.24,809.5,212.3,809.3Z" transform="translate(-13.52 -266.33)" style="fill:#6ccef1"/><path d="M269,832.27c.3-2.4.58-4.8.91-7.19.21-1.48.51-3,.89-5.19-3.55.37-6.53.56-9.49,1-8.31,1.21-16.64,2.32-24.89,3.88-3.88.73-7.64,1-11.34-.22-1.91-.63-4.45-.87-4.89-3.66,7-.91,14-1.64,21-2.77,12.39-2,24.75-4.31,37.13-6.45a32.7,32.7,0,0,1,3.84-.2q-5,10.49-10,21Z" transform="translate(-13.52 -266.33)" style="fill:#47c6e9"/><path d="M225.29,749.33c-2.35-6.7-3.64-13.51-1.89-20.57a34.71,34.71,0,0,1,1.61-4.21l10.69,3.34c-1.33.88-2.56,1.64-2.45,3.68s-.63,4-.59,6c.09,4.2.45,8.4.7,12.6-1.35-.19-2.7-.41-4.06-.56S226.63,749.44,225.29,749.33Z" transform="translate(-13.52 -266.33)" style="fill:#e29c01"/><path d="M225.29,749.33c1.34.11,2.68.18,4,.32s2.71.37,4.06.56l2.39,0,1.16-.63.24.14a17.9,17.9,0,0,0,3.71.59c2.93-.14,5.85-.52,8.77-.81l4.66-.71,13.13-2.51,3.89-1.26,15.48-4.79,3.94-1.26c3.08-1.13,6.15-2.31,9.26-3.35a7.47,7.47,0,0,1,2.36,0c-.41.45-.73,1.12-1.23,1.33-14.47,5.81-29.15,11-44.64,13.27a152.31,152.31,0,0,1-19.2,1.57c-4.06.08-8.15-.87-12.23-1.36Z" transform="translate(-13.52 -266.33)" style="fill:#5b4b64"/><path d="M225,789.86l5.25-1.6c1.95,1.78,2.87,4.94,6.33,4.66-3.87,6.12-10.28,7.58-16.62,9.65-.89-2.54-1.6-4.56-2.32-6.59,1.54-1.23,3.1-2.45,4.62-3.71C223.23,791.5,224.12,790.67,225,789.86Z" transform="translate(-13.52 -266.33)" style="fill:#fd8a8a"/><path d="M235.7,727.89,225,724.55c1.65-5.77,5.66-9.82,9.93-13.69.16.19.46.38.47.58.18,5.44.33,10.88.49,16.32Z" transform="translate(-13.52 -266.33)" style="fill:#2b395d"/><path d="M217.67,796c.72,2,1.43,4,2.32,6.59,6.34-2.07,12.75-3.53,16.62-9.65,1.45-2.48,2.1-5,.68-7.78l2.17-.7a22.4,22.4,0,0,0,.1,3.07c.88,5.24-2,8.66-5.88,11.21a40.1,40.1,0,0,1-15,5.82l-2.29-7.18Z" transform="translate(-13.52 -266.33)" style="fill:#feecec"/><path d="M442.25,741.56c1.34,4.78,3.05,9.49,3.95,14.35a229.65,229.65,0,0,1,3.24,33.93c.2,2.27.56,4.53.56,6.79,0,3.15-.29,6.29-.45,9.44l0,3.87-.89,9.41-28.62-.1-16.31-.8c2-1,4-2.08,6.08-3,10.94-5.09,17.87-13.84,22.45-24.67,4.85-11.48,5.11-23.61,4.68-35.78-.15-4.43-1-8.84-1.46-13.25Z" transform="translate(-13.52 -266.33)" style="fill:#f18787"/><path d="M312.43,835.63l-1,2.13h.1l-.8.94c-.11.33-.23.66-.34,1-1.83,4-3.82,8-5.42,12.14a58.08,58.08,0,0,0-1.89,7.7l-1.65.83c.47-2.64.45-5.48,1.48-7.88,3.68-8.63,7.24-17.38,11.74-25.59,6.67-12.17,13.95-24,21.29-35.81A95.15,95.15,0,0,1,345.52,779c2.13-2.41,3.27-2.48,6.38-1.76-8.1,3.65-12,10.89-16.21,17.64-7.45,12-14.33,24.39-21.41,36.63a20.21,20.21,0,0,0-1.2,3.18h0Z" transform="translate(-13.52 -266.33)" style="fill:#5b4b64"/><path d="M343,856.16l-1.91.4c1.24-3.77,2.19-7.66,3.76-11.29,5.95-13.82,12.39-27.42,20.8-39.95,2-3,4.73-5.39,7.27-7.91a12,12,0,0,1,3.17-1.67l.5.66c-.38.52-.64,1.21-1.14,1.53a26.77,26.77,0,0,0-9.22,9.73c-5.36,9.64-10.36,19.49-15.51,29.26l-1.27,2.54Z" transform="translate(-13.52 -266.33)" style="fill:#5b4b64"/><path d="M652.72,419.35c-.78,1.33-1.25,3.23-2.41,3.88-2.2,1.24-4.46,0-6.39-1.3-3.57-2.46-7.07-5-10.62-7.49a19.49,19.49,0,0,0-10.42-3.28c-6.72-.4-12.81,2-19.12,3.43-2.84.65-5.68,1.32-8.53,1.92-1.86.4-2.55-.61-2.65-2.33-.25-4.7,2.3-8.18,5.5-10.92a33.25,33.25,0,0,1,16-7.75c12-2.05,25.31.68,33.1,11.77C650.78,412.43,652.2,415.43,652.72,419.35Z" transform="translate(-13.52 -266.33)" style="fill:#2b395d"/><path d="M536.81,446.19c-.06-4,2.06-6.72,4.22-9.16a60.46,60.46,0,0,1,7.73-6.9c2.46-2,5.47-2.18,8.45-1.78a3.83,3.83,0,0,1,2.83,6,13.4,13.4,0,0,1-3.55,3.36c-1.24.88-2.79,1.32-4.08,2.16-2.8,1.8-5.11,4-4.71,7.75a4.26,4.26,0,0,1-2.83,4.88c-2.23.93-4,0-5.58-1.33A5.9,5.9,0,0,1,536.81,446.19Z" transform="translate(-13.52 -266.33)" style="fill:#2b395d"/><path d="M249.64,307.54l.78-.78c3-1,6-1.91,9-3,4-1.47,7.86-3.11,11.8-4.63a32.34,32.34,0,0,1,10.54-1.77c4.68-.19,7.43,2.2,9.74,5.69.48.73,1,1.45,1.49,2.17.25.53.51,1.06.76,1.58l0,0c.72,5.67-.87,11.06-2.51,16.59l4,1.09c.71.27,1.43.49,2.11.8a4,4,0,0,1,2.46,4.61c-.39,1.84-2.19,2.26-3.86,2.43-1.25.12-2.52.08-3.79.11l-4.63-.24,3.06-9.1c-2.33-.28-4.57-.85-6.75-.69a5.15,5.15,0,0,0-3.73,2.08,3.69,3.69,0,0,0,1,4.86c1.63,1.16,3.39,2.13,5.1,3.18-.36,1.36-.64,2.74-1.09,4.06-1.91,5.56-2.32,11.06.83,16.31a66,66,0,0,0,4.8,6.95c4.76,6.06,9.58,12.08,11.67,19.71l-.22,0c-5.95,1-11.9,2.09-17.86,3.09-4.85.81-9.7,1.56-14.55,2.33H269c-.74-3.66-2.53-4.78-6-3.55-2,.73-3.95,1.85-6,2.54a27.52,27.52,0,0,1-7,1.7c-3.45.17-6.83-3.63-6.51-6.77.27-2.57,3.42-5.23,6.17-4.64a37.8,37.8,0,0,1,7,2.75c1.28.57,2.36,1.62,3.67,2,4.28,1.41,7.23.5,7.06-4.67A14.73,14.73,0,0,0,259.14,361c-6-3.18-12.65-5-18-9.41-.25-.5-.51-1-.77-1.5a29,29,0,0,0,.76-3.16c.7-5.17,1.23-10.37,2-15.52A121.62,121.62,0,0,1,249.64,307.54ZM247.7,340.8a8.15,8.15,0,0,0-1.1,2.24c-.83,5.7,4.1,11.06,10.08,10.88a4,4,0,0,0,2.77-1.41c.28-.39-.45-1.91-1.09-2.53-3-2.93-6.2-5.73-9.34-8.56A6.67,6.67,0,0,0,247.7,340.8Z" transform="translate(-13.52 -266.33)" style="fill:#5bc5e2"/><path d="M354.88,326.12l.73.77.84.81v0l.78.79h0a50,50,0,0,0,.92,5.2c1.79,6.31-.12,11.41-4.9,15.65-2.06,0-4.12.13-6.18,0-3.78-.21-6.26-2.56-8.39-5.4-.34-.68-.63-1.41-1-2.05-3.15-5-4.27-5.46-10.06-4.15a21.36,21.36,0,0,1-4.87.7,4.46,4.46,0,0,1-3.11-1.14,4.8,4.8,0,0,1-.82-3.44c.09-.61,1.46-1.43,2.27-1.45a9.88,9.88,0,0,1,4,.89c4.06,1.8,5.65,1.64,8.95-1.39,1.51-1.39,2.82-3,4.4-4.31,4.07-3.37,8.63-4.91,13.86-3A16.47,16.47,0,0,1,354.88,326.12Z" transform="translate(-13.52 -266.33)" style="fill:#5bc5e2"/><path d="M341.75,371.06c.66.76,1.28,1.56,2,2.27a21.76,21.76,0,0,0,1.9,1.55l-13.94,3.87c-5.15,1.26-10.29,2.6-15.47,3.74-3.33.73-6.72,1.15-10.09,1.72l-1.63.74-.7,0-.75-3.86c4-3.72,9.4-3,14.06-4.61,1.74-.6,3.53-1,5.29-1.56,5.81-1.23,11.63-2.47,17.44-3.68A15.06,15.06,0,0,1,341.75,371.06Z" transform="translate(-13.52 -266.33)" style="fill:#47c6e9"/><path d="M302.43,379.51c-2.09-7.63-6.91-13.65-11.67-19.71a66,66,0,0,1-4.8-6.95c-3.15-5.25-2.74-10.75-.83-16.31.45-1.32.73-2.7,1.09-4.06l1.32-.33,4.63.24c-.51,1.43-1,2.89-1.54,4.29-2.9,7.12-1.74,13.69,2.34,20.05,3.16,4.95,6.06,10.07,8.95,15.19a20.48,20.48,0,0,1,1.84,5C304,378,304.26,379.38,302.43,379.51Z" transform="translate(-13.52 -266.33)" style="fill:#0397b4"/><path d="M303.06,381.07l.75,3.86c-5.66.9-11.3,1.87-17,2.68-5.16.75-10.35,1.33-15.53,2-1.58-1.19-1.6-2.9-1.52-4.64,4.85-.77,9.7-1.52,14.55-2.33,6-1,11.91-2.06,17.86-3.09C302.5,380,302.78,380.56,303.06,381.07Z" transform="translate(-13.52 -266.33)" style="fill:#6ccef1"/><path d="M260.49,284.31H262c3,0,5.93-.09,8.89.05a11,11,0,0,1,4.44.93,4.05,4.05,0,0,1,2,2.85,3.93,3.93,0,0,1-2,2.88,12.06,12.06,0,0,1-4.82,1c-4.63.12-9.27.05-13.91.05,0-.25,0-.51,0-.76C258.48,289.27,260.28,287.24,260.49,284.31Z" transform="translate(-13.52 -266.33)" style="fill:#47c6e9"/><path d="M301.79,349a18.57,18.57,0,0,0-2.42-.41c-1.5-.1-2.7-.74-2.41-2.27.21-1.09,1.2-2.8,2-2.86a36.06,36.06,0,0,1,8.3.33,3,3,0,0,1,1.83,2.34,3.68,3.68,0,0,1-2.2,2.29C305.44,348.91,303.85,348.81,301.79,349Z" transform="translate(-13.52 -266.33)" style="fill:#5bc5e2"/><path d="M295.25,324.44l-4-1.09c1.64-5.53,3.23-10.92,2.51-16.59.76,1.83,2.1,3.64,2.16,5.5C296,316.31,295.51,320.38,295.25,324.44Z" transform="translate(-13.52 -266.33)" style="fill:#0397b4"/><path d="M293.76,306.79c-.25-.52-.51-1.05-.76-1.58C293.25,305.74,293.51,306.27,293.76,306.79Z" transform="translate(-13.52 -266.33)" style="fill:#0397b4"/><path d="M135,665.93c0-.5.05-1,.07-1.5,3.3-.89,6.58-1.85,9.9-2.66q12.21-3,24.46-5.81a10.58,10.58,0,0,1,2.51.1v31.36H135Z" transform="translate(-13.52 -266.33)" style="fill:#c6ecf9"/><path d="M125.78,633.44v5.41h-5.9l-.52,4.65h-5.19V633.44Z" transform="translate(-13.52 -266.33)" style="fill:#c6ecf9"/><path d="M241.12,351.62c5.37,4.36,12,6.23,18,9.41a14.73,14.73,0,0,1,8.32,13.32c.17,5.17-2.78,6.08-7.06,4.67-1.31-.43-2.39-1.48-3.67-2a37.8,37.8,0,0,0-7-2.75c-2.75-.59-5.9,2.07-6.17,4.64-.32,3.14,3.06,6.94,6.51,6.77a27.52,27.52,0,0,0,7-1.7c2.06-.69,4-1.81,6-2.54,3.44-1.23,5.23-.11,6,3.55-2.75.28-5.5.6-8.26.84-5.76.51-11.53,1-17.3,1.46-.55-4.89-1.15-9.78-1.64-14.68-.32-3.27-.57-6.55-.67-9.83C241,359,241.12,355.32,241.12,351.62Z" transform="translate(-13.52 -266.33)" style="fill:#1dafd7"/><path d="M249.64,307.54a121.62,121.62,0,0,0-6.5,23.9c-.8,5.15-1.33,10.35-2,15.52a29,29,0,0,1-.76,3.16c-4.17-4.4-5.67-10-6-15.7a11.7,11.7,0,0,1,3.18-9.07c2-2,3.74-4.2,5.59-6.31.25-.29.7-.58.71-.88a5.65,5.65,0,0,0-.24-2.84c-.27-.47-1.55-.58-2.33-.47-2,.29-4,1.06-5.94,1.14-2.53.09-3.37-1.44-2.34-3.8,1.38-3.2,4.17-4.41,7.37-4.62S246.55,307.53,249.64,307.54Z" transform="translate(-13.52 -266.33)" style="fill:#6ccef1"/><path d="M204.38,353.25c5.51-.26,10.34,1.23,14.06,5.52,2.32,2.66,2.35,4.5-.31,6.92a13.89,13.89,0,0,1-10.89,3.73l-.27.1c-.63-2.95-1.33-5.88-1.89-8.84-.46-2.47-.74-5-1.1-7.47Z" transform="translate(-13.52 -266.33)" style="fill:#6ccef1"/><path d="M243.46,387.24c5.77-.48,11.54-.95,17.3-1.46,2.76-.24,5.51-.56,8.26-.84h.78c-.08,1.74-.06,3.45,1.52,4.64l0,.81c-1.8,0-3.61-.1-5.4.08-7,.69-13.92,1.48-20.87,2.23l0,0L243.44,388Z" transform="translate(-13.52 -266.33)" style="fill:#47c6e9"/><path d="M224.19,349.05c-1.72-.7-3.68-1.09-5.07-2.2-.84-.67-1.12-2.51-1-3.73.08-.6,1.72-1.39,2.67-1.4a32.91,32.91,0,0,1,5.65.69c1.86.31,3.19,1.31,3,3.33s-1.57,2.83-3.51,2.81H224.4Z" transform="translate(-13.52 -266.33)" style="fill:#bcd3d5"/><path d="M265.56,601.13a.45.45,0,0,1-.35-.26c-1.19-3.61-2.49-7.18-3.5-10.84a8.37,8.37,0,0,1,0-4.47c1.6-5.2,7.39-6.61,11.72-3.06,3.28,2.69,5.14,6.3,6.87,10a1.89,1.89,0,0,1-1,2.85C274.73,597.34,270.14,599.22,265.56,601.13ZM263,588.49c1,2.86,1.9,5.72,2.93,8.55.44,1.23,1.34,1.93,2.7,1.34q4.22-1.82,8.38-3.77a1.88,1.88,0,0,0,1-2.86c-1.56-2.92-3-5.93-5.86-7.9-1.92-1.3-3.89-2.22-6-1.09S263.1,585.85,263,588.49Z" transform="translate(-13.52 -266.33)" style="fill:#feecec"/><path d="M247,616.39c-1.19,0-2.63.42-3.52-.09-3.41-2-6.68-4.23-9.94-6.47a31.59,31.59,0,0,1-3.15-2.76v0l-.72-1c-8.82-12.12-15-25.57-19.82-39.67a40,40,0,0,1-1-4.8c1.93,0,1.62,1.72,2.06,2.76,3.57,8.37,6.65,17,10.71,25.08,3,5.91,7.09,11.25,10.93,16.68a29.54,29.54,0,0,0,5.24,5.05,6.82,6.82,0,0,0,2.41.75l.12.14c.47,2.13,2.55,1.95,3.95,2.73C245.14,615.34,246,615.87,247,616.39Z" transform="translate(-13.52 -266.33)" style="fill:#5b4b64"/><path d="M240.15,612c-1.3-2.33-2.74-4.59-3.88-7a24.82,24.82,0,0,1-2-5.78c-1-4.92,3.13-8.57,8-7.29,4.22,1.11,6.94,4.28,9.73,7.28a44,44,0,0,1,3.16,4.34,106.27,106.27,0,0,1-14.92,8.59Zm1.15-2.1,11.16-6.52a19,19,0,0,0-9.85-9.4c-3.09-1.34-5.83.42-6.16,3.76C236,602.45,238.46,605.93,241.3,609.86Z" transform="translate(-13.52 -266.33)" style="fill:#feecec"/><path d="M255.14,591.48c.22.32.44.64.65,1C255.58,592.12,255.36,591.8,255.14,591.48Z" transform="translate(-13.52 -266.33)" style="fill:#f18787"/><path d="M271.29,390.4l0-.81c5.18-.65,10.37-1.23,15.53-2,5.66-.81,11.3-1.78,17-2.68l.7,0c.29,2.26.74,4.53.83,6.8.21,5.7-2,10.52-7,13.2-5.34,2.89-11.09,2.64-16.45-.57a24.16,24.16,0,0,1-9.1-10.13C272.3,393,271.8,391.69,271.29,390.4Z" transform="translate(-13.52 -266.33)" style="fill:#5bc5e2"/><path d="M306.14,384.21c3.37-.57,6.76-1,10.09-1.72,5.18-1.14,10.32-2.48,15.47-3.74,0,6.53-3.49,10.55-10.19,11.61-2.5.39-5.05.52-7.57.78s-4.77.5-7.8.82Z" transform="translate(-13.52 -266.33)" style="fill:#1dafd7"/><path d="M271.29,390.4c.51,1.29,1,2.57,1.52,3.85a20,20,0,0,0-12.55,3.51c-3.88,2.57-8.12,4.23-12.95,3.44L245,392.71c6.95-.75,13.91-1.54,20.87-2.23C267.68,390.3,269.49,390.42,271.29,390.4Z" transform="translate(-13.52 -266.33)" style="fill:#1dafd7"/><path d="M367.39,311.79c4,5.83,5.87,12.5,7.42,19.24A72.28,72.28,0,0,1,376,358.21a6.4,6.4,0,0,0,.07,1.15l-.86,1.63c-1.6.38-3.22.67-4.79,1.14-8.53,2.56-17,5.18-25.58,7.72a18.79,18.79,0,0,1-3,.41c-1.54-1.83.13-2.91,1.2-3.63a35.18,35.18,0,0,1,6.4-3.37,63.58,63.58,0,0,1,7.95-2.7c8-2.14,11.21-8.16,12.2-15.52a104.21,104.21,0,0,0,.76-17.21c-.13-3.88-1.35-7.71-2.08-11.57C367.92,314.77,367.66,313.28,367.39,311.79Z" transform="translate(-13.52 -266.33)" style="fill:#0397b4"/><path d="M353.23,349.31c4.78-4.24,6.69-9.34,4.9-15.65a50,50,0,0,1-.92-5.2,7.8,7.8,0,0,1,4.33,6.45c.5,4.09,1.62,8.45-2.13,11.94C357.62,348.52,355.76,349.66,353.23,349.31Z" transform="translate(-13.52 -266.33)" style="fill:#0397b4"/><path d="M356.45,327.7l-.84-.81Z" transform="translate(-13.52 -266.33)" style="fill:#0397b4"/><path d="M357.22,328.47l-.78-.79Z" transform="translate(-13.52 -266.33)" style="fill:#0397b4"/><path d="M228.89,613c-3.73,2.2-7.2,4.33-10.77,6.27a2.59,2.59,0,0,1-2.44-.31c-2.41-2.81-4.8-5.77-5.44-9.51-.42-2.48-.52-5.11,2.31-6.75a7.59,7.59,0,0,1,8,0C224.49,604.87,226.88,608.45,228.89,613Zm-12,5.22,9.78-5.87c-1.55-3.82-4.19-6.07-6.9-8.14a5.11,5.11,0,0,0-6.37.12c-1.85,1.61-2.31,3.57-1,6.21S215.24,615.52,216.84,618.22Z" transform="translate(-13.52 -266.33)" style="fill:#feecec"/><path d="M229.62,606.11l.72,1Z" transform="translate(-13.52 -266.33)" style="fill:#f18787"/><path d="M364.23,559.17c-3.09-.68-3.84-3-3.93-5.71-.12-3.59,1.3-8,4.4-13.71h6.58l-.23,3.07c-1.73,4.32-3.45,8.64-5.21,13C365.37,556.93,364.77,558,364.23,559.17Z" transform="translate(-13.52 -266.33)" style="fill:#fe9e9c"/><path d="M853.55,727.85c1.29,1.72,2.65,3.39,3.85,5.17a61,61,0,0,1,8.07,18.13,23.5,23.5,0,0,1,.42,3c-13.66,0-27.33-.07-41,.06-7.37.07-14.71-6.06-15.93-11.67a16.27,16.27,0,0,1-.38-3.41q0-18.55,0-37.12A14.75,14.75,0,0,1,821,687.64c2.38-.38,4.81-.49,7.21-.81a8.8,8.8,0,0,0,2-.76c.26.28.53.55.79.82,3.34,6.3,6.65,12.62,10,18.91,1.2,2.24,2.55,4.41,3.83,6.61-.84.22-1.93.17-2.48.69-3.15,3-6.17,6.07-9.27,9.15l4.87,5,5.44-4.92,8.1,6.83Z" transform="translate(-13.52 -266.33)" style="fill:#d2f0fa"/><path d="M448.63,819.35l.89-9.41,19.27.78q-.44,8.5-.86,17L448.6,826.2Z" transform="translate(-13.52 -266.33)" style="fill:#e29c01"/><path d="M467.58,831.66q-1.15,6.65-2.33,13.3c-3.86-.57-7.73-1.07-11.58-1.71-2.47-.42-4.91-1-7.37-1.57q.88-5.79,1.75-11.58a21.87,21.87,0,0,1,2.29,0Q459,830.87,467.58,831.66Z" transform="translate(-13.52 -266.33)" style="fill:#e29c01"/><path d="M467.58,831.66q-8.62-.78-17.24-1.56a21.87,21.87,0,0,0-2.29,0c.19-1.3.37-2.6.55-3.9l19.33,1.53Z" transform="translate(-13.52 -266.33)" style="fill:#d28d01"/><path d="M446.3,841.68c2.46.53,4.9,1.15,7.37,1.57,3.85.64,7.72,1.14,11.58,1.71l-.81,3.74a63.28,63.28,0,0,1-19.24-3.28C445.57,844.17,445.94,842.92,446.3,841.68Z" transform="translate(-13.52 -266.33)" style="fill:#d28d01"/><path d="M270.54,841.58c2-1.22,3.91-2.78,6.09-3.59,3-1.11,5.82.52,7,3.52.32.82.55,1.68.82,2.52-1.58.4-3.18.73-4.74,1.21-3.08.94-5.78,0-8.27-1.68C270.92,843.22,270.82,842.26,270.54,841.58Z" transform="translate(-13.52 -266.33)" style="fill:#fdb2b2"/><path d="M194,333.88c1.78,7,.36,13.64-2.35,20.12h0l-.75.75-2.34,3.12c-.88.74-1.79,1.44-2.62,2.22-7.41,6.9-16.21,7.73-25.43,5.28-4.47-1.18-8.05-4.34-11.44-7.5L145.91,354c-1.58-4.56-3.38-9.16-3-14,.74-10.53,6.54-19.38,16.68-23.1A25.84,25.84,0,0,1,189,324.7c1.2,1.43,2.25,3,3.37,4.51C192.89,330.76,193.42,332.32,194,333.88ZM150.5,350.16c3.62,7.78,10.28,11.3,18.29,11.33s14.57-3.86,18.4-11.34c4.64-9,1.54-20.83-6.44-25.62-7-5.79-17.94-5.08-24.56.18C148.65,330.69,145.79,341.6,150.5,350.16Z" transform="translate(-13.52 -266.33)" style="fill:#feedc8"/><path d="M468.79,810.72l-19.27-.78,0-3.87,19.3.79Z" transform="translate(-13.52 -266.33)" style="fill:#d28d01"/><path d="M303.1,859.52a58.08,58.08,0,0,1,1.89-7.7c1.6-4.13,3.59-8.1,5.42-12.14a4.74,4.74,0,0,0,5.19,2.81c2-.17,4,0,6,0,1.1,7.41-2.66,13.56-5,20.58Z" transform="translate(-13.52 -266.33)" style="fill:#fe9e9c"/><path d="M321.61,842.47c-2,0-4-.15-6,0a4.74,4.74,0,0,1-5.19-2.81c.11-.32.23-.65.34-1l.8-.94h-.1c1-.2,2-.37,2.95-.6C318.93,836.14,320.94,837.61,321.61,842.47Z" transform="translate(-13.52 -266.33)" style="fill:#fdb2b2"/><path d="M312.43,835.63l.67-1Z" transform="translate(-13.52 -266.33)" style="fill:#fe9e9c"/><path d="M149,357.87c3.39,3.16,7,6.32,11.44,7.5,9.22,2.45,18,1.62,25.43-5.28.83-.78,1.74-1.48,2.62-2.22.25,2.05.5,4.11.76,6.16a24.63,24.63,0,0,0-2.66,1.36c-6.14,4.12-12.84,6.41-20.27,5.57-6.43-.72-12.47-2.67-17.32-7.28-.74-.71-1.56-1.32-2.34-2Z" transform="translate(-13.52 -266.33)" style="fill:#feecec"/><path d="M343,856.16l6.45-16.7c5.6-.3,7.64.84,8.82,5.06a5,5,0,0,1,.11,2.55c-1.08,3.79-2.33,7.54-3.43,11.32-.52,1.79-1.47,2.21-3.14,1.48C348.89,858.6,345.94,857.39,343,856.16Z" transform="translate(-13.52 -266.33)" style="fill:#fe9e9c"/><path d="M345.68,694.55a13.71,13.71,0,0,0-.78,3.12,16.43,16.43,0,0,1-5.41,12.61c-5.42,4.77-11.21,9.11-16.87,13.6-.27.21-.75.14-1.12.21a39,39,0,0,0-3.79,1.69c-2.54,1.44-5,3-7.52,4.5a8.07,8.07,0,0,1-.92-1.53c-1.6-5-3.15-10-4.72-14.93.74-.48,1.47-1,2.23-1.43,6.92-4,13.4-8.54,18.79-14.5,5.83-6.43,10.3-13.44,9.22-22.7,4.57,4.13,7.21,9.43,9.23,15.13C344.52,691.75,345.12,693.14,345.68,694.55Z" transform="translate(-13.52 -266.33)" style="fill:#e29c01"/><path d="M334.79,675.19c1.08,9.26-3.39,16.27-9.22,22.7-5.39,6-11.87,10.52-18.79,14.5-.76.44-1.49,1-2.23,1.43l-4.19,2.29-13.63,5.38-3.93,1.34-13,3.33-3.9.72-13.13,1.6-3.89.25L246.4,728a63.1,63.1,0,0,1,6.13-1.53c6.31-.93,12.64-1.69,19-2.56a5.74,5.74,0,0,0,1.42-.58l6.19-1.57,0,0a45.73,45.73,0,0,0,15.5-5.44h0l1.56-.77h0L300,714l0,0,1.57-.78h0l1.55-.78h0l.93-.69a78.87,78.87,0,0,0,18.3-12.86,35.54,35.54,0,0,0,2.43-2.88c6.32-6.1,9.68-13.32,8.51-22.28Z" transform="translate(-13.52 -266.33)" style="fill:#feedc8"/><path d="M246.4,728l2.46.76.77,20.81c-2.92.29-5.84.67-8.77.81a17.9,17.9,0,0,1-3.71-.59,66.52,66.52,0,0,1-.59-8.65c.24-4.39.95-8.75,1.47-13.11Z" transform="translate(-13.52 -266.33)" style="fill:#e29c01"/><path d="M238,728c-.52,4.36-1.23,8.72-1.47,13.11a66.52,66.52,0,0,0,.59,8.65l-.24-.14-1.16.63-2.39,0c-.25-4.2-.61-8.4-.7-12.6,0-2,.7-4.05.59-6s1.12-2.8,2.45-3.68l.2-.13Z" transform="translate(-13.52 -266.33)" style="fill:#d28d01"/><path d="M294.58,716.31a45.73,45.73,0,0,1-15.5,5.44A41.45,41.45,0,0,1,294.58,716.31Z" transform="translate(-13.52 -266.33)" style="fill:#fec73e"/><path d="M279.1,721.73l-6.19,1.57C274.7,721.7,276.89,721.68,279.1,721.73Z" transform="translate(-13.52 -266.33)" style="fill:#fec73e"/><path d="M300,714l-3.88,1.57Z" transform="translate(-13.52 -266.33)" style="fill:#fec73e"/><path d="M296.13,715.55l-1.56.77Z" transform="translate(-13.52 -266.33)" style="fill:#fec73e"/><path d="M301.55,713.22,300,714Z" transform="translate(-13.52 -266.33)" style="fill:#fec73e"/><path d="M303.09,712.45l-1.55.78Z" transform="translate(-13.52 -266.33)" style="fill:#fec73e"/><path d="M304,711.76l-.93.69Z" transform="translate(-13.52 -266.33)" style="fill:#fec73e"/><path d="M286.73,721.49l13.63-5.38c.38.45,1,.84,1.12,1.36,1.6,5.27,3.13,10.57,4.68,15.87l-3.81,2.32a7.47,7.47,0,0,0-2.36,0c-3.11,1-6.18,2.22-9.26,3.35-.78-3.28-1.59-6.55-2.35-9.83C287.8,726.62,287.28,724.05,286.73,721.49Z" transform="translate(-13.52 -266.33)" style="fill:#e29c01"/><path d="M306.16,733.34c-1.55-5.3-3.08-10.6-4.68-15.87-.16-.52-.74-.91-1.12-1.36l4.19-2.29c1.57,5,3.12,10,4.72,14.93a8.07,8.07,0,0,0,.92,1.53l-.63,2Z" transform="translate(-13.52 -266.33)" style="fill:#d28d01"/><path d="M237.29,785.14c1.42,2.74.77,5.3-.68,7.78-3.46.28-4.38-2.88-6.33-4.66Z" transform="translate(-13.52 -266.33)" style="fill:#fe9e9c"/><path d="M309.56,732.28l.63-2c2.5-1.51,5-3.06,7.52-4.5a39,39,0,0,1,3.79-1.69c-.19.55-.21,1.39-.6,1.62C317.16,728,313.35,730.11,309.56,732.28Z" transform="translate(-13.52 -266.33)" style="fill:#5b4b64"/><path d="M252.75,728.48l13.13-1.6c0,2.18,0,4.38.15,6.56.39,4.3.92,8.59,1.39,12.88l-13.13,2.51a41.39,41.39,0,0,1-1.58-12.33C252.86,733.83,252.75,731.15,252.75,728.48Z" transform="translate(-13.52 -266.33)" style="fill:#e29c01"/><path d="M269.78,726.16l13-3.33,4,17.44-15.48,4.79c0-2.17.05-4.35-.14-6.5C270.79,734.42,270.25,730.29,269.78,726.16Z" transform="translate(-13.52 -266.33)" style="fill:#e29c01"/><path d="M252.75,728.48c0,2.67.11,5.35,0,8a41.39,41.39,0,0,0,1.58,12.33l-4.66.71-.77-20.81Z" transform="translate(-13.52 -266.33)" style="fill:#d28d01"/><path d="M269.78,726.16c.47,4.13,1,8.26,1.39,12.4.19,2.15.1,4.33.14,6.5l-3.89,1.26c-.47-4.29-1-8.58-1.39-12.88-.19-2.18-.11-4.38-.15-6.56Z" transform="translate(-13.52 -266.33)" style="fill:#d28d01"/><path d="M286.79,740.27l-4-17.44,3.93-1.34c.55,2.56,1.07,5.13,1.65,7.69.76,3.28,1.57,6.55,2.35,9.83Z" transform="translate(-13.52 -266.33)" style="fill:#d28d01"/><path d="M235.75,750.25l1.16-.63Z" transform="translate(-13.52 -266.33)" style="fill:#e29c01"/><path d="M311.55,837.76l-.8.94Z" transform="translate(-13.52 -266.33)" style="fill:#feecec"/><path d="M247.7,340.8a6.67,6.67,0,0,1,1.32.62c3.14,2.83,6.3,5.63,9.34,8.56.64.62,1.37,2.14,1.09,2.53a4,4,0,0,1-2.77,1.41c-6,.18-10.91-5.18-10.08-10.88A8.15,8.15,0,0,1,247.7,340.8Z" transform="translate(-13.52 -266.33)" style="fill:#1dafd7"/><path d="M287.54,332.15l-1.32.33c-1.71-1.05-3.47-2-5.1-3.18a3.69,3.69,0,0,1-1-4.86,5.15,5.15,0,0,1,3.73-2.08c2.18-.16,4.42.41,6.75.69Z" transform="translate(-13.52 -266.33)" style="fill:#6ccef1"/><path d="M189.27,364c-.26-2-.51-4.11-.76-6.16l2.34-3.12.75-.75h0l12.37-.79c.36,2.49.64,5,1.1,7.47.56,3,1.26,5.89,1.89,8.84a76.6,76.6,0,0,1-8.72-.32C194.67,368.67,191.81,366.54,189.27,364Z" transform="translate(-13.52 -266.33)" style="fill:#d2f0fa"/><path d="M263,588.49c.11-2.64,1-4.62,3.09-5.73s4.12-.21,6,1.09c2.91,2,4.3,5,5.86,7.9a1.88,1.88,0,0,1-1,2.86q-4.15,1.95-8.38,3.77c-1.36.59-2.26-.11-2.7-1.34C264.89,594.21,264,591.35,263,588.49Z" transform="translate(-13.52 -266.33)" style="fill:#fdb2b2"/><path d="M171.92,591.53H135.39v-36.8h36.53Zm-18.12-27c-6-.7-9.17,4.46-9.39,8.82s4.47,9,9.12,9a9.58,9.58,0,0,0,9.41-9.12C163,568.36,159,564.55,153.8,564.54Z" transform="translate(-13.52 -266.33)" style="fill:#e0f4fb"/><path d="M241.3,609.86c-2.84-3.93-5.32-7.41-4.85-12.16.33-3.34,3.07-5.1,6.16-3.76a19,19,0,0,1,9.85,9.4Z" transform="translate(-13.52 -266.33)" style="fill:#fdb2b2"/><path d="M216.84,618.22c-1.6-2.7-3.21-5.11-4.49-7.68s-.85-4.6,1-6.21a5.11,5.11,0,0,1,6.37-.12c2.71,2.07,5.35,4.32,6.9,8.14Z" transform="translate(-13.52 -266.33)" style="fill:#fdb2b2"/><path d="M849.59,718.6a2.71,2.71,0,0,0,4-.53c1.35-1.55,3-2.88,4.34-4.41s2.74-1.51,4.18.06c1.81,2,3.74,3.86,5.87,6,2.18-2.14,4.07-4,6-5.87,2.13-2,2.39-2,4.42-.11s4,4,6,6c2.13,2.22,2.11,2.4-.12,4.69-.62.63-1.31,1.2-2.29,2.09-1.32-1.29-2.64-2.47-3.84-3.76-1.37-1.48-2.57-1.38-3.89.06s-2.71,2.77-4.1,4.11c-2.38,2.3-2.53,2.34-4.94-.11-1.72-1.75-3.27-3.65-4.93-5.51l-6.81,5c-.78-1.26-1.65-2.48-2.32-3.8S850.13,719.94,849.59,718.6Z" transform="translate(-13.52 -266.33)" style="fill:#d2f0fa"/><path d="M849.59,718.6c.54,1.34,1,2.72,1.63,4s1.54,2.54,2.32,3.8v1.44l-2,1.28-8.1-6.83L838,727.22l-4.87-5c3.1-3.08,6.12-6.18,9.27-9.15.55-.52,1.64-.47,2.48-.69Z" transform="translate(-13.52 -266.33)" style="fill:#c6ecf9"/><path d="M180.75,324.53c8,4.79,11.08,16.57,6.44,25.62-3.83,7.48-10.33,11.37-18.4,11.34s-14.67-3.55-18.29-11.33a7.79,7.79,0,0,1,1.61-.8c3.43-.84,7.14-1.08,10.28-2.54C172,342.38,178,334.73,180.75,324.53Z" transform="translate(-13.52 -266.33)" style="fill:#feb706"/><path d="M180.75,324.53c-2.76,10.2-8.77,17.85-18.36,22.29-3.14,1.46-6.85,1.7-10.28,2.54a7.79,7.79,0,0,0-1.61.8c-4.71-8.56-1.85-19.47,5.69-25.45C162.81,319.45,173.74,318.74,180.75,324.53Z" transform="translate(-13.52 -266.33)" style="fill:#fec73e"/><path d="M153.71,570c2.39,0,3.91,1.35,3.8,3.34a3.84,3.84,0,0,1-7.67,0A3.55,3.55,0,0,1,153.71,570Z" transform="translate(-13.52 -266.33)" style="fill:#e0f4fb"/></svg>