<?xml version="1.0" encoding="utf-8"?>
<!-- Generator: Adobe Illustrator 24.1.2, SVG Export Plug-In . SVG Version: 6.00 Build 0)  -->
<svg version="1.1" xmlns="http://www.w3.org/2000/svg" xmlns:xlink="http://www.w3.org/1999/xlink" x="0px" y="0px"
	 viewBox="0 0 150 150" style="enable-background:new 0 0 150 150;" xml:space="preserve">
<style type="text/css">
	.st0{fill:#FFFFFF;}
	.st1{fill:#0288D1;}
</style>
<g id="Layer_2">
	<g>
		<rect x="18.5" y="21.5" class="st0" width="112" height="112"/>
		<path d="M130,22v111H19V22H130 M131,21H18v113h113V21L131,21z"/>
	</g>
</g>
<g id="Layer_1">
	<path class="st1" d="M147,126.9c0,11-8.9,19.9-19.9,19.9H23.5c-11,0-19.9-8.9-19.9-19.9V23.3c0-11,8.9-19.9,19.9-19.9h103.6
		c11,0,19.9,8.9,19.9,19.9V126.9z"/>
	<path class="st0" d="M27.5,55.2h19.9v67.7H27.5V55.2z M37.4,47.2h-0.1c-5.9,0-9.8-4.4-9.8-10c0-5.7,4-10,10-10
		c6.1,0,9.8,4.3,9.9,10C47.4,42.8,43.5,47.2,37.4,47.2z M123.1,122.9h-19.9V86.7c0-8.8-4.9-14.7-12.7-14.7c-6,0-9.2,4-10.8,7.9
		c-0.6,1.4-0.4,5.3-0.4,7.2v35.9H59.3V55.2h19.9v10.4c2.9-4.4,7.4-10.4,18.9-10.4c14.3,0,24.9,9,24.9,29L123.1,122.9L123.1,122.9z"
		/>
</g>
</svg>
