<svg id="Layer_1" data-name="Layer 1" xmlns="http://www.w3.org/2000/svg" viewBox="0 0 131.76 131.77"><path d="M121,138.26c0-.36-.27-.24-.46-.26a28.92,28.92,0,0,1-3.36-.3,10.81,10.81,0,0,1-1.56-.25,9.33,9.33,0,0,0-1.45-.24c-1.25-.26-2.48-.65-3.74-.89-1.46-.27-2.82-.89-4.28-1.16a6.23,6.23,0,0,1-1.58-.52c-1.54-.74-3.2-1.17-4.74-1.93-1.16-.58-2.41-1-3.54-1.67-1.78-1-3.57-2-5.3-3.07-2.07-1.3-3.94-2.86-6-4.23a21,21,0,0,1-1.71-1.46c-1.41-1.2-2.75-2.51-4.08-3.81-.57-.55-1-1.19-1.56-1.79s-1.25-1-1.55-1.8a30.61,30.61,0,0,1-2.62-3.17c-.41-.44-.64-1-1-1.5a43,43,0,0,1-3.15-4.75,43.4,43.4,0,0,1-2.74-5.29,57.73,57.73,0,0,1-3-7.88c-.33-1.19-.74-2.36-1-3.58-.16-.78-.38-1.56-.58-2.33a15.88,15.88,0,0,1-.4-2c-.06-.45-.19-.87-.29-1.3s.19-.95-.26-1.31c0,0,0-.09,0-.13-.09-1.12-.12-2.25-.27-3.36A72,72,0,0,1,60.53,69c0-1.25.37-2.49.24-3.75.38-.57.2-1.21.27-1.82s.17-1.15.28-1.69c.39-1.81.69-3.63,1.19-5.41s.94-3.72,1.6-5.52a48.71,48.71,0,0,1,1.8-4.66c.71-1.42,1.36-2.87,2.07-4.29.82-1.64,1.78-3.22,2.76-4.77.74-1.17,1.54-2.29,2.35-3.41.46-.62.88-1.27,1.37-1.87,1.22-1.5,2.5-2.94,3.8-4.36.67-.74,1.33-1.51,2-2.22s1.2-1,1.8-1.55,1.18-1.07,1.76-1.59c1-.93,2.19-1.66,3.21-2.58a14.73,14.73,0,0,1,2-1.39c1.38-.92,2.71-1.92,4.16-2.7a37.31,37.31,0,0,1,6-3c.9-.29,1.7-.89,2.59-1.2,1.62-.54,3.2-1.18,4.85-1.67s3.28-1,4.94-1.38a11.83,11.83,0,0,1,3.36-.63,6.07,6.07,0,0,0,1-.24c.36-.06.77.12,1-.26,0,0,.09,0,.13,0,1.12-.09,2.24-.19,3.36-.25,1.51-.08,3-.35,4.53-.28s3,0,4.5,0a31.62,31.62,0,0,0,4,.24c.57.39,1.21.19,1.82.27s1.14.17,1.69.28c1.81.38,3.62.7,5.41,1.19s3.71,1,5.52,1.6a48.79,48.79,0,0,1,4.66,1.81c1.42.69,2.87,1.35,4.29,2.06a52.8,52.8,0,0,1,4.77,2.77c1.16.74,2.29,1.53,3.4,2.35.63.45,1.28.87,1.88,1.37,1.49,1.22,2.93,2.49,4.36,3.79.74.68,1.51,1.33,2.22,2,.55.56,1,1.19,1.55,1.79s1.06,1.19,1.59,1.77c.92,1,1.66,2.18,2.58,3.2.54.6.91,1.34,1.39,2a34,34,0,0,1,2.68,4.17,35.05,35.05,0,0,1,3,6c.28.85.82,1.62,1.13,2.48.68,1.91,1.41,3.8,2,5.75.51,1.72.83,3.49,1.42,5.19a7.48,7.48,0,0,1,.3,1.67,5.89,5.89,0,0,0,.26,1.44c.14.42-.14.93.27,1.31,0,0,0,.17,0,.25.09,1.21.17,2.42.27,3.63,0,.11.16.22.25.33V77.79c-.08,0-.21.06-.21.09,0,.42,0,.85-.06,1.27s-.19.87-.24,1.31a17.17,17.17,0,0,1-.31,2.7c-.16.59,0,1.2-.24,1.7a29.79,29.79,0,0,0-1,3.83c-.41,1.46-.88,2.9-1.27,4.37-.21.77-.58,1.48-.8,2.23a48.66,48.66,0,0,1-2.22,5.38,58.34,58.34,0,0,1-3.23,6,23.45,23.45,0,0,1-1.41,2.24c-1.19,1.66-2.36,3.33-3.63,4.92s-2.68,3.11-4.08,4.61c-.71.77-1.53,1.43-2.3,2.13-1.4,1.27-2.78,2.54-4.27,3.7-.59.45-1.13,1-1.74,1.39-1.19.83-2.39,1.65-3.63,2.41-1.52.95-3.07,1.87-4.65,2.74-1.42.78-2.93,1.39-4.4,2.08s-3,1.21-4.53,1.78-3.05.92-4.59,1.35-3.18.75-4.76,1.21c-.49.14-1,.07-1.57.23a12.8,12.8,0,0,1-1.68.28c-1.19.17-2.41.19-3.61.29-.12,0-.23.16-.34.25ZM64.37,72.52a22,22,0,0,0,.23,4c.24,1-.11,2,.27,3,.21.56-.07,1.19.23,1.83s.08,1.2.27,1.81.11,1.5.31,2.2c.62,2.15,1.08,4.34,1.8,6.46a48.1,48.1,0,0,0,2.3,5.86c.39.78.62,1.66,1.07,2.38s.86,1.62,1.31,2.43,1,1.74,1.54,2.57a34.15,34.15,0,0,0,4,5.55,18,18,0,0,0,3.12,3.84,53.07,53.07,0,0,0,6.57,6.14c1.39,1.08,2.79,2.15,4.24,3.15s3.17,2,4.8,3a22,22,0,0,1,2.24,1.07,17.5,17.5,0,0,0,2.26,1.11,26.74,26.74,0,0,0,4.06,1.69,24.26,24.26,0,0,0,3.48,1.2,16.91,16.91,0,0,0,3.64.86,18.41,18.41,0,0,0,4.47,1,9.34,9.34,0,0,0,1.69.31,5.35,5.35,0,0,1,1.71.21,5.8,5.8,0,0,0,2,0c.67,0,1.26.34,2,.29a25.44,25.44,0,0,1,3.6,0,31.34,31.34,0,0,0,3.63-.28c1.21-.07,2.41-.17,3.62-.26.08,0,.19,0,.23,0,.31-.38.72-.13,1.08-.2s.78-.2,1.18-.26a8.53,8.53,0,0,0,2.06-.3c1.13-.47,2.33-.58,3.47-.95s2.38-.67,3.54-1.08a54.79,54.79,0,0,0,5.53-2.19c1.29-.61,2.57-1.25,3.83-1.92a29.91,29.91,0,0,0,3.13-1.76,38.92,38.92,0,0,0,5.65-4.07,17.18,17.18,0,0,0,3.74-3,51,51,0,0,0,6.23-6.66c1.08-1.39,2.13-2.8,3.17-4.22a38.52,38.52,0,0,0,3-4.82c.69-1.34,1.45-2.65,2-4s1.34-2.88,1.84-4.38a20.38,20.38,0,0,0,1.34-4.47,41.5,41.5,0,0,0,1.76-7.11c.26-1.2.24-2.44.5-3.65a14,14,0,0,0,0-2,13.12,13.12,0,0,0,.26-2.09c-.06-.76,0-1.54,0-2.31s0-1.55,0-2.32-.18-1.47-.25-2.21c-.1-1.25-.17-2.5-.26-3.75,0,0,0-.09,0-.13a19,19,0,0,1-.72-3.68c-.2-.94-.39-1.92-.63-2.84-.44-1.65-.89-3.3-1.47-4.91a48.51,48.51,0,0,0-2.07-5.2c-.37-.74-.66-1.52-1.05-2.26l-1.18-2.21c-.49-.92-.93-1.86-1.47-2.74-.65-1.07-1.36-2.1-2.09-3.12s-1.56-2.1-2.36-3.14c-.38-.5-.77-1-1.18-1.44s-.93-1.08-1.39-1.6a45.92,45.92,0,0,0-4.19-4.18c-.7-.6-1.31-1.3-2.05-1.84A22,22,0,0,1,163.78,23a9.17,9.17,0,0,0-1.38-1c-1.7-1.07-3.29-2.29-5.09-3.22-1.2-.62-2.35-1.36-3.56-2-.46-.23-.95-.42-1.41-.64a44.43,44.43,0,0,0-4.62-1.91c-2-.7-4-1.3-6.05-1.86-1.79-.5-3.6-.81-5.41-1.19-1.16-.25-2.35-.26-3.52-.51a13.58,13.58,0,0,0-1.92,0c-.66,0-1.3-.22-2-.23-1.45,0-2.91,0-4.37,0s-2.83.42-4.27.28a5.82,5.82,0,0,0-1,.23c-.43,0-.86,0-1.29,0,0,0-.1,0-.12,0-.28.41-.7.18-1.06.25s-.78.19-1.18.25a15.62,15.62,0,0,0-2.07.28c-1,.31-2.12.5-3.14.81s-2.15.6-3.2,1c-2,.71-4,1.43-6,2.32-1.16.53-2.28,1.14-3.41,1.73a45.77,45.77,0,0,0-4.27,2.4c-1.09.72-2.13,1.51-3.21,2.23a51.43,51.43,0,0,0-6.8,5.59,52.82,52.82,0,0,0-5.2,5.68c-1,1.25-1.94,2.52-2.84,3.85a49.83,49.83,0,0,0-2.71,4.28,45.06,45.06,0,0,0-2.3,4.19,30.93,30.93,0,0,0-1.26,3c-.37,1.21-1.07,2.32-1.37,3.54S66.67,54.67,66.69,56a7.56,7.56,0,0,0-.57,2.08,21.48,21.48,0,0,1-.52,2.1c-.28.71-.08,1.44-.4,2.15a7.22,7.22,0,0,0-.28,1.8c-.09.65-.19,1.31-.26,2-.18,1.76-.2,3.53-.28,5.3C64.36,71.72,64.37,72,64.37,72.52Z" transform="translate(-60.49 -6.49)" style="fill:#040403"/><path d="M64.37,72.52c0-.5,0-.8,0-1.1.08-1.77.1-3.54.28-5.3.07-.64.17-1.3.26-2a7.22,7.22,0,0,1,.28-1.8c.32-.71.12-1.44.4-2.15a21.48,21.48,0,0,0,.52-2.1A7.56,7.56,0,0,1,66.69,56c0-1.37.75-2.53,1.07-3.81s1-2.33,1.37-3.54a30.93,30.93,0,0,1,1.26-3,45.06,45.06,0,0,1,2.3-4.19,49.83,49.83,0,0,1,2.71-4.28c.9-1.33,1.85-2.6,2.84-3.85a52.82,52.82,0,0,1,5.2-5.68,51.43,51.43,0,0,1,6.8-5.59c1.08-.72,2.12-1.51,3.21-2.23a45.77,45.77,0,0,1,4.27-2.4c1.13-.59,2.25-1.2,3.41-1.73,2-.89,4-1.61,6-2.32,1-.37,2.14-.65,3.2-1s2.1-.5,3.14-.81a15.62,15.62,0,0,1,2.07-.28c.4-.06.79-.18,1.18-.25s.78.16,1.06-.25c0,0,.08,0,.12,0,.43,0,.86,0,1.29,0a5.82,5.82,0,0,1,1-.23c1.44.14,2.84-.31,4.27-.28s2.92,0,4.37,0c.66,0,1.3.19,2,.23a13.58,13.58,0,0,1,1.92,0c1.17.25,2.36.26,3.52.51,1.81.38,3.62.69,5.41,1.19,2,.56,4.06,1.16,6.05,1.86a44.43,44.43,0,0,1,4.62,1.91c.46.22.95.41,1.41.64,1.21.61,2.36,1.35,3.56,2,1.8.93,3.39,2.15,5.09,3.22a9.17,9.17,0,0,1,1.38,1A22,22,0,0,0,166,24.69c.74.54,1.35,1.24,2.05,1.84a45.92,45.92,0,0,1,4.19,4.18c.46.52.93,1.06,1.39,1.6s.8.94,1.18,1.44c.8,1,1.6,2.07,2.36,3.14s1.44,2,2.09,3.12c.54.88,1,1.82,1.47,2.74L181.94,45c.39.74.68,1.52,1.05,2.26a48.51,48.51,0,0,1,2.07,5.2c.58,1.61,1,3.26,1.47,4.91.24.92.43,1.9.63,2.84a19,19,0,0,0,.72,3.68s0,.09,0,.13c.09,1.25.16,2.5.26,3.75.07.74.21,1.47.25,2.21s0,1.55,0,2.32-.05,1.55,0,2.31a13.12,13.12,0,0,1-.26,2.09,14,14,0,0,1,0,2c-.26,1.21-.24,2.45-.5,3.65a41.5,41.5,0,0,1-1.76,7.11,20.38,20.38,0,0,1-1.34,4.47c-.5,1.5-1.22,2.92-1.84,4.38s-1.35,2.7-2,4a38.52,38.52,0,0,1-3,4.82c-1,1.42-2.09,2.83-3.17,4.22a51,51,0,0,1-6.23,6.66,17.18,17.18,0,0,1-3.74,3,38.92,38.92,0,0,1-5.65,4.07,29.91,29.91,0,0,1-3.13,1.76c-1.26.67-2.54,1.31-3.83,1.92a54.79,54.79,0,0,1-5.53,2.19c-1.16.41-2.37.69-3.54,1.08s-2.34.48-3.47.95a8.53,8.53,0,0,1-2.06.3c-.4.06-.79.17-1.18.26s-.77-.18-1.08.2c0,0-.15,0-.23,0-1.21.09-2.41.19-3.62.26a31.34,31.34,0,0,1-3.63.28,25.44,25.44,0,0,0-3.6,0c-.69.05-1.28-.32-2-.29a5.8,5.8,0,0,1-2,0,5.35,5.35,0,0,0-1.71-.21,9.34,9.34,0,0,1-1.69-.31,18.41,18.41,0,0,1-4.47-1,16.91,16.91,0,0,1-3.64-.86,24.26,24.26,0,0,1-3.48-1.2,26.74,26.74,0,0,1-4.06-1.69,17.5,17.5,0,0,1-2.26-1.11,22,22,0,0,0-2.24-1.07c-1.63-1-3.25-1.93-4.8-3s-2.85-2.07-4.24-3.15a53.07,53.07,0,0,1-6.57-6.14,18,18,0,0,1-3.12-3.84,34.15,34.15,0,0,1-4-5.55c-.56-.83-1.06-1.7-1.54-2.57s-.83-1.64-1.31-2.43-.68-1.6-1.07-2.38a48.1,48.1,0,0,1-2.3-5.86c-.72-2.12-1.18-4.31-1.8-6.46-.2-.7-.09-1.5-.31-2.2s0-1.29-.27-1.81,0-1.27-.23-1.83c-.38-1,0-2-.27-3A22,22,0,0,1,64.37,72.52Zm115.54-.07a25,25,0,0,0-.26-4.65,28.73,28.73,0,0,0-.3-3.36c-.12-.57,0-1.27-.27-1.66s0-1.06-.36-1.55-.23-1-.36-1.51c-.21-.86-.44-1.71-.68-2.55-.38-1.3-.9-2.55-1.34-3.82-.49-1.44-1.17-2.78-1.76-4.16a39.47,39.47,0,0,0-3.16-5.64,42.65,42.65,0,0,0-4.77-6.37,57,57,0,0,0-8.37-7.69,61,61,0,0,0-6.51-4.18c-1.69-.89-3.41-1.7-5.13-2.52a8.66,8.66,0,0,0-1.57-.57c-1.5-.4-2.93-1-4.45-1.39s-3.19-.78-4.78-1.17a21.35,21.35,0,0,0-3.64-.48,38.44,38.44,0,0,0-4-.31c-1.89.1-3.79-.21-5.69.22a23.4,23.4,0,0,0-2.72.27,10.6,10.6,0,0,1-1.62.15c-.55.09-1.08.3-1.64.37a4.08,4.08,0,0,0-1.57.26,2.22,2.22,0,0,1-1,.25,9.75,9.75,0,0,0-2.69.68,50.65,50.65,0,0,0-7.45,2.81,39.1,39.1,0,0,0-6,3.35c-1.18.79-2.36,1.57-3.52,2.41a30,30,0,0,0-3.44,2.8,55.66,55.66,0,0,0-5.49,5.69c-.78,1-1.67,1.95-2.44,3S81.76,43,81.09,43.94a29.62,29.62,0,0,0-1.75,2.89c-1,1.71-1.75,3.56-2.61,5.35.14.63-.38,1-.54,1.58-.62,2.14-1.42,4.22-1.86,6.44a37.88,37.88,0,0,0-1,5.38c0,.13.05.3,0,.38a2.45,2.45,0,0,0-.22,1.83c.08.7-.32,1.29-.28,1.95.12,2.15-.26,4.32.24,6.46.18.77-.14,1.6.16,2.38s0,1.62.33,2.44c.26.66.1,1.49.32,2.19.57,1.87.89,3.81,1.53,5.66a48.49,48.49,0,0,0,1.83,4.78c.13.29.37.53.47.83A24.32,24.32,0,0,0,80.58,100a52.54,52.54,0,0,0,3,4.43,40.62,40.62,0,0,0,3,3.73,58.62,58.62,0,0,0,6.67,6.22c.92.68,1.83,1.37,2.76,2a51.56,51.56,0,0,0,4.4,2.77A36,36,0,0,0,104,121c1.24.53,2.46,1.12,3.74,1.54,1.62.54,3.23,1.16,4.89,1.54a14,14,0,0,0,4.05.81c1.23.64,2.66.29,3.92.77,1.36-.19,2.67.29,4,.26,1,0,2,0,3,0a5.77,5.77,0,0,0,1.91,0,7.47,7.47,0,0,1,2-.21l2-.26a13.79,13.79,0,0,0,2.59-.3c.45-.14.92-.07,1.31-.23a27.88,27.88,0,0,1,3.58-1c1.7-.45,3.34-1,5-1.63.89-.32,1.7-.87,2.58-1.22a34.89,34.89,0,0,0,5.73-2.94c1.44-1,2.91-1.92,4.32-3a31.12,31.12,0,0,0,3.44-2.8,54.66,54.66,0,0,0,5.49-5.69c.78-1,1.68-2,2.44-3s1.17-1.93,1.85-2.83,1.17-1.93,1.75-2.89A33.35,33.35,0,0,0,176,92.57a25.77,25.77,0,0,0,1.88-5.91,13.75,13.75,0,0,0,.74-2.52c.33-.83.23-1.76.52-2.62a6.21,6.21,0,0,0,.26-1.56,3.17,3.17,0,0,1,.27-1.69,20,20,0,0,1,.25-3.63C180,73.92,179.91,73.18,179.91,72.45Z" transform="translate(-60.49 -6.49)" style="fill:#fcdd77"/><path d="M179.91,72.45c0,.73.05,1.47,0,2.19a20,20,0,0,0-.25,3.63,3.17,3.17,0,0,0-.27,1.69,6.21,6.21,0,0,1-.26,1.56c-.29.86-.19,1.79-.52,2.62a13.75,13.75,0,0,1-.74,2.52A25.77,25.77,0,0,1,176,92.57a33.35,33.35,0,0,1-2.54,5.37c-.58,1-1.08,2-1.75,2.89s-1.18,1.93-1.85,2.83-1.66,2-2.44,3a54.66,54.66,0,0,1-5.49,5.69,31.12,31.12,0,0,1-3.44,2.8c-1.41,1-2.88,2-4.32,3a34.89,34.89,0,0,1-5.73,2.94c-.88.35-1.69.9-2.58,1.22-1.65.6-3.29,1.18-5,1.63a27.88,27.88,0,0,0-3.58,1c-.39.16-.86.09-1.31.23a13.79,13.79,0,0,1-2.59.3l-2,.26a7.47,7.47,0,0,0-2,.21,5.77,5.77,0,0,1-1.91,0c-1,0-2,0-3,0-1.34,0-2.65-.45-4-.26-1.26-.48-2.69-.13-3.92-.77a14,14,0,0,1-4.05-.81c-1.66-.38-3.27-1-4.89-1.54-1.28-.42-2.5-1-3.74-1.54a36,36,0,0,1-3.48-1.82,51.56,51.56,0,0,1-4.4-2.77c-.93-.66-1.84-1.35-2.76-2a58.62,58.62,0,0,1-6.67-6.22,40.62,40.62,0,0,1-3-3.73,52.54,52.54,0,0,1-3-4.43,24.32,24.32,0,0,1-2.83-5.51c-.1-.3-.34-.54-.47-.83a48.49,48.49,0,0,1-1.83-4.78c-.64-1.85-1-3.79-1.53-5.66-.22-.7-.06-1.53-.32-2.19-.32-.82,0-1.66-.33-2.44s0-1.61-.16-2.38c-.5-2.14-.12-4.31-.24-6.46,0-.66.36-1.25.28-1.95A2.45,2.45,0,0,1,73.37,66c.06-.08,0-.25,0-.38a37.88,37.88,0,0,1,1-5.38c.44-2.22,1.24-4.3,1.86-6.44.16-.54.68-.95.54-1.58.86-1.79,1.61-3.64,2.61-5.35a29.62,29.62,0,0,1,1.75-2.89c.67-.9,1.17-1.92,1.84-2.83s1.66-2,2.44-3a55.66,55.66,0,0,1,5.49-5.69,30,30,0,0,1,3.44-2.8c1.16-.84,2.34-1.62,3.52-2.41a39.1,39.1,0,0,1,6-3.35,50.65,50.65,0,0,1,7.45-2.81,9.75,9.75,0,0,1,2.69-.68,2.22,2.22,0,0,0,1-.25,4.08,4.08,0,0,1,1.57-.26c.56-.07,1.09-.28,1.64-.37a10.6,10.6,0,0,0,1.62-.15,23.4,23.4,0,0,1,2.72-.27c1.9-.43,3.8-.12,5.69-.22a38.44,38.44,0,0,1,4,.31,21.35,21.35,0,0,1,3.64.48c1.59.39,3.19.76,4.78,1.17s2.95,1,4.45,1.39a8.66,8.66,0,0,1,1.57.57c1.72.82,3.44,1.63,5.13,2.52a61,61,0,0,1,6.51,4.18,57,57,0,0,1,8.37,7.69,42.65,42.65,0,0,1,4.77,6.37,39.47,39.47,0,0,1,3.16,5.64c.59,1.38,1.27,2.72,1.76,4.16.44,1.27,1,2.52,1.34,3.82.24.84.47,1.69.68,2.55.13.5.08,1.12.36,1.51s0,1,.36,1.55.15,1.09.27,1.66a28.73,28.73,0,0,1,.3,3.36A25,25,0,0,1,179.91,72.45ZM86.5,43.05c-.38,0-.22.32-.25.52a5.1,5.1,0,0,0-.77.77c-.74,1.14-1.39,2.35-2.13,3.48a37,37,0,0,0-3,6,45.3,45.3,0,0,0-1.69,5.09c-.48,1.62-.69,3.3-1.18,4.91a6.78,6.78,0,0,0-.26,1.56A3.27,3.27,0,0,1,77,67.05a22,22,0,0,1-.25,3.63c0,1,0,2.06,0,3.08s.24,2,.23,3,.47,2.05.28,3.11a.29.29,0,0,0,0,.13A14.24,14.24,0,0,1,78,83.14c.16.62.29,1.26.45,1.88s.36,1.22.54,1.83a52.63,52.63,0,0,0,2,5.46A32.4,32.4,0,0,0,83,96.38c1,1.69,2.06,3.39,3.24,5a58.87,58.87,0,0,0,4,4.88,28.38,28.38,0,0,0,3.67,3.51c.91.7,1.8,1.44,2.7,2.18a40.05,40.05,0,0,0,6.51,4.18c1.5.81,3,1.52,4.6,2.24.57.26,1.21.38,1.81.6,1.12.43,2.29.7,3.4,1.1,1.61.57,3.29.72,4.9,1.2a6.87,6.87,0,0,0,1.57.26,3.17,3.17,0,0,1,1.69.27,25.19,25.19,0,0,1,3.88.24,24.29,24.29,0,0,0,2.83,0c.91,0,1.81-.17,2.72-.25l3.37-.26s.09,0,.13,0a9.17,9.17,0,0,1,3-.71c1.28-.22,2.51-.61,3.75-.95a38.89,38.89,0,0,0,6.22-2.34,52,52,0,0,0,6.49-3.6,60.51,60.51,0,0,0,6.24-4.77c1.31-1.11,2.45-2.4,3.65-3.63.09-.09.07-.31.1-.47l.26-.25a1.53,1.53,0,0,0,.3-.19,34.8,34.8,0,0,0,2.66-3.39,33.54,33.54,0,0,0,3.24-5.1c.89-1.63,1.67-3.33,2.46-5,.25-.53.4-1.12.6-1.68.42-1.2.76-2.43,1.16-3.63.53-1.57.7-3.21,1.15-4.8a8.06,8.06,0,0,0,.25-1.56,3.17,3.17,0,0,1,.27-1.69c-.08-1.26.19-2.51.22-3.75a17.79,17.79,0,0,0-.18-4.66c-.23-1,.06-2.08-.28-3.1-.17-.51.13-1.09-.17-1.61s.1-1.09-.36-1.52a27.07,27.07,0,0,0-1.07-5c-.17-.8-.54-1.57-.77-2.38a20.74,20.74,0,0,0-.9-2.2c-.32-.76-.63-1.54-1-2.28-.82-1.64-1.72-3.24-2.65-4.83s-1.89-2.8-2.83-4.21a23.16,23.16,0,0,0-2.63-3.14,41.68,41.68,0,0,0-4.11-4c-1.29-1-2.55-2.09-3.87-3.09a48.22,48.22,0,0,0-5-3.15,39.75,39.75,0,0,0-7-3.18c-.56-.19-1.1-.46-1.67-.62a14.65,14.65,0,0,1-1.58-.53c-.55-.23-1.31,0-1.78-.35s-1.28.08-1.74-.47a8,8,0,0,1-2.28-.41c-.8-.22-1.67.14-2.42-.36-1.39.2-2.75-.34-4.13-.25a22.53,22.53,0,0,0-4.41.22c-.9.23-1.88,0-2.85.24-.7.16-1.47.12-2.2.31a13.81,13.81,0,0,1-2.23.46,19.46,19.46,0,0,0-3.76.9,48.46,48.46,0,0,0-6.55,2.49,49.78,49.78,0,0,0-5.87,3.21A54.2,54.2,0,0,0,93,35.63c-.93.82-1.78,1.73-2.64,2.63A28.4,28.4,0,0,0,88,41a5.86,5.86,0,0,0-1.21,1.81Z" transform="translate(-60.49 -6.49)" style="fill:#040302"/><path d="M86.76,42.8A5.86,5.86,0,0,1,88,41a28.4,28.4,0,0,1,2.43-2.73c.86-.9,1.71-1.81,2.64-2.63a54.2,54.2,0,0,1,6.64-5.07,49.78,49.78,0,0,1,5.87-3.21,48.46,48.46,0,0,1,6.55-2.49,19.46,19.46,0,0,1,3.76-.9,13.81,13.81,0,0,0,2.23-.46c.73-.19,1.5-.15,2.2-.31,1-.22,1.95,0,2.85-.24a22.53,22.53,0,0,1,4.41-.22c1.38-.09,2.74.45,4.13.25.75.5,1.62.14,2.42.36a8,8,0,0,0,2.28.41c.46.55,1.16.11,1.74.47s1.23.12,1.78.35a14.65,14.65,0,0,0,1.58.53c.57.16,1.11.43,1.67.62a39.75,39.75,0,0,1,7,3.18,48.22,48.22,0,0,1,5,3.15c1.32,1,2.58,2.06,3.87,3.09a41.68,41.68,0,0,1,4.11,4,23.16,23.16,0,0,1,2.63,3.14c.94,1.41,2,2.74,2.83,4.21s1.83,3.19,2.65,4.83c.37.74.68,1.52,1,2.28a20.74,20.74,0,0,1,.9,2.2c.23.81.6,1.58.77,2.38a27.07,27.07,0,0,1,1.07,5c.46.43.09,1.06.36,1.52s0,1.1.17,1.61c.34,1,0,2.11.28,3.1A17.79,17.79,0,0,1,176,74c0,1.24-.3,2.49-.22,3.75a3.17,3.17,0,0,0-.27,1.69,8.06,8.06,0,0,1-.25,1.56c-.45,1.59-.62,3.23-1.15,4.8-.4,1.2-.74,2.43-1.16,3.63-.2.56-.35,1.15-.6,1.68-.79,1.69-1.57,3.39-2.46,5a33.54,33.54,0,0,1-3.24,5.1,34.8,34.8,0,0,1-2.66,3.39,1.53,1.53,0,0,1-.3.19l-.26.25a5.44,5.44,0,0,0-.57.19c-1,.46-1.8,1.34-2.92,1.63-1.77,1.39-3.94,2-5.93,3a13.13,13.13,0,0,1-2.89,1c-1,.23-1.92.85-3,.8-.51.39-1.15.3-1.71.5a8,8,0,0,1-1.67.33c-.59.08-1.15.35-1.74.44a4.16,4.16,0,0,0-1.81.27c-1.52-.09-3,.42-4.52.26a8.68,8.68,0,0,0-1,0c.07-.09.14-.26.2-.25a3.54,3.54,0,0,0,2.32-.92,5.24,5.24,0,0,0,2.25-3,5.43,5.43,0,0,0,.18-3.11,7.39,7.39,0,0,0-1.76-3.27c-.51-.48-1.09-.9-1.61-1.37-1.19-1.07-2.26-2.27-3.51-3.3-1.53-1.27-2.82-2.81-4.37-4.08-1.17-1-2.15-2.13-3.33-3.11-1.56-1.3-2.89-2.86-4.46-4.17-.85-.71-1.59-1.56-2.45-2.42.83-.2,1.6-.38,2.37-.58a16.07,16.07,0,0,0,2.31-.64,23.73,23.73,0,0,0,3.85-1.9A21.78,21.78,0,0,0,130.88,79a23,23,0,0,0,4.69-5.63,29.81,29.81,0,0,0,2.26-5.14c1.27,0,2.55,0,3.84,0,2.83-.1,5.68.27,8.51-.23a5,5,0,0,0,1.7-.55A6.3,6.3,0,0,0,155,63.32a5.69,5.69,0,0,0-.42-3.77,5.85,5.85,0,0,0-3.05-3.06l-.65-.3a15.08,15.08,0,0,0-4.13-.27h-8.86c-.6-1.49-1.15-2.88-1.75-4.38h1c4.12,0,8.24,0,12.35,0A5,5,0,0,0,153.25,50,6.7,6.7,0,0,0,155,46.86a5.86,5.86,0,0,0-.42-3.78,5.4,5.4,0,0,0-1.45-2,5.82,5.82,0,0,0-3.82-1.64c-2.1-.09-4.2,0-6.3,0a1.68,1.68,0,0,0-1.33.52l-.64.64v.9h-5.4a2,2,0,0,0-2.09-2.06h-30a6.06,6.06,0,0,0-2.33.58,6.33,6.33,0,0,0-3.66,5.24,5.89,5.89,0,0,0,2.2,5,4.39,4.39,0,0,0,2.93,1.28c2.4,0,4.8,0,7.2,0a44.78,44.78,0,0,1,7.23.23,10.83,10.83,0,0,1,1.69.28,12.32,12.32,0,0,1,4.69,2.67,2.12,2.12,0,0,1,.71,1.19c-6.19,0-12.36,0-18.54,0a15.71,15.71,0,0,0-3.12.19,5.56,5.56,0,0,0-2.41,1,5.15,5.15,0,0,0-2.35,3.76A2.29,2.29,0,0,0,97.63,63a6.86,6.86,0,0,0,.67,1.9,6.58,6.58,0,0,0,2.85,2.75,11.74,11.74,0,0,0,3.2.67h19c.31,0,.61,0,1,.07a20.6,20.6,0,0,1-2.83,2.54,9,9,0,0,1-4.65,1.5H105.36a11.59,11.59,0,0,0-2.48.2,7.58,7.58,0,0,0-2.66,1.06A5.82,5.82,0,0,0,97.6,78.1a5.6,5.6,0,0,0,1.83,4.76c1,.93,1.91,1.9,3,2.76,1.4,1.15,2.56,2.57,4,3.72s2.39,2.39,3.71,3.47,2.63,2.63,4.09,3.81c1.28,1,2.32,2.32,3.61,3.37,1.47,1.21,2.69,2.69,4.18,3.9,1.24,1,2.27,2.26,3.52,3.29,1.7,1.4,3.24,3,4.82,4.52a5.23,5.23,0,0,0,3.19,1.64s.06.14.09.22a51.62,51.62,0,0,1-5.42-.26c-.13,0-.32,0-.37,0-.3-.4-.71-.17-1.07-.24a9.52,9.52,0,0,0-1.18-.25,29.2,29.2,0,0,1-3.32-.69c-.71-.12-1.37-.44-2.06-.57a32.29,32.29,0,0,1-4.21-1.36c-.89-.29-1.69-.88-2.57-1.23a30.77,30.77,0,0,1-5.83-3c-1.14-.76-2.27-1.56-3.41-2.33A70,70,0,0,1,98.61,99a20.22,20.22,0,0,1-2.13-2.3c-1.22-1.37-2.34-2.79-3.45-4.24a45.53,45.53,0,0,1-3.68-5.68c-.94-1.7-1.72-3.49-2.57-5.24.1-.62-.42-1-.55-1.57-.3-1.24-.78-2.42-1.12-3.65A38.53,38.53,0,0,1,83.91,71a8.56,8.56,0,0,0-.29-1.81,6.82,6.82,0,0,1-.2-1.71,16.23,16.23,0,0,1-.25-1.82c0-1.12,0-2.23,0-3.35s0-2.22,0-3.34.15-2.16.25-3.23c0-.36.2-.7.24-1.06s-.1-.81,0-1.14a31.6,31.6,0,0,0,.73-3.17c.42-1.46.73-2.94,1.24-4.37a4.67,4.67,0,0,0,.59-2.46c.38,0,.21-.32.25-.52Z" transform="translate(-60.49 -6.49)" style="fill:#fdb379"/><path d="M86.25,43.57A4.67,4.67,0,0,1,85.66,46c-.51,1.43-.82,2.91-1.24,4.37a31.6,31.6,0,0,1-.73,3.17c-.13.33,0,.76,0,1.14s-.2.7-.24,1.06c-.1,1.07-.21,2.15-.25,3.23s0,2.23,0,3.34,0,2.23,0,3.35a16.23,16.23,0,0,0,.25,1.82,6.82,6.82,0,0,0,.2,1.71A8.56,8.56,0,0,1,83.91,71a38.53,38.53,0,0,0,1.2,5.29c.34,1.23.82,2.41,1.12,3.65.13.55.65,1,.55,1.57.85,1.75,1.63,3.54,2.57,5.24A45.53,45.53,0,0,0,93,92.46c1.11,1.45,2.23,2.87,3.45,4.24A20.22,20.22,0,0,0,98.61,99a70,70,0,0,0,5.54,4.6c1.14.77,2.27,1.57,3.41,2.33a30.77,30.77,0,0,0,5.83,3c.88.35,1.68.94,2.57,1.23a32.29,32.29,0,0,0,4.21,1.36c.69.13,1.35.45,2.06.57a29.2,29.2,0,0,0,3.32.69,9.52,9.52,0,0,1,1.18.25c.36.07.77-.16,1.07.24,0,.06.24,0,.37,0a51.62,51.62,0,0,0,5.42.26h2.06a8.68,8.68,0,0,1,1,0c1.53.16,3-.35,4.52-.26A4.16,4.16,0,0,1,143,113c.59-.09,1.15-.36,1.74-.44a8,8,0,0,0,1.67-.33c.56-.2,1.2-.11,1.71-.5,1.09,0,2-.57,3-.8a13.13,13.13,0,0,0,2.89-1c2-1,4.16-1.64,5.93-3,1.12-.29,1.9-1.17,2.92-1.63a5.44,5.44,0,0,1,.57-.19c0,.16,0,.38-.1.47-1.2,1.23-2.34,2.52-3.65,3.63a60.51,60.51,0,0,1-6.24,4.77,52,52,0,0,1-6.49,3.6,38.89,38.89,0,0,1-6.22,2.34c-1.24.34-2.47.73-3.75.95a9.17,9.17,0,0,0-3,.71s-.09,0-.13,0l-3.37.26c-.91.08-1.81.21-2.72.25a24.29,24.29,0,0,1-2.83,0,25.19,25.19,0,0,0-3.88-.24,3.17,3.17,0,0,0-1.69-.27,6.87,6.87,0,0,1-1.57-.26c-1.61-.48-3.29-.63-4.9-1.2-1.11-.4-2.28-.67-3.4-1.1-.6-.22-1.24-.34-1.81-.6-1.55-.72-3.1-1.43-4.6-2.24a40.05,40.05,0,0,1-6.51-4.18c-.9-.74-1.79-1.48-2.7-2.18a28.38,28.38,0,0,1-3.67-3.51,58.87,58.87,0,0,1-4-4.88c-1.18-1.6-2.22-3.3-3.24-5A32.4,32.4,0,0,1,81,92.31a52.63,52.63,0,0,1-2-5.46c-.18-.61-.38-1.21-.54-1.83s-.29-1.26-.45-1.88A14.24,14.24,0,0,0,77.24,80a.29.29,0,0,1,0-.13c.19-1.06-.28-2.06-.28-3.11s-.18-2-.23-3,0-2.06,0-3.08A22,22,0,0,0,77,67.05a3.27,3.27,0,0,0,.27-1.69,6.78,6.78,0,0,1,.26-1.56c.49-1.61.7-3.29,1.18-4.91a45.3,45.3,0,0,1,1.69-5.09,37,37,0,0,1,3-6c.74-1.13,1.39-2.34,2.13-3.48A5.1,5.1,0,0,1,86.25,43.57Z" transform="translate(-60.49 -6.49)" style="fill:#fd8321"/><path d="M86.5,43.05c0,.2.13.5-.25.52C86.28,43.37,86.12,43.07,86.5,43.05Z" transform="translate(-60.49 -6.49)" style="fill:#fd8321"/><path d="M86.76,42.8l-.26.25Z" transform="translate(-60.49 -6.49)" style="fill:#fd8321"/><path d="M163.44,105.06l.26-.25Z" transform="translate(-60.49 -6.49)" style="fill:#fd8321"/><path d="M135.65,113.56h-2.06c0-.08-.05-.21-.09-.22a5.23,5.23,0,0,1-3.19-1.64c-1.58-1.53-3.12-3.12-4.82-4.52-1.25-1-2.28-2.28-3.52-3.29-1.49-1.21-2.71-2.69-4.18-3.9-1.29-1-2.33-2.34-3.61-3.37-1.46-1.18-2.65-2.64-4.09-3.81s-2.39-2.41-3.71-3.47-2.59-2.57-4-3.72c-1-.86-2-1.83-3-2.76A5.6,5.6,0,0,1,97.6,78.1a5.82,5.82,0,0,1,2.62-4.45,7.58,7.58,0,0,1,2.66-1.06,11.59,11.59,0,0,1,2.48-.2h11.58a9,9,0,0,0,4.65-1.5,20.6,20.6,0,0,0,2.83-2.54c-.42,0-.72-.07-1-.07h-19a11.74,11.74,0,0,1-3.2-.67,6.58,6.58,0,0,1-2.85-2.75,6.86,6.86,0,0,1-.67-1.9,2.29,2.29,0,0,1,.19-2.07,5.15,5.15,0,0,1,2.35-3.76,5.56,5.56,0,0,1,2.41-1,15.71,15.71,0,0,1,3.12-.19c6.18,0,12.35,0,18.54,0a2.12,2.12,0,0,0-.71-1.19,12.32,12.32,0,0,0-4.69-2.67,10.83,10.83,0,0,0-1.69-.28,44.78,44.78,0,0,0-7.23-.23c-2.4,0-4.8,0-7.2,0a4.39,4.39,0,0,1-2.93-1.28,5.89,5.89,0,0,1-2.2-5A6.33,6.33,0,0,1,101.25,40a6.06,6.06,0,0,1,2.33-.58h30a2,2,0,0,1,2.09,2.06V42l-1.17,1.28h-31l-1.33.68-.71,1.41.38,1.21,1.08,1.06h13.25a2.57,2.57,0,0,1,1.45.21c.42.25,1.09-.15,1.55.3a12.17,12.17,0,0,1,5.94,2.71,14.64,14.64,0,0,1,4.38,5.88c.56,1.23.41,1.71-.59,2.72-.09.09-.17.19-.24.27H104.77a2.82,2.82,0,0,0-.77,0c-.68.22-1.47.22-2,.81a2.33,2.33,0,0,0-.11,2.85l1,.7h22.25a8.15,8.15,0,0,1,3.49.35,4.4,4.4,0,0,1,.69.72,1.5,1.5,0,0,1,.33,1.37,19.7,19.7,0,0,1-1.46,3,13.43,13.43,0,0,1-3.49,3.84,25.14,25.14,0,0,1-3,1.79,12.41,12.41,0,0,1-3.44,1,24.72,24.72,0,0,1-3.75.28c-.94.05-1.89,0-2.83,0h-8.36a2.18,2.18,0,0,0-1.95,2.19,1.54,1.54,0,0,0,.1.35,4.83,4.83,0,0,0,1.55,2c.26.25.61.41.88.65,1.11,1,2.08,2.09,3.24,3,1.45,1.16,2.62,2.63,4.09,3.81,1.31,1,2.38,2.39,3.71,3.46s2.56,2.57,4,3.72,2.39,2.38,3.7,3.47c1.7,1.4,3.23,3,4.83,4.52q2.69,2.53,5.35,5.09a.76.76,0,0,0,.09.09,9,9,0,0,0,1.5.73c.49.14.9-.33,1.34-.44s.53-.69.88-1v-1.83c-1.47-1.3-2.74-2.85-4.33-4.08-1.36-1.06-2.44-2.45-3.8-3.56s-2.69-2.68-4.18-3.89c-1.24-1-2.27-2.26-3.52-3.29-1.49-1.24-2.76-2.75-4.27-4-1.21-1-2.13-2.29-3.44-3.18a2.08,2.08,0,0,1-.86-2.31l1-1.13a6.59,6.59,0,0,1,1.39-.38,6.3,6.3,0,0,1,1.18.23c.12,0,.32.06.38,0,.38-.42.87-.21,1.31-.25a13.32,13.32,0,0,0,2-.21c1.17-.27,2.29-.65,3.44-1a17.26,17.26,0,0,0,5.37-3.16,15.21,15.21,0,0,0,3.38-3.85,17.66,17.66,0,0,0,2.46-5.68,15.49,15.49,0,0,1,.62-1.82,5.43,5.43,0,0,1,2.79-.74c4.08,0,8.15,0,12.22,0a.26.26,0,0,0,.11,0l1-.66c0-.07.1-.21.15-.36a5,5,0,0,0,.35-1.26,2.53,2.53,0,0,0-1.41-1.79,10.3,10.3,0,0,0-1.69-.31c-3.91,0-7.81,0-11.71,0a2.6,2.6,0,0,1-1.62-.4c0-.53-.85-.7-.53-1.34a26.3,26.3,0,0,0-1.46-4,39.67,39.67,0,0,0-2.1-3.59V48.81l.78-.79a8.54,8.54,0,0,1,3.56-.33h14.7L151,46.62l.38-1.2L150.64,44l-1.32-.68h-6.45c-1.24,0-1.71-.49-1.82-1.8v-.9l.64-.64a1.68,1.68,0,0,1,1.33-.52c2.1,0,4.2-.07,6.3,0a5.82,5.82,0,0,1,3.82,1.64,5.4,5.4,0,0,1,1.45,2,5.86,5.86,0,0,1,.42,3.78A6.7,6.7,0,0,1,153.25,50a5,5,0,0,1-3.72,1.57c-4.11-.05-8.23,0-12.35,0h-1c.6,1.5,1.15,2.89,1.75,4.38h8.86a15.08,15.08,0,0,1,4.13.27l.65.3a5.85,5.85,0,0,1,3.05,3.06,5.69,5.69,0,0,1,.42,3.77,6.3,6.3,0,0,1-3.12,4.16,5,5,0,0,1-1.7.55c-2.83.5-5.68.13-8.51.23-1.29,0-2.57,0-3.84,0a29.81,29.81,0,0,1-2.26,5.14A23,23,0,0,1,130.88,79a21.78,21.78,0,0,1-3.24,2.38,23.73,23.73,0,0,1-3.85,1.9,16.07,16.07,0,0,1-2.31.64c-.77.2-1.54.38-2.37.58.86.86,1.6,1.71,2.45,2.42,1.57,1.31,2.9,2.87,4.46,4.17,1.18,1,2.16,2.15,3.33,3.11,1.55,1.27,2.84,2.81,4.37,4.08,1.25,1,2.32,2.23,3.51,3.3.52.47,1.1.89,1.61,1.37a7.39,7.39,0,0,1,1.76,3.27,5.43,5.43,0,0,1-.18,3.11,5.24,5.24,0,0,1-2.25,3,3.54,3.54,0,0,1-2.32.92C135.79,113.3,135.72,113.47,135.65,113.56Z" transform="translate(-60.49 -6.49)" style="fill:#050404"/><path d="M141.05,41.51c.11,1.31.58,1.79,1.82,1.8h6.45l1.32.68.73,1.43-.38,1.2-1.15,1.06h-14.7a8.54,8.54,0,0,0-3.56.33l-.78.79v1.62A39.67,39.67,0,0,1,132.9,54a26.3,26.3,0,0,1,1.46,4c-.32.64.55.81.53,1.34a2.6,2.6,0,0,0,1.62.4c3.9,0,7.8,0,11.71,0a10.3,10.3,0,0,1,1.69.31,2.53,2.53,0,0,1,1.41,1.79,5,5,0,0,1-.35,1.26c-.05.15-.12.29-.15.36l-1,.66a.26.26,0,0,1-.11,0c-4.07,0-8.14,0-12.22,0a5.43,5.43,0,0,0-2.79.74,15.49,15.49,0,0,0-.62,1.82,17.66,17.66,0,0,1-2.46,5.68,15.21,15.21,0,0,1-3.38,3.85,17.26,17.26,0,0,1-5.37,3.16c-1.15.37-2.27.75-3.44,1a13.32,13.32,0,0,1-2,.21c-.44,0-.93-.17-1.31.25-.06.06-.26,0-.38,0a6.3,6.3,0,0,0-1.18-.23,6.59,6.59,0,0,0-1.39.38l-1,1.13a2.08,2.08,0,0,0,.86,2.31c1.31.89,2.23,2.19,3.44,3.18,1.51,1.24,2.78,2.75,4.27,4,1.25,1,2.28,2.27,3.52,3.29,1.49,1.21,2.71,2.69,4.18,3.89s2.44,2.5,3.8,3.56c1.59,1.23,2.86,2.78,4.33,4.08v1.83c-.35.26-.29.8-.88,1s-.85.58-1.34.44a9,9,0,0,1-1.5-.73.76.76,0,0,1-.09-.09q-2.67-2.55-5.35-5.09c-1.6-1.52-3.13-3.12-4.83-4.52-1.31-1.09-2.39-2.41-3.7-3.47s-2.58-2.58-4-3.72-2.4-2.41-3.71-3.46c-1.47-1.18-2.64-2.65-4.09-3.81-1.16-.94-2.13-2-3.24-3-.27-.24-.62-.4-.88-.65a4.83,4.83,0,0,1-1.55-2,1.54,1.54,0,0,1-.1-.35,2.18,2.18,0,0,1,1.95-2.19h8.36c.94,0,1.89,0,2.83,0a24.72,24.72,0,0,0,3.75-.28,12.41,12.41,0,0,0,3.44-1,25.14,25.14,0,0,0,3-1.79,13.43,13.43,0,0,0,3.49-3.84,19.7,19.7,0,0,0,1.46-3,1.5,1.5,0,0,0-.33-1.37,4.4,4.4,0,0,0-.69-.72,8.15,8.15,0,0,0-3.49-.35H102.94l-1-.7A2.33,2.33,0,0,1,102,60.6c.5-.59,1.29-.59,2-.81a2.82,2.82,0,0,1,.77,0H128.6c.07-.08.15-.18.24-.27,1-1,1.15-1.49.59-2.72a14.64,14.64,0,0,0-4.38-5.88,12.17,12.17,0,0,0-5.94-2.71c-.46-.45-1.13-.05-1.55-.3a2.57,2.57,0,0,0-1.45-.21H102.86l-1.08-1.06-.38-1.21.71-1.41,1.33-.68h31L135.65,42v-.53Z" transform="translate(-60.49 -6.49)" style="fill:#ebeae9"/></svg>