<svg id="Layer_1" data-name="Layer 1" xmlns="http://www.w3.org/2000/svg" viewBox="0 0 250.02 83.55"><text transform="translate(212.94 57.53)" style="font-size:66.00918579101562px;fill:#262626;font-family:CocoGothic-Bold, Coco Gothic;font-weight:700">x</text><text transform="translate(179.73 58.01)" style="font-size:66.00918579101562px;fill:#262626;font-family:CocoGothic-Bold, Coco Gothic;font-weight:700">o</text><text transform="translate(141.5 57.91)" style="font-size:66.00918579101562px;fill:#262626;font-family:CocoGothic-Bold, Coco Gothic;font-weight:700">b</text><text transform="translate(106.44 57.86)" style="font-size:66.00918579101562px;fill:#262626;font-family:CocoGothic-Bold, Coco Gothic;font-weight:700">p</text><text transform="translate(72.21 57.99)" style="font-size:66.00918579101562px;fill:#262626;font-family:CocoGothic-Bold, Coco Gothic;font-weight:700">u</text><path d="M64,55.75s-.06,0-.07.07c-.4.72-.41.71-1.25,1.14-1.33.69-2.64,1.4-4,2.09-.84.44-1.73.82-2.53,1.31s-1.85,1-2.76,1.46-1.75.86-2.58,1.35-1.81.94-2.7,1.42-1.78.89-2.64,1.39-1.81.94-2.7,1.42-1.76.85-2.59,1.35-1.85,1-2.75,1.46c-.32.17-.59.48-1,.45-.44.33-.85,0-1.28,0a9.58,9.58,0,0,0-1.93-1.07c-1-.56-2-1-3-1.56-.81-.47-1.68-.81-2.47-1.29s-1.88-1-2.81-1.49-1.72-.83-2.53-1.32c-1-.58-2-1-3-1.56s-1.78-.9-2.64-1.4S15,60,14.08,59.51s-1.75-.86-2.58-1.35S9.81,57.28,9,56.82a1.53,1.53,0,0,1-.91-1c0-.11-.07-.21-.08-.32a2.77,2.77,0,0,1,0-.41v-22a5.45,5.45,0,0,0-.68-.35c-.85-.33-1.62-.82-2.45-1.17s-1.76-.82-2.63-1.25c-.13-.07-.29-.09-.43-.15A1.52,1.52,0,0,1,1,29.26a1.77,1.77,0,0,1,.64-1.66L7.32,22c-.11-.13-.2-.25-.31-.36L2.12,16.7A3.56,3.56,0,0,1,1,15.18v-.46A1.93,1.93,0,0,1,2.35,13.4c.54-.23,1-.54,1.57-.76,1-.41,1.94-1,2.93-1.38.81-.35,1.58-.8,2.39-1.14,1-.41,1.93-1,2.93-1.38s1.75-.84,2.63-1.25,1.77-.88,2.69-1.26,1.58-.8,2.39-1.14c1-.42,1.94-1,2.93-1.38.82-.34,1.58-.8,2.39-1.14,1-.41,1.94-.95,2.93-1.38a1.5,1.5,0,0,1,2,.38c1.76,1.72,3.5,3.48,5.24,5.23a7,7,0,0,1,.49.55L36.3,7l5.44-5.43A1.63,1.63,0,0,1,43.17,1a2.8,2.8,0,0,1,.8.27c.5.24,1,.55,1.5.76,1,.41,1.93,1,2.92,1.38.82.35,1.59.8,2.4,1.14,1,.41,1.93,1,2.92,1.38.82.34,1.59.79,2.4,1.13,1,.42,1.93,1,2.92,1.38.82.35,1.59.8,2.4,1.14,1,.42,1.93,1,2.93,1.38.8.33,1.55.75,2.33,1.1,1,.46,2,.95,3,1.43.14.06.29.08.43.15a1.46,1.46,0,0,1,.83,1.47,3.18,3.18,0,0,1-1.06,1.51L65,21.45l-.47.47.46.46L70,27.31a3.12,3.12,0,0,1,.93,1.23,1.42,1.42,0,0,1-.11,1c-.09.19-.59.76-.77.77-.43,0-.72.31-1.08.45s-.68.4-1,.53c-1.07.41-2.06,1-3.1,1.45-.28.13-.56.24-.84.35Zm-2.82-1.16v-20s0,0-.06-.07-.13,0-.18,0c-.6.34-1.23.62-1.86.9-1,.42-1.93,1-2.92,1.38-.82.34-1.58.79-2.4,1.13-1,.42-1.92,1-2.92,1.38-.82.34-1.58.79-2.4,1.14-1,.41-1.92,1-2.92,1.38-.52.21-1,.51-1.5.76a2.84,2.84,0,0,1-.79.27,1.59,1.59,0,0,1-1.39-.52c-1.09-1.07-2.18-2.16-3.26-3.25L37.35,37.9v29s0,0,0,0l.08,0c.19-.12.39-.26.6-.37.86-.45,1.74-.88,2.59-1.34s1.82-.91,2.7-1.42S45.12,63,46,62.5s1.83-.9,2.7-1.42,1.74-.87,2.59-1.35,1.86-.91,2.75-1.46,1.72-.89,2.58-1.34l3.56-1.87ZM34.53,37.92,33.48,39c-1.12,1.11-2.24,2.24-3.37,3.35a1.57,1.57,0,0,1-1.38.52,2.84,2.84,0,0,1-.79-.27c-.86-.41-1.69-.87-2.56-1.25s-1.81-.91-2.76-1.28-1.69-.85-2.56-1.23-1.8-.92-2.75-1.28-1.71-.83-2.57-1.24c-1.08-.52-2.18-1-3.27-1.54l-.67-.32V54.56c.84.46,1.67.94,2.51,1.37s2,1,2.94,1.52,1.71.84,2.53,1.32,1.9.94,2.81,1.49,1.7.85,2.52,1.32,1.9.94,2.81,1.49,1.66.82,2.47,1.28c1,.57,2.09,1.06,3.1,1.64.65.38,1.36.67,2,1Zm24.6-16-.22-.17-2.62-1.26-2.7-1.25c-.9-.41-1.77-.89-2.68-1.28s-1.74-.87-2.63-1.24-1.78-.88-2.69-1.27-1.74-.85-2.63-1.25c-1.18-.52-2.34-1.11-3.5-1.66L35.94,10.9c-.83.36-1.63.83-2.49,1.18s-1.93,1-2.93,1.38c-.73.3-1.43.7-2.16,1-.95.42-1.84.93-2.81,1.31s-1.89.94-2.86,1.38-1.79.92-2.75,1.28-1.66.83-2.5,1.2-1.83,1-2.82,1.31a10.86,10.86,0,0,0-1.54.82l-.33.18c.92.37,1.67.83,2.49,1.16,1,.38,1.88.95,2.87,1.33s1.66.84,2.51,1.21,1.84.93,2.81,1.31,1.85.93,2.79,1.35,1.8.92,2.75,1.29,1.56.74,2.34,1.1,1.77.9,2.69,1.27c.68.27,1.31.65,1.91.95.79-.36,1.54-.69,2.28-1,1-.45,1.93-1,2.92-1.39.82-.34,1.58-.78,2.4-1.13,1-.44,2-.95,3-1.42l2.35-1.09,3-1.42,2.35-1.09,3-1.43Zm3.1,1.89a.45.45,0,0,0-.48,0,15,15,0,0,1-1.58.72c-.91.41-1.78.89-2.69,1.27s-1.73.87-2.63,1.25-1.77.88-2.69,1.27-1.73.87-2.63,1.24-1.77.88-2.68,1.27-1.75.84-2.63,1.25c-1.38.66-2.77,1.3-4.15,2l-1.56.75,4.84,4.83a.45.45,0,0,0,.26,0,16.1,16.1,0,0,1,1.47-.66c.87-.39,1.69-.86,2.56-1.24s1.81-.91,2.75-1.28,1.7-.85,2.57-1.23,1.8-.91,2.75-1.28,1.7-.85,2.57-1.23,1.83-.86,2.74-1.29c1.44-.7,2.9-1.35,4.32-2.07.55-.28,1.12-.51,1.63-.74ZM9.6,20.14a2.8,2.8,0,0,0,.48-.12c.43-.19.86-.4,1.29-.58,1-.4,1.84-.94,2.82-1.31s1.65-.83,2.5-1.2c1-.46,2-1,3.1-1.46.87-.32,1.66-.83,2.51-1.2s1.65-.84,2.52-1.17,1.67-.81,2.5-1.21c1.11-.52,2.21-1.06,3.33-1.56.94-.42,1.86-.89,2.78-1.33,0-.05,0-.08,0-.09L28.78,4.2a1,1,0,0,0-.59.1,12.28,12.28,0,0,1-1.52.7c-1,.4-1.84.94-2.82,1.31s-1.65.83-2.5,1.2-1.84.94-2.82,1.31S16.88,9.65,16,10s-1.84.93-2.81,1.3-1.66.83-2.5,1.21c-1,.47-2,1-3.05,1.43s-1.85.89-2.77,1.34c0,0,0,.06,0,.08ZM67,15.25l-1.24-.53c-.86-.38-1.7-.82-2.57-1.2s-1.88-1-2.86-1.38-1.77-.88-2.69-1.26S55.87,10,55,9.64s-1.76-.9-2.68-1.27S50.8,7.62,50,7.29c-1.05-.46-2.05-1-3.1-1.46s-2.13-1-3.21-1.52c-.21-.1-.38-.1-.48,0L38.49,9c.37.14.79.29,1.19.48.81.41,1.6.84,2.44,1.19S44,11.65,45,12.05s1.61.83,2.45,1.17,1.88.94,2.87,1.34c.83.34,1.6.83,2.45,1.17s1.88.95,2.86,1.35,1.62.81,2.45,1.17c1.18.52,2.33,1.11,3.5,1.67.24.11.47.26.66.08ZM4.87,28.58c.42.16.83.29,1.22.47.84.39,1.65.85,2.5,1.22s1.84.94,2.81,1.31,1.66.83,2.5,1.2,1.84.94,2.82,1.31,1.65.84,2.5,1.21,1.84.93,2.81,1.3,1.67.81,2.5,1.22c1.16.57,2.35,1.08,3.5,1.67.23.11.48.26.73.13L33.43,35s0,0,0-.07v-.08c-.35-.16-.7-.33-1.06-.47-1-.42-2-1-3-1.42-.86-.35-1.65-.86-2.51-1.21S25,30.8,24,30.41c-.76-.29-1.46-.74-2.22-1.05C20.84,29,20,28.43,19,28.05s-1.89-.95-2.85-1.38-1.82-.87-2.75-1.29c-1.08-.48-2.14-1-3.21-1.52a1.29,1.29,0,0,0-.45-.12Z" transform="translate(-0.98 0.42)" style="fill:#17bffe"/></svg>