<svg id="Layer_1" data-name="Layer 1" xmlns="http://www.w3.org/2000/svg" viewBox="0 0 467.05 467.1"><defs><style>.cls-1{fill:#010101;}.cls-2{fill:#575865;}.cls-3{fill:#fde572;}.cls-4{fill:#6d6e7f;}.cls-5{fill:#fdeea4;}.cls-6{fill:#cae1f8;}.cls-7{fill:#020202;}.cls-8{fill:#010202;}.cls-9{fill:#010102;}.cls-10{fill:#020101;}.cls-11{fill:#040302;}.cls-12{fill:#e9f2fb;}.cls-13{fill:#030303;}.cls-14{fill:#cae2f9;}.cls-15{fill:#e3ecf4;}.cls-16{fill:#e9f2fa;}.cls-17{fill:#c7def5;}.cls-18{fill:#fd6c79;}.cls-19{fill:#fc8a93;}</style></defs><path class="cls-1" d="M359.72,15.91c1.48.49,2.94,1.05,4.44,1.46,17.44,4.79,28.49,19.86,28.5,39.17q0,104.6,0,209.19c0,1.51,0,3,.06,4.55l-1.77,3.8c-3,.89-5.89,2.54-8.84,2.56-24.76.09-46.47,8.15-64.86,24.68-35.64,32.05-40.13,82.92-18.39,118.75,17.46,32,54.9,50.75,93,46.66,47.05-5.06,84.28-45.48,84.44-92.76.12-38-16.76-66.67-49.78-85.59-4.72-2.7-7.82-5.67-6.58-11.47,4.06-5.33,7-6.16,12.78-3,33.91,18.79,53.74,47.28,58.44,85.89,6.82,56-31.31,109.13-87.53,120.82a110,110,0,0,1-58.34-3.59c-3-1-6.12-1.67-9.18-2.48a28.85,28.85,0,0,0-4.1-3.05C289.18,450,265.32,405.59,271.13,358c5.65-46.24,40.55-84.5,86.06-94.17,6.46-1.37,13-2.18,19.67-3.27a12.68,12.68,0,0,0,.22-1.75q0-102.56-.1-205.09c0-8.86-4.72-15.47-12.72-19.53-3.78-.93-7.55-2.66-11.32-2.66q-144.06-.22-288.12-.1c-14.35,0-24.35,10.06-24.35,24.44q0,193.53,0,387a48.69,48.69,0,0,0,1,7.15c2.79,10.78,11.66,17.34,23.66,17.35q107.75,0,215.5,0c6.71,0,8.39,1.19,10.75,7.49-2.23,6.9-3.79,8-11.15,8H67c-21,0-34.06-9.35-40.93-29.32a7.59,7.59,0,0,0-1.17-1.7v-405a9.44,9.44,0,0,0,1.31-2.11q6.39-21.22,27.6-27.59a9.88,9.88,0,0,0,2.11-1.32Z" transform="translate(-24.91 -15.91)"/><path class="cls-2" d="M291.44,475c-2.36-6.3-4-7.49-10.75-7.49q-107.74,0-215.5,0c-12,0-20.87-6.57-23.66-17.35,3.33-.05,6.75.35,10-.24,7.41-1.37,10.78-7.13,10.78-17.61,0-119.3.17-238.61-.17-357.91-.05-18.9,17.26-31.24,31.13-31.2,86.17.26,172.34.13,258.52.13,7.83,0,10.46-1.91,12.48-9.05,8,4.06,12.69,10.67,12.72,19.53q.25,102.54.1,205.09a12.68,12.68,0,0,1-.22,1.75c-6.63,1.09-13.21,1.9-19.67,3.27-45.51,9.67-80.41,47.93-86.06,94.17-5.81,47.55,18.05,92,60.89,113.49a28.85,28.85,0,0,1,4.1,3.05c-3.58.18-7.16.52-10.74.53C314.07,475.13,302.75,475,291.44,475Zm30-322.26c8.14.34,14.91-5.28,15.53-13.19.27-3.45-.07-6.94-.14-10.41,5.89-.91,8.23-3.49,8.25-9.37,0-12,.06-24,0-36-.08-13.76-10.19-24-23.92-24q-112.43-.06-224.87,0c-13.2,0-23.59,10-23.77,23.23q-.36,27.36,0,54.73A23.38,23.38,0,0,0,96.3,160.92q107.88.08,215.75,0C317.94,160.93,320.5,158.6,321.45,152.7ZM109.76,440.13c5.93,0,11.85.1,17.77,0,10.66-.2,19.29-8.23,19.68-18.82.34-9.38.38-18.8-.06-28.18A19,19,0,0,0,129,375.32c-12.42-.33-24.87-.39-37.3,0a20,20,0,0,0-19.18,19.45c-.28,8.5-.33,17,0,25.52C73,431.69,82,440,93.36,440.14,98.82,440.19,104.29,440.15,109.76,440.13Zm99-64.92c-6.07,0-12.15-.11-18.22,0A19.93,19.93,0,0,0,170.9,395.1q-.18,12.52,0,25a20.31,20.31,0,0,0,20.16,20q17.31.17,34.62,0a20.21,20.21,0,0,0,20-20.05q.18-12.53,0-25.05a19.78,19.78,0,0,0-19.64-19.78C220.28,375.1,214.51,375.2,208.74,375.21Zm-98.42-94.08v.33c-5.62,0-11.24-.09-16.86,0-11.81.21-20.74,9-21,20.79-.15,7.9-.12,15.8,0,23.7.16,10.54,6.84,19.33,17.28,20.18a260.83,260.83,0,0,0,39.53.29c11.4-.82,17.94-9.45,18-20.84.05-8.05.09-16.1,0-24.15-.14-9.46-6.32-17.57-15.66-19.13C124.65,281.15,117.43,281.47,110.32,281.13Zm-.42-27.92h0c5.92,0,11.84.08,17.76,0a19.71,19.71,0,0,0,19.6-19.31c.19-8.65.17-17.31,0-26a19.72,19.72,0,0,0-19.77-19.62c-11.54-.12-23.08-.1-34.62,0-9.93.08-18.43,6.34-19.53,16.23a148.58,148.58,0,0,0-.28,31.27c1.12,11.15,9.56,17.35,20.87,17.43C99.27,253.24,104.58,253.21,109.9,253.21Zm98.39,94,0-.29c5.16,0,10.32.06,15.49,0,13.33-.19,21.87-8.78,21.93-22,0-7.44.05-14.88,0-22.32-.09-11.74-8.43-20.72-20-21s-23.09-.28-34.62,0-20.09,9.34-20.17,21c-.06,7.9-.08,15.8,0,23.69.11,10.24,6.85,18.56,17,20C194.6,347.15,201.49,346.93,208.29,347.23Zm.2-94.05c5.92,0,11.84.11,17.76,0,10.31-.23,19.17-8.88,19.41-19.15.21-8.79.19-17.6,0-26.4a20,20,0,0,0-19.29-19.28c-12-.2-24-.18-36,0a20.18,20.18,0,0,0-19.5,19.61q-.24,12.73,0,25.49a20.2,20.2,0,0,0,19.82,19.75C196.65,253.29,202.57,253.19,208.49,253.18Zm99.08-64.9c-5.93,0-11.86-.12-17.79,0a20.11,20.11,0,0,0-19.49,19.61q-.23,12.76,0,25.53a19.88,19.88,0,0,0,19.81,19.72q17.55.22,35.11,0A20.11,20.11,0,0,0,345,233.8c.29-8.65.27-17.33,0-26a20.24,20.24,0,0,0-20.14-19.52C319.12,188.2,313.34,188.27,307.57,188.28Z" transform="translate(-24.91 -15.91)"/><path class="cls-3" d="M391,274.08l1.77-3.8L420,276.91c-1.24,5.8,1.86,8.77,6.58,11.47,33,18.92,49.9,47.64,49.78,85.59-.16,47.28-37.39,87.7-84.44,92.76-38.09,4.09-75.53-14.69-93-46.66,6.74-1.43,10.72-6,9.61-12.05a94.33,94.33,0,0,1,1.09-38.63c6.27-27.24,21.27-48.44,44.6-63.82,9.84-6.49,20.66-10.65,31.87-14.05C393.76,289.18,396.1,280.32,391,274.08Zm-17.61,46.33c-8.31,1.85-15.56,5.1-21.32,11.15-13.29,14-9.22,35.21,8.34,43a71.13,71.13,0,0,0,10.31,3.51c8,2.2,16.22,3.85,24.13,6.4,6,1.93,8.28,6.53,7.28,12-.83,4.58-3.84,7.49-7.62,9.7a26.74,26.74,0,0,1-32.19-4.5c-3.57-3.64-8-4.11-11.33-1.2s-3.59,7.5-.37,11.38a20.82,20.82,0,0,0,5.24,5c5.49,3.1,11.21,5.8,17.5,9,0,1.81-.05,4.68,0,7.55.11,5.41,3.12,8.67,7.86,8.6,4.5-.07,7.51-3.32,7.67-8.42.09-3,0-6,0-8.61,3.82-1.4,7.24-2.3,10.32-3.86a42.59,42.59,0,0,0,9.08-5.95c15.49-13.76,11.83-37-7.19-45-5.26-2.22-11-3.28-16.55-4.84-6.11-1.73-12.44-2.89-18.3-5.24-6.76-2.71-8.59-10.51-4.09-16.26a21.88,21.88,0,0,1,7.38-5.82c10.75-5.33,24.8-1.88,30.54,5.48A7.51,7.51,0,0,0,411,344.7a7.63,7.63,0,0,0,.61-11.32,38.18,38.18,0,0,0-8.94-7.62c-4.25-2.43-9-3.94-13.8-5.93,0-1.47,0-3.13,0-4.8a41.82,41.82,0,0,0-.09-5,7.59,7.59,0,0,0-8.14-6.91,7.35,7.35,0,0,0-7.25,7.29C373.22,313.58,373.36,316.77,373.36,320.41Z" transform="translate(-24.91 -15.91)"/><path class="cls-4" d="M364.26,34.23c-2,7.14-4.65,9.05-12.48,9.05-86.18,0-172.35.13-258.52-.13-13.87,0-31.18,12.3-31.13,31.2.34,119.3.17,238.61.17,357.91,0,10.48-3.37,16.24-10.78,17.61-3.24.59-6.66.19-10,.24a48.69,48.69,0,0,1-1-7.15q-.07-193.51,0-387c0-14.38,10-24.44,24.35-24.44q144.06-.06,288.12.1C356.71,31.57,360.48,33.3,364.26,34.23Z" transform="translate(-24.91 -15.91)"/><path class="cls-5" d="M391,274.08c5.13,6.24,2.79,15.1-4.92,17.44-11.21,3.4-22,7.56-31.87,14.05-23.33,15.38-38.33,36.58-44.6,63.82A94.33,94.33,0,0,0,308.49,408c1.11,6-2.87,10.62-9.61,12.05-21.74-35.83-17.25-86.7,18.39-118.75,18.39-16.53,40.1-24.59,64.86-24.68C385.08,276.62,388,275,391,274.08Z" transform="translate(-24.91 -15.91)"/><path class="cls-6" d="M336.84,129.1c.07,3.47.41,7,.14,10.41-.62,7.91-7.39,13.53-15.53,13.19-1.58-5.93-3.46-7.31-10.14-7.31H110.16c-1.66,0-3.33-.12-5-.18q0-23.46,0-46.92c0-10,5.78-15.78,15.77-15.78q97.47,0,195-.12c4.19,0,8.39-1.72,12.58-2.64a34.05,34.05,0,0,1,1,5.68c.09,11.5,0,23,.06,34.52C329.58,125.66,331.23,127.67,336.84,129.1Zm-47.29-25.3c0,7.29-.13,14.12.05,20.94a7.77,7.77,0,0,0,7.72,7.93A7.46,7.46,0,0,0,305,125.3q.25-15,0-30c-.08-4.19-3.08-6.9-7.29-7.28-9.7-.89-14.36.8-15.55,5.66a7.79,7.79,0,0,0-.23,1.8C281.86,100.45,285,102.66,289.55,103.8Z" transform="translate(-24.91 -15.91)"/><path class="cls-1" d="M336.84,129.1c-5.61-1.43-7.26-3.44-7.28-9.16,0-11.51,0-23-.06-34.52a34.05,34.05,0,0,0-1-5.68c-1.72-4.09-5.2-4.52-9-4.52q-110.49,0-221,0c-7.79,0-10.39,2.59-10.4,10.39,0,14.57.28,29.16-.09,43.73-.4,15.51,2.41,16.84,17.16,15.84,1.67.06,3.34.18,5,.18H311.31c6.68,0,8.56,1.38,10.14,7.31-.95,5.9-3.51,8.23-9.4,8.23q-107.87,0-215.75,0a23.38,23.38,0,0,1-23.78-23.24q-.36-27.36,0-54.73c.18-13.21,10.57-23.22,23.77-23.23q112.44-.06,224.87,0c13.73,0,23.84,10.21,23.92,24,.07,12,.05,24,0,36C345.07,125.61,342.73,128.19,336.84,129.1Z" transform="translate(-24.91 -15.91)"/><path class="cls-7" d="M109.76,440.14c-5.47,0-10.94.05-16.4,0C82,440,73,431.69,72.54,420.28c-.35-8.5-.3-17,0-25.52A20,20,0,0,1,91.7,375.31c12.43-.38,24.88-.32,37.3,0a19,19,0,0,1,18.15,17.79c.44,9.38.4,18.8.06,28.18-.39,10.59-9,18.62-19.68,18.82C121.61,440.23,115.69,440.13,109.76,440.14ZM92.44,424.41c11.35.06,22.71.16,34.06.17,3.47,0,5.33-1.92,5.35-5.39,0-7.73,0-15.45,0-23.18,0-3.51-1.82-5.37-5.32-5.36-8,0-16,.12-24.06.18-2.58-.07-5.15-.23-7.73-.2-5,.05-6.6,1.58-6.65,6.47-.08,7,0,14,0,21C88.08,421.17,88.72,423.86,92.44,424.41Z" transform="translate(-24.91 -15.91)"/><path class="cls-8" d="M208.74,375.21c5.77,0,11.54-.11,17.31,0A19.78,19.78,0,0,1,245.69,395q.21,12.53,0,25.05a20.21,20.21,0,0,1-20,20.05q-17.31.18-34.62,0a20.31,20.31,0,0,1-20.16-20q-.18-12.51,0-25a19.93,19.93,0,0,1,19.62-19.87C196.59,375.1,202.67,375.21,208.74,375.21ZM201,390.85c-3-.07-6-.21-9.05-.2-3.73,0-5.51,2.05-5.52,5.69,0,7.56-.19,15.13.14,22.67.07,1.7,1.93,3.31,3,5,12.24.17,24.49.5,36.73.3,1.34,0,3.67-3,3.76-4.74.41-7.88.22-15.78.17-23.68,0-3.26-1.8-5.17-5.07-5.18C217.07,390.65,209,390.78,201,390.85Z" transform="translate(-24.91 -15.91)"/><path class="cls-7" d="M110.32,281.13c7.11.34,14.33,0,21.3,1.19,9.34,1.56,15.52,9.67,15.66,19.13.13,8.05.09,16.1,0,24.15-.09,11.39-6.63,20-18,20.84a260.83,260.83,0,0,1-39.53-.29c-10.44-.85-17.12-9.64-17.28-20.18-.12-7.9-.15-15.8,0-23.7.23-11.78,9.16-20.58,21-20.79,5.62-.11,11.24,0,16.86,0Zm-7,16.1c-3.18-.06-6.36-.22-9.53-.16-3.65.07-5.64,2.09-5.68,5.71-.08,7.58-.12,15.16,0,22.74,0,3.19,1.36,5.62,5.18,5.39,11.06.11,22.12.3,33.18.29,3.64,0,5.44-2.16,5.41-5.87q-.07-11.16,0-22.31c0-4-2-5.94-5.83-5.95C118.48,297.05,110.9,297.17,103.31,297.23Z" transform="translate(-24.91 -15.91)"/><path class="cls-7" d="M109.9,253.21c-5.32,0-10.63,0-16,0-11.31-.08-19.75-6.28-20.87-17.43a148.58,148.58,0,0,1,.28-31.27c1.1-9.89,9.6-16.15,19.53-16.23,11.54-.09,23.08-.11,34.62,0a19.72,19.72,0,0,1,19.77,19.62c.15,8.65.17,17.31,0,26a19.71,19.71,0,0,1-19.6,19.31c-5.92.1-11.84,0-17.76,0Zm-6.55-49.27-9.55-.18c-3.8-.07-5.64,2-5.7,5.6q-.16,11.38,0,22.77c0,2.74,1,5.09,4.32,5.36q17,.1,34.07.2c3.52,0,5.33-1.86,5.35-5.35q0-11.59,0-23.18c0-3.47-1.81-5.38-5.33-5.37C118.79,203.81,111.07,203.89,103.35,203.94Z" transform="translate(-24.91 -15.91)"/><path class="cls-1" d="M208.29,347.23c-6.8-.3-13.69-.08-20.4-1-10.15-1.43-16.89-9.75-17-20-.08-7.89-.06-15.79,0-23.69.08-11.65,8.59-20.71,20.17-21s23.09-.3,34.62,0,19.95,9.3,20,21c.06,7.44,0,14.88,0,22.32-.06,13.25-8.6,21.84-21.93,22-5.17.07-10.33,0-15.49,0Zm-8.23-50c-2.42-.06-4.84-.21-7.25-.15-4.6.1-6.33,1.78-6.38,6.32-.07,7.27,0,14.54,0,21.81,0,3,.84,5.43,4.44,5.64,11.51.12,23,.36,34.53.28,3.14,0,4.83-2.22,4.81-5.5q0-11.4,0-22.79c0-3.75-2-5.72-5.57-5.75C216.45,297,208.26,297.17,200.06,297.23Z" transform="translate(-24.91 -15.91)"/><path class="cls-9" d="M208.49,253.19c-5.92,0-11.84.1-17.76,0a20.2,20.2,0,0,1-19.82-19.75q-.21-12.73,0-25.49a20.18,20.18,0,0,1,19.5-19.61c12-.17,24-.19,36,0a20,20,0,0,1,19.29,19.28c.18,8.8.2,17.61,0,26.4-.24,10.27-9.1,18.92-19.41,19.15C220.33,253.29,214.41,253.18,208.49,253.19ZM201.86,204c-3.33-.06-6.66-.17-10-.16-3.5,0-5.37,1.92-5.41,5.35-.09,7.73-.08,15.48,0,23.21,0,2.87,1.3,4.92,4.5,5.14l33.63.21c3.71,0,5.61-1.89,5.62-5.59q0-11.36,0-22.73c0-3.7-1.91-5.62-5.62-5.6C217,203.81,209.44,203.89,201.86,204Z" transform="translate(-24.91 -15.91)"/><path class="cls-10" d="M307.57,188.27c5.77,0,11.55-.07,17.32,0A20.24,20.24,0,0,1,345,207.81c.26,8.66.28,17.34,0,26a20.11,20.11,0,0,1-19.82,19.35q-17.55.22-35.11,0a19.88,19.88,0,0,1-19.81-19.72q-.19-12.76,0-25.53a20.11,20.11,0,0,1,19.49-19.61C295.71,188.16,301.64,188.28,307.57,188.27Zm-7.16,15.67c-3.17-.05-6.34-.19-9.51-.13s-5.08,1.86-5.11,5.11q-.1,11.79,0,23.59c0,2.89,1.33,4.89,4.57,5q16.83.1,33.66.2c3.52,0,5.41-1.93,5.46-5.32q.18-11.61,0-23.21c-.05-3.39-1.92-5.37-5.44-5.37C316.18,203.8,308.29,203.89,300.41,203.94Z" transform="translate(-24.91 -15.91)"/><path class="cls-11" d="M373.36,320.41c0-3.64-.14-6.83,0-10a7.35,7.35,0,0,1,7.25-7.29,7.59,7.59,0,0,1,8.14,6.91,41.82,41.82,0,0,1,.09,5c0,1.67,0,3.33,0,4.8,4.77,2,9.55,3.5,13.8,5.93a38.18,38.18,0,0,1,8.94,7.62A7.63,7.63,0,0,1,411,344.7a7.51,7.51,0,0,1-10.94-1.21c-5.74-7.36-19.79-10.81-30.54-5.48a21.88,21.88,0,0,0-7.38,5.82c-4.5,5.75-2.67,13.55,4.09,16.26,5.86,2.35,12.19,3.51,18.3,5.24,5.54,1.56,11.29,2.62,16.55,4.84,19,8.06,22.68,31.27,7.19,45a42.59,42.59,0,0,1-9.08,5.95c-3.08,1.56-6.5,2.46-10.32,3.86,0,2.64.08,5.63,0,8.61-.16,5.1-3.17,8.35-7.67,8.42-4.74.07-7.75-3.19-7.86-8.6-.06-2.87,0-5.74,0-7.55-6.29-3.19-12-5.89-17.5-9a20.82,20.82,0,0,1-5.24-5c-3.22-3.88-3-8.46.37-11.38s7.76-2.44,11.33,1.2a26.74,26.74,0,0,0,32.19,4.5c3.78-2.21,6.79-5.12,7.62-9.7,1-5.49-1.3-10.09-7.28-12-7.91-2.55-16.1-4.2-24.13-6.4a71.13,71.13,0,0,1-10.31-3.51c-17.56-7.83-21.63-29.06-8.34-43C357.8,325.51,365.05,322.26,373.36,320.41Z" transform="translate(-24.91 -15.91)"/><path class="cls-12" d="M105.16,145.2c-14.75,1-17.56-.33-17.16-15.84.37-14.57.06-29.16.09-43.73,0-7.8,2.61-10.39,10.4-10.39q110.47,0,221,0c3.82,0,7.3.43,9,4.52-4.19.92-8.39,2.63-12.58,2.64q-97.47.25-194.95.12c-10,0-15.76,5.79-15.77,15.78Q105.17,121.74,105.16,145.2Z" transform="translate(-24.91 -15.91)"/><path class="cls-13" d="M289.55,103.8c-4.56-1.14-7.69-3.35-7.61-8.37a7.79,7.79,0,0,1,.23-1.8c1.19-4.86,5.85-6.55,15.55-5.66,4.21.38,7.21,3.09,7.29,7.28q.25,15,0,30.05a7.46,7.46,0,0,1-7.69,7.37,7.77,7.77,0,0,1-7.72-7.93C289.42,117.92,289.55,111.09,289.55,103.8Z" transform="translate(-24.91 -15.91)"/><path class="cls-14" d="M102.47,390.83c8-.06,16-.16,24.06-.18,3.5,0,5.31,1.85,5.32,5.36,0,7.73,0,15.45,0,23.18,0,3.47-1.88,5.39-5.35,5.39-11.35,0-22.71-.11-34.06-.17.6-5.64,1.74-11.29,1.67-16.93C94,400.25,95.47,394.28,102.47,390.83Z" transform="translate(-24.91 -15.91)"/><path class="cls-15" d="M102.47,390.83c-7,3.45-8.45,9.42-8.36,16.65.07,5.64-1.07,11.29-1.67,16.93-3.72-.55-4.36-3.24-4.37-6.33,0-7-.06-14,0-21,0-4.89,1.67-6.42,6.65-6.47C97.32,390.6,99.89,390.76,102.47,390.83Z" transform="translate(-24.91 -15.91)"/><path class="cls-14" d="M201,390.85c8-.07,16.08-.2,24.12-.17,3.27,0,5,1.92,5.07,5.18,0,7.9.24,15.8-.17,23.68-.09,1.71-2.42,4.72-3.76,4.74-12.24.2-24.49-.13-36.73-.3,1.08-1.93,2.82-3.76,3.09-5.79a48.07,48.07,0,0,0,.08-11.31C192,399.62,194.43,394.23,201,390.85Z" transform="translate(-24.91 -15.91)"/><path class="cls-16" d="M201,390.85c-6.56,3.38-9,8.77-8.3,16a48.07,48.07,0,0,1-.08,11.31c-.27,2-2,3.86-3.09,5.79-1-1.66-2.89-3.27-3-5-.33-7.54-.16-15.11-.14-22.67,0-3.64,1.79-5.68,5.52-5.69C195,390.64,198,390.78,201,390.85Z" transform="translate(-24.91 -15.91)"/><path class="cls-17" d="M103.31,297.23c7.59-.06,15.17-.18,22.75-.16,3.84,0,5.85,2,5.83,5.95q-.06,11.14,0,22.31c0,3.71-1.77,5.86-5.41,5.87-11.06,0-22.12-.18-33.18-.29.32-6,1.11-12.05.83-18C93.79,305.4,96.72,300.37,103.31,297.23Z" transform="translate(-24.91 -15.91)"/><path class="cls-15" d="M103.31,297.23c-6.59,3.14-9.52,8.17-9.18,15.64.28,6-.51,12-.83,18-3.82.23-5.13-2.2-5.18-5.39-.14-7.58-.1-15.16,0-22.74,0-3.62,2-5.64,5.68-5.71C97,297,100.13,297.17,103.31,297.23Z" transform="translate(-24.91 -15.91)"/><path class="cls-14" d="M103.35,203.94c7.72-.05,15.44-.13,23.17-.15,3.52,0,5.31,1.9,5.33,5.37q.06,11.6,0,23.18c0,3.49-1.83,5.36-5.35,5.35q-17-.08-34.07-.2c.61-5.44,2-10.92,1.63-16.29C93.52,213.14,96.26,207.55,103.35,203.94Z" transform="translate(-24.91 -15.91)"/><path class="cls-15" d="M103.35,203.94c-7.09,3.61-9.83,9.2-9.29,17.26.37,5.37-1,10.85-1.63,16.29-3.32-.27-4.28-2.62-4.32-5.36q-.17-11.38,0-22.77c.06-3.57,1.9-5.67,5.7-5.6Z" transform="translate(-24.91 -15.91)"/><path class="cls-17" d="M200.06,297.23c8.2-.06,16.39-.21,24.59-.14,3.58,0,5.58,2,5.57,5.75q0,11.4,0,22.79c0,3.28-1.67,5.48-4.81,5.5-11.51.08-23-.16-34.53-.28.63-4.28,1.92-8.58,1.75-12.82C192.29,309.94,192.54,302.37,200.06,297.23Z" transform="translate(-24.91 -15.91)"/><path class="cls-16" d="M200.06,297.23c-7.52,5.14-7.77,12.71-7.44,20.8.17,4.24-1.12,8.54-1.75,12.82-3.6-.21-4.43-2.65-4.44-5.64,0-7.27-.07-14.54,0-21.81,0-4.54,1.78-6.22,6.38-6.32C195.22,297,197.64,297.17,200.06,297.23Z" transform="translate(-24.91 -15.91)"/><path class="cls-14" d="M201.86,204c7.58-.06,15.15-.14,22.72-.17,3.71,0,5.6,1.9,5.62,5.6q0,11.37,0,22.73c0,3.7-1.91,5.61-5.62,5.59L191,237.49c.6-6.25,1.74-12.51,1.67-18.76C192.54,211.51,194.84,206.42,201.86,204Z" transform="translate(-24.91 -15.91)"/><path class="cls-16" d="M201.86,204c-7,2.47-9.32,7.56-9.24,14.78.07,6.25-1.07,12.51-1.67,18.76-3.2-.22-4.47-2.27-4.5-5.14-.08-7.73-.09-15.48,0-23.21,0-3.43,1.91-5.35,5.41-5.35C195.2,203.78,198.53,203.89,201.86,204Z" transform="translate(-24.91 -15.91)"/><path class="cls-18" d="M300.41,203.94c7.88-.05,15.77-.14,23.65-.15,3.52,0,5.39,2,5.44,5.37q.17,11.6,0,23.21c-.05,3.39-1.94,5.33-5.46,5.32q-16.83-.08-33.66-.2c.31-5.52,1.1-11.07.83-16.57C290.81,213.17,293.4,207.46,300.41,203.94Z" transform="translate(-24.91 -15.91)"/><path class="cls-19" d="M300.41,203.94c-7,3.52-9.6,9.23-9.21,17,.27,5.5-.52,11.05-.83,16.57-3.24-.09-4.55-2.09-4.57-5q-.12-11.81,0-23.59c0-3.25,1.86-5,5.11-5.11S297.24,203.89,300.41,203.94Z" transform="translate(-24.91 -15.91)"/></svg>