<svg id="Layer_1" data-name="Layer 1" xmlns="http://www.w3.org/2000/svg" viewBox="0 0 128.65 131.77"><path d="M179.13,118.19l.75.94v1.35c-.87,1.6-1.64,3.18-2.57,4.66s-1.6,2.86-2.49,4.25c-.55.86-1,1.81-1.49,2.72a11.94,11.94,0,0,1-2.74,3.74A7.51,7.51,0,0,1,166,138c-.07,0-.14.16-.21.25h-3.34c-.48-.54-1.21-.49-1.81-.74a11.36,11.36,0,0,1-3.84-2.77c-.64-1.06-1.5-1.94-2.22-2.94-1-1.46-2.25-2.81-3.28-4.3a6.41,6.41,0,0,0-.82-.83H88.32c-4.59,0-9.18,0-13.76,0a13.1,13.1,0,0,1-4.31-.79,9.63,9.63,0,0,1-3.94-2.3,17.43,17.43,0,0,1-2.19-2.43,17.09,17.09,0,0,1-1.84-4.65,12.68,12.68,0,0,1-.21-3.12q0-35.84,0-71.66a13.07,13.07,0,0,1,1.24-5.39,15.29,15.29,0,0,1,3.11-4.5Q77.23,21.08,88,10.29A17.47,17.47,0,0,1,93.59,7c1.36-.08,2.65-.54,4-.54,19.3,0,38.6,0,57.89,0a10.77,10.77,0,0,1,4.12.91,16,16,0,0,1,3.21,1.9,11.66,11.66,0,0,1,4.23,7.13,21.38,21.38,0,0,1,.22,4.79q0,40.45,0,80.91v1.27l.16.06c.41-.76.79-1.55,1.26-2.29.92-1.45,1.67-3,2.6-4.46.51-.79.89-1.69,1.37-2.51a8.87,8.87,0,0,1,4.7-4.24,5.09,5.09,0,0,1,2.7-.64,2.14,2.14,0,0,0,.59-.12c.16,0,.32-.15.46-.12,1.59.37,3.24.39,4.72,1.36a12.17,12.17,0,0,1,2.56,2.16,8.53,8.53,0,0,1,2.08,4.28,16.07,16.07,0,0,1,.21,2.48,10.18,10.18,0,0,1-.77,3,41,41,0,0,1-2.75,5c-.63,1-1.07,2-1.63,3.05-.69,1.26-1.38,2.53-2.14,3.74-.22.36-.69.57-1.12.91l-1.62-.32-.75-1.15v-1.15c.22-.4.37-.64.49-.9.56-1.14,1.22-2.24,1.85-3.34s1.32-2.29,2-3.42c.57-1,1.13-1.94,1.66-2.91a6.57,6.57,0,0,0,.92-2.84,5.9,5.9,0,0,0-.92-3.34,4.91,4.91,0,0,0-4.18-2.56c-.56,0-1.12,0-1.68,0a2.69,2.69,0,0,0-.81.21A7.18,7.18,0,0,0,175.54,97c-.14.24-.16.55-.32.77-.83,1.13-1.36,2.44-2.09,3.64-.56.92-1,1.91-1.56,2.82-1,1.67-1.94,3.41-3,5.08-.51.84-.83,1.81-1.39,2.63-1,1.43-1.65,3-2.57,4.36a5.23,5.23,0,0,0-.71.35c-.71.52-1.3.19-1.88-.24a2.81,2.81,0,0,1-.54-.55c-.71-.94-1.36-1.94-2.11-2.85-1.22-1.49-2.41-3-3.55-4.57a4.88,4.88,0,0,0-2.41-1.6c-1.18-.42-2.34-.11-3.51-.22-.05,0-.11.15-.18.16a4.78,4.78,0,0,0-3.19,2.46,5.11,5.11,0,0,0-.83,3.48,5.9,5.9,0,0,0,1.45,3.25,10.38,10.38,0,0,1,1.28,1.53c1.21,1.85,2.68,3.51,4,5.27.69.92,1.43,1.83,2.13,2.74,1.13,1.45,2.23,2.93,3.4,4.36.18.22.3.48.46.71a5.77,5.77,0,0,0,.6.78,10.86,10.86,0,0,0,2.47,2.31,5.13,5.13,0,0,0,4.35.46A5.33,5.33,0,0,0,169,131.9l1.5-2.6c1-1.66,1.76-3.41,2.79-5S175,121,176,119.51c.41-.62.7-1.27,1.6-1.57A2.18,2.18,0,0,1,179.13,118.19Zm-15.69-7.33V18.67a2.54,2.54,0,0,0,0-.39c-.14-.67-.25-1.35-.42-2a7.44,7.44,0,0,0-2.08-3.39,8.1,8.1,0,0,0-6-2.51q-27.15,0-54.29,0a6.78,6.78,0,0,0-3.5.89,4.83,4.83,0,0,0-2.62,4.28c0,3.82,0,7.63,0,11.45a7.18,7.18,0,0,1-.3,2.32c-.25.67-.33,1.38-.65,2a22.56,22.56,0,0,1-1.11,2A12.57,12.57,0,0,1,88,37.4a11.41,11.41,0,0,1-5.55,1.5c-3.81.12-7.63,0-11.44,0a4.65,4.65,0,0,0-2,.51A6.15,6.15,0,0,0,65.9,44.6q0,24.63,0,49.27c0,3.82,0,7.64,0,11.45s-.27,7.66.25,11.38c.2.35.49.63.48.91a2.78,2.78,0,0,0,.92,1.8,8.76,8.76,0,0,0,6.94,3.39q36,0,71.91,0h1.1c-1.17-1.55-2.19-3.07-3.37-4.45a10.22,10.22,0,0,1-2.33-6.25c0-.46,0-.92,0-1.39-.7,0-1.29,0-1.89,0a1.69,1.69,0,0,1-1.33-.53l-.63-.63v-1.38a1.81,1.81,0,0,1,2.07-1.34c1.18.05,2.37,0,3.54,0a4.44,4.44,0,0,1,.48-.81,12,12,0,0,1,3.64-2.69,17.16,17.16,0,0,1,3.76-.85c.35-.09.78.2,1.17.22a8.81,8.81,0,0,1,5.32,2.39c1.54,1.35,2.48,3.22,3.91,4.68a8.41,8.41,0,0,1,.83,1.32c0,.06.14.07.3.15Zm-95-75.53c.33,0,.64.1.82,0a3.14,3.14,0,0,1,1.83-.24c3.64,0,7.28,0,10.92,0a6.72,6.72,0,0,0,2.33-.28c2.11-.79,4-1.85,5.11-4a9.86,9.86,0,0,0,1.19-4.52V15.57A2.8,2.8,0,0,1,90.85,14c.12-.18,0-.53,0-.85C89.78,13.8,72.21,31.25,68.42,35.33Z" transform="translate(-62.06 -6.49)" style="fill:#020303"/><path d="M179.13,118.19a2.18,2.18,0,0,0-1.51-.25c-.9.3-1.19,1-1.6,1.57-1,1.53-1.77,3.23-2.78,4.78s-1.83,3.35-2.79,5l-1.5,2.6a5.33,5.33,0,0,1-3.06,2.23,5.13,5.13,0,0,1-4.35-.46,10.86,10.86,0,0,1-2.47-2.31,5.77,5.77,0,0,1-.6-.78c-.16-.23-.28-.49-.46-.71-1.17-1.43-2.27-2.91-3.4-4.36-.7-.91-1.44-1.82-2.13-2.74-1.34-1.76-2.81-3.42-4-5.27a10.38,10.38,0,0,0-1.28-1.53,5.9,5.9,0,0,1-1.45-3.25,5.11,5.11,0,0,1,.83-3.48,4.78,4.78,0,0,1,3.19-2.46c.07,0,.13-.17.18-.16,1.17.11,2.33-.2,3.51.22a4.88,4.88,0,0,1,2.41,1.6c1.14,1.56,2.33,3.08,3.55,4.57.75.91,1.4,1.91,2.11,2.85a2.81,2.81,0,0,0,.54.55c.58.43,1.17.76,1.88.24a5.23,5.23,0,0,1,.71-.35c.92-1.34,1.6-2.93,2.57-4.36.56-.82.88-1.79,1.39-2.63,1-1.67,1.94-3.41,3-5.08.56-.91,1-1.9,1.56-2.82.73-1.2,1.26-2.51,2.09-3.64.16-.22.18-.53.32-.77a7.18,7.18,0,0,1,3.72-3.56,2.69,2.69,0,0,1,.81-.21c.56,0,1.12,0,1.68,0a4.91,4.91,0,0,1,4.18,2.56,5.9,5.9,0,0,1,.92,3.34,6.57,6.57,0,0,1-.92,2.84c-.53,1-1.09,2-1.66,2.91-.68,1.13-1.34,2.28-2,3.42s-1.29,2.2-1.85,3.34c-.12.26-.27.5-.49.9v1.15l.75,1.15a3.34,3.34,0,0,1-.74,1.62A4.9,4.9,0,0,0,179.13,118.19Z" transform="translate(-62.06 -6.49)" style="fill:#b1e39d"/><path d="M68.42,35.33C72.21,31.25,89.78,13.8,90.8,13.14c0,.32.17.67,0,.85a2.8,2.8,0,0,0-.23,1.58V26.24a9.86,9.86,0,0,1-1.19,4.52c-1.09,2.17-3,3.23-5.11,4a6.72,6.72,0,0,1-2.33.28c-3.64,0-7.28,0-10.92,0a3.14,3.14,0,0,0-1.83.24C69.06,35.43,68.75,35.33,68.42,35.33Z" transform="translate(-62.06 -6.49)" style="fill:#e1f2fb"/><path d="M89.67,70.07l-1.33-1V67.33l1.1-1.1H160c.88.27,1.23,1,1.45,2l-.61,1.28-1.18.6Z" transform="translate(-62.06 -6.49)" style="fill:#020203"/><path d="M125.12,76.76l1.19.6c.83,1.86.83,1.86-.43,3.13a7.49,7.49,0,0,1-3.44.38q-16.53,0-33,0c-2.11,0-4.24.29-6.5-.36l-.75-1V77.86a6.61,6.61,0,0,1,.71-.65,1.7,1.7,0,0,1,1.22-.45c.21,0,.43,0,.64,0Z" transform="translate(-62.06 -6.49)" style="fill:#070707"/><path d="M125.74,106.87c1.4,1.39,1.4,1.39.69,3.07-.94.94-2,.78-3,.78q-19.35,0-38.68,0a2.81,2.81,0,0,1-2.55-1.18v-1.47c.34-1,1.08-1.24,2-1.24Q105,106.88,125.74,106.87Z" transform="translate(-62.06 -6.49)" style="fill:#050505"/><path d="M126.14,87.14a8.39,8.39,0,0,1,.66,1.26,1.44,1.44,0,0,1,0,.94,1.87,1.87,0,0,1-1.86,1.32H83.34l-.8-.6c-.58-.59-.37-1.37-.42-2.09.22-.22.44-.43.65-.65a1.62,1.62,0,0,1,1.33-.52h.25q20.06,0,40.09,0A12.54,12.54,0,0,1,126.14,87.14Z" transform="translate(-62.06 -6.49)" style="fill:#040404"/><path d="M125.49,96.83l1,.75.4,1.27-.68,1.33a2,2,0,0,1-1.73.51h-41l-1.39-1.06v-1.7l1.33-1.1Z" transform="translate(-62.06 -6.49)" style="fill:#020202"/><path d="M78.78,45.7l1.06-1.33h1.69c.73.45.71.47,1.63,1.85,1.33,2,2.7,3.94,4,5.9a7.11,7.11,0,0,0,.58.6V51.34c0-1.42,0-2.83,0-4.24A2.78,2.78,0,0,1,89,44.35h1.79l.84,1.14a9.24,9.24,0,0,0,0,2.17,26.57,26.57,0,0,1,.21,5.42c.06,1.84,0,3.68,0,5.53a2.33,2.33,0,0,1-1.52,2.3,1.15,1.15,0,0,1-.32.15c-.3,0-.6,0-.77,0a4.05,4.05,0,0,1-1.59-1.44c-1.15-1.61-2.29-3.23-3.34-4.92-.47-.74-1.08-1.4-1.73-2.24v2.67c0,1.28,0,2.57,0,3.85a1.79,1.79,0,0,1-1.35,2.08H79.89c-.11-.12-.24-.29-.39-.44a2.23,2.23,0,0,1-.73-1.76C78.8,54.5,78.78,50.13,78.78,45.7Z" transform="translate(-62.06 -6.49)" style="fill:#050505"/><path d="M114.9,44.38a5.74,5.74,0,0,1,3.23.49,5.2,5.2,0,0,1,1.46.8,8.6,8.6,0,0,1,3.34,4.62,6.44,6.44,0,0,1,.34,1.9c0,.6.26,1.27-.23,1.82a4.61,4.61,0,0,1-.72,2.52,9.17,9.17,0,0,1-4.77,4.21,7.07,7.07,0,0,1-1.8.32,8.81,8.81,0,0,1-.89,0,6.66,6.66,0,0,1-3.14-.5,9.33,9.33,0,0,1-2.54-1.63,8.16,8.16,0,0,1-2.36-3.5A8.62,8.62,0,0,1,110,45.65a9.23,9.23,0,0,1,2.82-1.24A8.22,8.22,0,0,1,114.9,44.38Zm1.15,3.82h-2.66a6,6,0,0,0-2.45,2.15,3.77,3.77,0,0,0-.71,3.14c.72,2.38,2.18,3.74,4.51,3.74a4.65,4.65,0,0,0,2.75-.82,5,5,0,0,0,1.87-3.07,3.47,3.47,0,0,0-.21-2.16A5.09,5.09,0,0,0,116.05,48.2Z" transform="translate(-62.06 -6.49)" style="fill:#040404"/><path d="M148,17.61c1.32.56,2.76.94,3.07,2.75-.19.67-.37,1.52-1.39,1.79a2.67,2.67,0,0,1-2.18-.45c-.7-.48-1.48-.15-2.18-.29a1.93,1.93,0,0,0-.66,1.7c.2.12.41.25.62.36a7.42,7.42,0,0,0,1.47.78,12.26,12.26,0,0,1,2.94,1.3,4.72,4.72,0,0,1,2.19,2.94,6.34,6.34,0,0,1,.24,1.57,5.79,5.79,0,0,1-2.71,4.77c-.43.28-.85.59-1.38,1v.93l-.79,1.07-1.07.34-1-.35a2.4,2.4,0,0,1-1-1.76c-.82-.41-1.62-.86-2.46-1.18a2.21,2.21,0,0,1-1.11-1,1.21,1.21,0,0,1,0-1.58,1.43,1.43,0,0,0,.24-.56,2.24,2.24,0,0,1,3.17-.1,2.07,2.07,0,0,0,1.39.36c.51-.05,1,0,1.5,0a2.72,2.72,0,0,0,1.43-2.4A4.85,4.85,0,0,0,146,28.1,11,11,0,0,1,142.09,26a4.93,4.93,0,0,1,0-6.76,6.8,6.8,0,0,1,.93-.85,6.27,6.27,0,0,1,.94-.46,5.64,5.64,0,0,1,.42-1.42,5.34,5.34,0,0,1,1.06-1h1.37L148,16.75Z" transform="translate(-62.06 -6.49)" style="fill:#050505"/><path d="M144.11,55.4c1.34.51,1.71,1.43,1.53,2.87-.14.11-.63.32-.68.61-.08.52-.55.42-.77.69A5.67,5.67,0,0,1,142,60.8a3.34,3.34,0,0,1-1.69.27c-.43,0-.86,0-1.29,0a7.75,7.75,0,0,1-4.36-1.58A7.94,7.94,0,0,1,132,56.33a6,6,0,0,1-.77-3.15,5.08,5.08,0,0,0,0-.78,6.66,6.66,0,0,1,.95-3.72,7.86,7.86,0,0,1,2.6-2.9,7,7,0,0,1,4.42-1.44c.39,0,.78,0,1.16,0a6.06,6.06,0,0,1,4,1.44,1.58,1.58,0,0,0,.38.15c.5.59.34,1.36.36,2.18l-1.28,1.07c-1.25.25-2-.56-3.06-.94a4.81,4.81,0,0,0-4.46,1.22,4.22,4.22,0,0,0-1.24,2.82,4.27,4.27,0,0,0,1.06,3.3c1.2,1.27,2,1.75,4.36,1.63a5.59,5.59,0,0,0,2.09-1.45c.09-.11.29-.13.43-.19s.21-.15.32-.16C143.69,55.39,144,55.4,144.11,55.4Z" transform="translate(-62.06 -6.49)" style="fill:#040404"/><path d="M155.41,54.67h-3.27V57.2c1.07,0,2.13,0,3.19,0a1.91,1.91,0,0,1,2,1.24c0,.07.15.12.15.19,0,.42,0,.85,0,1.26L156.39,61h-6.85l-1.27-1.27v-14A2.37,2.37,0,0,1,150,44.34h5.55a1.69,1.69,0,0,1,1.72,1.13c0,.11.16.19.25.29v1.31l-.63.6a1.75,1.75,0,0,1-1.32.53c-1.11,0-2.23,0-3.4,0v2.55h3.16a2.72,2.72,0,0,1,1.92,2.07C156.89,53.47,156.76,54.35,155.41,54.67Z" transform="translate(-62.06 -6.49)" style="fill:#020202"/><path d="M93.4,45.29l.94-.94H96.1c1.2.75,1.3,2.08,1.72,3.24.72,2,1.43,4,2.16,6.1,1.07-3,1.86-6,3-8.74.73-.78,1.56-.58,2.55-.62a3.68,3.68,0,0,0,.35.5,1.81,1.81,0,0,1,.45,2.08c-.55,1.65-1.07,3.33-1.63,5s-1,3.33-1.72,4.94a12.38,12.38,0,0,0-.77,2.37,2.46,2.46,0,0,1-1.57,1.86h-.75a2.06,2.06,0,0,1-2.09-1.53c-.83-2.61-1.76-5.19-2.63-7.78-.49-1.46-1-2.94-1.54-4.37C93.37,46.64,93.62,46,93.4,45.29Z" transform="translate(-62.06 -6.49)" style="fill:#040404"/><path d="M73.21,44.35H74.6l1.1,1.33c0,4.27,0,8.46,0,12.66a2.73,2.73,0,0,1-1.28,2.72H72.88l-1-1c0-4.61,0-9.1,0-13.59C71.82,45.48,72,44.7,73.21,44.35Z" transform="translate(-62.06 -6.49)" style="fill:#030304"/><path d="M128.21,61.06h-1.55l-1-1c0-4.61,0-9.1,0-13.59,0-1,.16-1.73,1.38-2.08h1.4l1.09,1.33c0,4.27,0,8.46,0,12.66A2.74,2.74,0,0,1,128.21,61.06Z" transform="translate(-62.06 -6.49)" style="fill:#030304"/><path d="M69.38,70.07l-1.13-.83c-.36-1.91-.26-2.17,1.16-3,4.32,0,8.69,0,13.06,0a2.1,2.1,0,0,1,2,1.5,1.89,1.89,0,0,1-1.25,2.19,2.6,2.6,0,0,1-.83.16Z" transform="translate(-62.06 -6.49)" style="fill:#040404"/><path d="M138,79.57l-.27-.77.38-1.06,1.2-1c1.79,0,3.5,0,5.21,0a2.76,2.76,0,0,1,2.7,1.24v1.35c-.44,1.31-1.5,1.45-2.48,1.52a40,40,0,0,1-4.24,0,11.51,11.51,0,0,1-1.65-.29Z" transform="translate(-62.06 -6.49)" style="fill:#070707"/><path d="M138,87.94c.18-.17.37-.34.54-.53a2,2,0,0,1,1.54-.62c1.62,0,3.25,0,4.87,0a2.36,2.36,0,0,1,2,.82,2.36,2.36,0,0,0,.35.31V89.5l-1.13,1.12H139l-1-1Z" transform="translate(-62.06 -6.49)" style="fill:#040405"/><path d="M138,99.53c0-.73-.13-1.46.3-2l.93-.63H146L147.22,98v1.56l-.55.55a2,2,0,0,1-1.54.61c-2,0-4,0-6,0Z" transform="translate(-62.06 -6.49)" style="fill:#030303"/><path d="M116.05,48.2a5.09,5.09,0,0,1,3.1,3,3.47,3.47,0,0,1,.21,2.16,5,5,0,0,1-1.87,3.07,4.65,4.65,0,0,1-2.75.82c-2.33,0-3.79-1.36-4.51-3.74a3.77,3.77,0,0,1,.71-3.14,6,6,0,0,1,2.45-2.15Z" transform="translate(-62.06 -6.49)" style="fill:#f0f7fb"/></svg>