<svg id="Layer_1" data-name="Layer 1" xmlns="http://www.w3.org/2000/svg" viewBox="0 0 496 496"><defs><style>.cls-1{fill:#040302;}.cls-2{fill:#060606;}.cls-3{fill:#4d4d4d;}.cls-4{fill:#fd4949;}.cls-5{fill:#e4343e;}.cls-6{fill:#0b0b0b;}.cls-7{fill:#0a0a0a;}.cls-8{fill:#080808;}.cls-9{fill:#070707;}.cls-10{fill:#050505;}.cls-11{fill:#fd494a;}.cls-12{fill:#fcb924;}.cls-13{fill:#fbd754;}.cls-14{fill:#fcd855;}.cls-15{fill:#e4333e;}.cls-16{fill:#fbb824;}.cls-17{fill:#f9d553;}.cls-18{fill:#040202;}</style></defs><path class="cls-1" d="M199.14,378.48c3.74,5.12,3.81,7.49-.2,12.43-9.46,11.64-19,23.18-28.49,34.69,6.77,3,13.94,5.85,20.85,9.27A35.43,35.43,0,0,1,207,449.46c5.08,9.22,2.79,20-5.84,28-9.9,9.2-22.29,13.39-35,16.44-8.27,2-16.82,2.79-25.24,4.18-.5.08-.94.59-1.41.91H106.59c-3-.65-6-1.45-9.1-1.92-14.57-2.22-28.8-5.55-41.76-12.86A48.85,48.85,0,0,1,46.05,477c-12.17-11.58-10.84-27.7,4-37.85,8.34-5.72,18-9.57,27.1-14.31-.52-.6-1.7-1.89-2.79-3.26-12.41-15.66-25.57-30.79-37-47.13-15.34-21.89-26.53-46-32-72.38C4.07,296.06,3.08,290,2,283.91V261.63c1.51-6.48,2.72-13,4.59-19.42,13.1-44.54,41.87-74,86.68-85.9,63.17-16.74,126.17,18.46,146.45,80.79,8.94,27.5,7.4,55.2-2.17,82.15-5.14,14.48-12.34,28.25-19,42.18-2.82,6-5.16,6.6-11.78,5.07-3.61-3.85-3.51-7.75-.86-12.25,8.78-14.91,15.88-30.59,20.3-47.38,8.5-32.26,5.72-63.06-12.83-91.4-15.58-23.79-37.22-39.36-65.19-45.68l-2.3-.47-1.53-.49a93.37,93.37,0,0,0-34.62-1.14c-41.08,6.56-69.9,29-85.6,67.54-11.56,28.35-8.65,56.83,1.4,85,9.57,26.74,25,50.05,42.66,72a371.81,371.81,0,0,0,47.89,49.69l7.55,6.93c1.35-1.1,2.49-2,3.56-2.9,22.06-19.21,42.34-40.12,59.93-63.55C190.34,378.14,193.93,376.08,199.14,378.48ZM58,451.38c-7.49,6.15-7.8,11.8.51,16.83a101.46,101.46,0,0,0,24.91,11.12c22.36,6.21,45.26,6.48,68.08,2.89,13.19-2.08,26.24-5.27,37.32-13.46,8.3-6.13,8.31-11.56.14-18s-18.08-9.51-28.13-11.72a7.6,7.6,0,0,0-5.75,1.52c-9.18,7.8-18.13,15.87-27.16,23.85l-7.44.61c-9.28-8.19-18.52-16.4-27.85-24.51-1.1-1-2.84-2.21-4-2C77.72,441.05,66.8,443.74,58,451.38Z" transform="translate(-1.97 -2.97)"/><path class="cls-1" d="M318.92,70.84c-4.83-3.78-5.61-6.45-3-12,14.56-30.41,38.53-48.54,71.62-54.76A15.65,15.65,0,0,0,390.44,3h22.28c.31.3.6.83.94.86C453.18,7.76,487,38.46,495.47,77.72q1.25,5.75,2.5,11.47v20.34c-1.32,5.52-2.53,11.07-4,16.56-6.43,24.39-18.8,45.73-34.11,65.48-5.91,7.62-12.23,14.9-18.49,22.49,4.6,2.07,9.24,3.83,13.54,6.2a40.93,40.93,0,0,1,8.87,6.6c8.74,8.66,8.6,20-.15,28.63-7,6.91-15.84,10.52-25.09,12.83-26.85,6.69-53.59,6.59-80-2.67-7.39-2.6-14.15-6.29-19.15-12.52-6.32-7.88-6.55-18.13.9-24.9,5.55-5.06,12.79-8.29,19.32-12.26a29.2,29.2,0,0,1,4.29-1.71c-6.31-7.65-12.6-14.9-18.47-22.47-15.72-20.27-28.64-42.09-34.55-67.34-1.93-8.26-2.63-16.84-3.43-25.31-.46-4.83,2-7.12,7.47-8.3,4.75.76,6.84,3.69,7,8.35a106.12,106.12,0,0,0,7,34.92c13.83,35.41,37.64,63.5,65.22,88.82l8.28,7.66a314.09,314.09,0,0,0,50.22-53.83c12-16.51,21.87-34.19,27-54.13,7-27,3.48-52.22-14.1-74.43-12.53-15.82-28.74-26.08-49.08-29C403,15.86,389.69,17.63,376.77,22c-21.63,7.3-37.31,21.57-47.08,42.2C327.44,68.94,324.52,71.88,318.92,70.84ZM416.27,238.3c-2.87,2.32-5.71,4.67-8.61,6.95-3.36,2.64-6.78,2.64-10.14,0-2.89-2.29-5.74-4.63-8.61-7-3.59-3.4-7.11-6.88-10.82-10.13-.93-.82-2.7-1.57-3.72-1.25-5.11,1.64-10.09,3.65-15.12,5.53a41.22,41.22,0,0,0-5.88,3.13c-5,3.75-5.2,7.15-.13,10.73a50.54,50.54,0,0,0,12.33,6.4c17.52,6.11,35.7,7.09,53.84,4.4,9.55-1.42,18.89-4.77,28.09-8,3.72-1.29,9-4.08,7.58-8.58-1-3.33-6-5.47-9.16-8.14C433.27,225,430,225.28,419.6,234.9,418.44,236,417.38,237.16,416.27,238.3Z" transform="translate(-1.97 -2.97)"/><path class="cls-2" d="M498,409.84c-1,2.77-2.14,5.49-3,8.3-1.65,5.29-5.12,7.65-9.56,6.33-4.1-1.21-5.82-5-4.58-10.17.56-2.33,1.2-4.65,1.9-6.95,1.06-3.51,3.14-6.05,7.07-6.12,3.63-.06,5.95,1.93,7.18,5.31a6.07,6.07,0,0,0,1,1.37Z" transform="translate(-1.97 -2.97)"/><path class="cls-3" d="M498,103.72v0Z" transform="translate(-1.97 -2.97)"/><path class="cls-3" d="M2,270.34v0Z" transform="translate(-1.97 -2.97)"/><path class="cls-4" d="M318.92,70.84c5.6,1,8.52-1.9,10.77-6.64,9.77-20.63,25.45-34.9,47.08-42.2,12.92-4.37,26.23-6.14,39.8-2.83a6.89,6.89,0,0,0,1.31,1.33c10.48,6.15,19.85,13.5,27.43,23.18C456.12,57.48,462.57,73,464,90.36c1.63,20.32-3.34,39.49-11.94,57.81-13.09,27.92-32.38,51.21-54.2,72.6a18.26,18.26,0,0,1-3.61,2.16c-27.58-25.32-51.39-53.41-65.22-88.82a106.12,106.12,0,0,1-7-34.92c-.17-4.66-2.26-7.59-7-8.35Q316.95,80.84,318.92,70.84Zm83.47-14.9a42.34,42.34,0,0,0-42,42.27c.11,23.08,19.22,42.22,42.2,42.25,23.19,0,42.44-19.4,42.23-42.65A42.22,42.22,0,0,0,402.39,55.94Z" transform="translate(-1.97 -2.97)"/><path class="cls-5" d="M199.14,378.48c-5.21-2.4-8.8-.34-12,3.91-17.59,23.43-37.87,44.34-59.93,63.55-1.07.94-2.21,1.8-3.56,2.9l-7.55-6.93C126,432,136.29,422.46,145.57,412a438.34,438.34,0,0,0,28.07-34.83,220,220,0,0,0,30.23-57.93A144.23,144.23,0,0,0,212,271.18,114,114,0,0,0,176.49,191c-7.67-7.15-17.07-12.45-25.66-18.62a24.12,24.12,0,0,1-2.62-2.54c28,6.32,49.61,21.89,65.19,45.68,18.55,28.34,21.33,59.14,12.83,91.4-4.42,16.79-11.52,32.47-20.3,47.38-2.65,4.5-2.75,8.4.86,12.25Z" transform="translate(-1.97 -2.97)"/><path class="cls-6" d="M388.52,342.69c-1.75-.16-3.85-.17-5.88-.55a6.49,6.49,0,0,1-5.67-6.73c-.07-3.78,1.93-6.62,5.82-7a69.22,69.22,0,0,1,12-.07c4,.28,6.08,3.08,6.14,6.78.06,3.94-2.14,6.64-6.3,7.18C392.7,342.52,390.77,342.54,388.52,342.69Z" transform="translate(-1.97 -2.97)"/><path class="cls-7" d="M427.18,342.72a58.84,58.84,0,0,1-6.24-.61c-3.65-.75-5.49-3.22-5.48-6.89s1.86-6.34,5.54-6.79a59.65,59.65,0,0,1,11.57-.21c4.28.33,7,3.48,6.74,7.36-.31,4.11-2.71,6.45-6.8,6.87a52.22,52.22,0,0,1-5.31,0Z" transform="translate(-1.97 -2.97)"/><path class="cls-6" d="M349.92,342.68a56.11,56.11,0,0,1-5.88-.57c-3.75-.71-5.52-3.47-5.48-6.95s1.86-6.39,5.65-6.76a71.19,71.19,0,0,1,12-.1c3.91.31,6.09,2.89,6.15,6.79.05,4.14-2.19,6.62-6.31,7.19C354.18,342.54,352.23,342.54,349.92,342.68Z" transform="translate(-1.97 -2.97)"/><path class="cls-6" d="M311.5,342.66a51.32,51.32,0,0,1-5.67-.52c-3.66-.67-5.58-3.05-5.64-6.75-.05-3.92,1.91-6.61,5.83-7a67.62,67.62,0,0,1,11.56-.12c4.2.28,6.42,3,6.37,7.1s-2.39,6.56-6.55,7C315.64,342.54,313.86,342.54,311.5,342.66Z" transform="translate(-1.97 -2.97)"/><path class="cls-8" d="M278.82,466.73a44,44,0,0,1-6-.61,6.42,6.42,0,0,1-5.4-7c.11-3.6,2-6.28,5.73-6.7a68.75,68.75,0,0,1,11.57-.22c4.18.24,6.56,3,6.6,7s-2.31,6.61-6.48,7.12C283.13,466.53,281.35,466.56,278.82,466.73Z" transform="translate(-1.97 -2.97)"/><path class="cls-2" d="M318,466.17a55.88,55.88,0,0,1-5.79,0,6.4,6.4,0,0,1-6.22-6.23c-.39-3.86,1.28-6.89,5.17-7.52a49.58,49.58,0,0,1,12-.41c4.37.38,6.83,3.52,6.52,7.5-.35,4.44-3.05,6.53-7.32,6.78-1.45.09-2.9,0-4.35,0Z" transform="translate(-1.97 -2.97)"/><path class="cls-9" d="M303.23,248.7c-2.22-.15-4.53,0-6.66-.51-3.34-.85-5.07-3.28-5-6.79.07-3.71,2-6.23,5.58-6.87a51.44,51.44,0,0,1,10.59-.76c4.82.18,7.89,3.46,7.69,7.57s-3.09,6.63-7.82,6.88c-1.45.08-2.91,0-4.36,0Z" transform="translate(-1.97 -2.97)"/><path class="cls-2" d="M485.3,363.64c7.42.77,7.33,7.34,9.56,12,1.67,3.46,1.53,6.9-1.51,9.66s-8.59,2.34-10.49-1.33a51.79,51.79,0,0,1-4.59-12.55C477.38,367.34,481.36,363.53,485.3,363.64Z" transform="translate(-1.97 -2.97)"/><path class="cls-2" d="M265.86,294.65c-.2,1.61.23,4.23-.88,5.57-1.56,1.88-4.38,4-6.47,3.8-2.31-.2-5.67-2.47-6.33-4.55-1.29-4-1.35-8.54-1.28-12.85.07-3.74,2.82-5.76,6.38-6s6.36,1.37,7.27,5A85,85,0,0,1,265.86,294.65Z" transform="translate(-1.97 -2.97)"/><path class="cls-10" d="M463.3,454.83c-1.12-.86-4-2.05-4.93-4.11s-.61-5.71.74-7.39a31,31,0,0,1,9.6-7.9,8.26,8.26,0,0,1,7.38.79c1.7,1.33,2.63,4.65,2.52,7C478.43,447,468.49,454.72,463.3,454.83Z" transform="translate(-1.97 -2.97)"/><path class="cls-9" d="M433.12,451c2.08,0,4.25-.35,6.24.08a6.58,6.58,0,0,1,5.58,6.89c0,3.71-1.87,6.28-5.42,7a52.86,52.86,0,0,1-10.58,1c-4.58,0-7.59-2.94-7.76-7-.17-4.31,2.67-7.14,7.6-7.54,1.44-.11,2.89-.17,4.34-.25Z" transform="translate(-1.97 -2.97)"/><path class="cls-9" d="M356,466.09c-1.62,0-3.24.1-4.84,0-4.2-.29-6.62-2.82-6.86-6.78a6.61,6.61,0,0,1,6.15-7.39,52.81,52.81,0,0,1,11.1-.16,7,7,0,0,1,6.64,7.52c-.18,3.86-3,6.53-7.35,6.83-1.61.11-3.23,0-4.84,0Z" transform="translate(-1.97 -2.97)"/><path class="cls-10" d="M394.48,466c-1.45,0-2.91.09-4.36,0-4.49-.32-7.49-3.29-7.45-7.32s3-6.94,7.6-7.17a85.56,85.56,0,0,1,9.2,0c4.2.25,7.18,3.25,7.28,7a7.51,7.51,0,0,1-6.95,7.38,49.65,49.65,0,0,1-5.32,0Z" transform="translate(-1.97 -2.97)"/><path class="cls-2" d="M280.13,253.45c0,4.39-8.54,13.9-12.91,14.32-5.47.53-9.76-5.19-6.9-10a36.43,36.43,0,0,1,9.2-10.31C273.91,244.15,280.09,248,280.13,253.45Z" transform="translate(-1.97 -2.97)"/><path class="cls-10" d="M474.74,347.85c-.16,6.1-5.72,9.48-10.46,6.91a61.13,61.13,0,0,1-9.55-6.5c-2.66-2.17-3.07-5.23-1.49-8.31s4.61-5,7.56-3.63c4.55,2.14,8.64,5.34,12.71,8.38C474.45,345.41,474.53,347.28,474.74,347.85Z" transform="translate(-1.97 -2.97)"/><path class="cls-10" d="M286.93,327.33c-.14,5.81-5.14,9.67-9.41,7.34a38.69,38.69,0,0,1-11-9c-1.28-1.55-1-6,.41-7.74s5.69-3.32,7.39-2.43c4.32,2.24,8,5.81,11.69,9.07C286.78,325.26,286.79,326.89,286.93,327.33Z" transform="translate(-1.97 -2.97)"/><path class="cls-9" d="M239.88,467a36.15,36.15,0,0,1-5.85-.78,6.46,6.46,0,0,1-5-7.3c.3-3.51,2.35-6.11,6.11-6.42a96.83,96.83,0,0,1,10.64-.15c4.15.12,6.58,2.45,7.07,6.51.48,3.89-2.07,6.94-6.36,7.7A63.8,63.8,0,0,1,239.88,467Z" transform="translate(-1.97 -2.97)"/><path class="cls-11" d="M148.21,169.79a24.12,24.12,0,0,0,2.62,2.54c8.59,6.17,18,11.47,25.66,18.62A114,114,0,0,1,212,271.18a144.23,144.23,0,0,1-8.11,48.09,220,220,0,0,1-30.23,57.93A438.34,438.34,0,0,1,145.57,412c-9.28,10.43-19.6,20-29.46,29.88a371.81,371.81,0,0,1-47.89-49.69c-17.62-22-33.09-45.28-42.66-72-10-28.14-13-56.62-1.4-85,15.7-38.51,44.52-61,85.6-67.54a93.37,93.37,0,0,1,34.62,1.14l1.53.49ZM91,242.12l-8.35,12c-6-.39-8.56,1.18-9.89,6.06-9.63,35.27,20.26,70.3,56.46,66.17A53.43,53.43,0,0,0,175,286.87a52.85,52.85,0,0,0-20.39-56.07c-17.57-12.84-41.07-13.28-59.95-1.12C88.87,233.43,88.16,235.8,91,242.12Z" transform="translate(-1.97 -2.97)"/><path class="cls-12" d="M120.47,465l7.44-.61c1.55.23,3.16.86,4.64.64,12.76-1.9,25.63-3.38,38.19-6.19,6.36-1.42,12.16-5.32,18.21-8.1,8.17,6.47,8.16,11.9-.14,18-11.08,8.19-24.13,11.38-37.32,13.46-22.82,3.59-45.72,3.32-68.08-2.89A101.46,101.46,0,0,1,58.5,468.21c-8.31-5-8-10.68-.51-16.83,2.42,1.21,4.78,2.56,7.27,3.58A133.36,133.36,0,0,0,120.47,465Z" transform="translate(-1.97 -2.97)"/><path class="cls-13" d="M120.47,465a133.36,133.36,0,0,1-55.21-10c-2.49-1-4.85-2.37-7.27-3.58,8.81-7.64,19.73-10.33,30.67-12.85,1.12-.26,2.86,1,4,2C102,448.59,111.19,456.8,120.47,465Z" transform="translate(-1.97 -2.97)"/><path class="cls-14" d="M189,450.73c-6,2.78-11.85,6.68-18.21,8.1-12.56,2.81-25.43,4.29-38.19,6.19-1.48.22-3.09-.41-4.64-.64,9-8,18-16.05,27.16-23.85a7.6,7.6,0,0,1,5.75-1.52C170.87,441.22,180.7,444.15,189,450.73Z" transform="translate(-1.97 -2.97)"/><path class="cls-5" d="M145.91,169.32l-1.53-.49Z" transform="translate(-1.97 -2.97)"/><path class="cls-15" d="M394.21,222.93a18.26,18.26,0,0,0,3.61-2.16c21.82-21.39,41.11-44.68,54.2-72.6,8.6-18.32,13.57-37.49,11.94-57.81-1.39-17.35-7.84-32.88-18.65-46.68-7.58-9.68-16.95-17-27.43-23.18a6.89,6.89,0,0,1-1.31-1.33c20.34,2.95,36.55,13.21,49.08,29,17.58,22.21,21.09,47.42,14.1,74.43-5.17,19.94-15,37.62-27,54.13a314.09,314.09,0,0,1-50.22,53.83Z" transform="translate(-1.97 -2.97)"/><path class="cls-16" d="M445.92,232.42c3.2,2.67,8.14,4.81,9.16,8.14,1.38,4.5-3.86,7.29-7.58,8.58-9.2,3.19-18.54,6.54-28.09,8-18.14,2.69-36.32,1.71-53.84-4.4a50.54,50.54,0,0,1-12.33-6.4c-5.07-3.58-4.87-7,.13-10.73a41.22,41.22,0,0,1,5.88-3.13c2,.52,3.95,1.17,6,1.55,7.89,1.48,15.79,2.87,23.69,4.3,2.87,2.32,5.72,4.66,8.61,7,3.36,2.65,6.78,2.65,10.14,0,2.9-2.28,5.74-4.63,8.61-6.95Z" transform="translate(-1.97 -2.97)"/><path class="cls-17" d="M445.92,232.42l-29.65,5.88c1.11-1.14,2.17-2.32,3.33-3.4C430,225.28,433.27,225,445.92,232.42Z" transform="translate(-1.97 -2.97)"/><path class="cls-17" d="M388.91,238.29c-7.9-1.43-15.8-2.82-23.69-4.3-2-.38-4-1-6-1.55,5-1.88,10-3.89,15.12-5.53,1-.32,2.79.43,3.72,1.25C381.8,231.41,385.32,234.89,388.91,238.29Z" transform="translate(-1.97 -2.97)"/><path class="cls-18" d="M402.39,55.94a42.22,42.22,0,0,1,42.39,41.87c.21,23.25-19,42.69-42.23,42.65-23,0-42.09-19.17-42.2-42.25A42.34,42.34,0,0,1,402.39,55.94Zm.93,14.58a27.59,27.59,0,0,0-28.4,26.88,27.9,27.9,0,0,0,26.94,28.49c14.71.61,27.82-11.67,28.34-26.55A27.45,27.45,0,0,0,403.32,70.52Z" transform="translate(-1.97 -2.97)"/><path class="cls-18" d="M82.62,254.12c4.12,2.55,5,6,4,10.73C83,281.5,90.12,298.24,103.77,306.2c15,8.74,31.87,7.37,45-3.67,14.74-12.42,17.64-35.17,6.46-50.72-11.91-16.57-34-21.31-51.05-10.82-4.31,2.65-8.4,5-13.16,1.13-2.81-6.32-2.1-8.69,3.72-12.44,18.88-12.16,42.38-11.72,59.95,1.12A52.85,52.85,0,0,1,175,286.87a53.43,53.43,0,0,1-45.84,39.48c-36.2,4.13-66.09-30.9-56.46-66.17C74.06,255.3,76.62,253.73,82.62,254.12Z" transform="translate(-1.97 -2.97)"/></svg>