<svg id="Layer_1" data-name="Layer 1" xmlns="http://www.w3.org/2000/svg" viewBox="0 0 479.21 500"><defs><style>.cls-1{fill:#040404;}.cls-2{fill:#b1d8fb;}.cls-3{fill:#5fb6fe;}.cls-4{fill:#5fb6fd;}.cls-5{fill:#fbde76;}.cls-6{fill:#f77d84;}.cls-7{fill:#87c3f5;}.cls-8{fill:#fbce5a;}.cls-9{fill:#d4e7ee;}.cls-10{fill:#def3fc;}.cls-11{fill:#ddf2fb;}.cls-12{fill:#26a5fc;}.cls-13{fill:#ddf1f9;}.cls-14{fill:#dff4fc;}.cls-15{fill:#2991da;}.cls-16{fill:#98e4fa;}.cls-17{fill:#f4616c;}.cls-18{fill:#daedf5;}.cls-19{fill:#fc7f86;}.cls-20{fill:#61d8f8;}.cls-21{fill:#070707;}.cls-22{fill:#040506;}.cls-23{fill:#040405;}.cls-24{fill:#010304;}.cls-25{fill:#040402;}.cls-26{fill:#c0e3f0;}.cls-27{fill:#c3e6f3;}</style></defs><path class="cls-1" d="M44.92,1h233.4c1.76.53,3.52,1.11,5.29,1.6,17.72,5,29.1,20.46,29.23,40.23.14,21,0,42,0,63v5.46h5.92q75.43,0,150.86,0c12.21,0,20.79,8.16,20.83,20.32.15,40.52,0,81,.09,121.56,0,5-2.12,8-7.15,8.77-6-1.45-7.52-3.32-7.52-10q0-42.7,0-85.43v-5.41H457c-1.45-.09-2.91-.26-4.36-.26q-128.85,0-257.7,0c-1.39,0-2.79.13-4.2.2V176.3c43,5.56,69.24,39.86,70.48,75.27a76.59,76.59,0,0,1-14.2,48.2c-13.8,19.47-32.91,30.28-56.55,33.38v5.73c0,10.8.46,11.27,11.25,11.27H450.14c1.94,0,3.88-.23,5.81-.35,3.89.13,7.77.36,11.66.36,6.88,0,8.26-1.4,8.27-8.31,0-16.43,0-32.86,0-49.29,0-6.14,1.58-8,7.51-9.5,5.29.86,7.2,4.14,7.16,9.28-.11,17.07.12,34.14-.16,51.21a25.22,25.22,0,0,1-2.73,11.12c-4.2,7.85-11.53,10.22-20.11,10.2q-78.27-.12-156.55,0c-1.78,0-3.56.17-5.34.26H279.26c-1.78-.09-3.56-.26-5.34-.27-24.89,0-49.78-.12-74.67.06-7.59.05-14-2-19.22-7.61-5.37-7.22-4.08-15.69-4.26-23.7l-19.52-4.45-9.47-4.06c-6.7-5-14.75-9-19.77-15.4-6.32-8-13.43-10-22.57-8.82-.64.08-1.29.14-1.93.2q-22.86-.09-45.71-.19c-6.12,0-9.46-2.61-9.47-7.27s3.44-7.35,9.44-7.39l35-.19h26.48c5.9-.48,9.64,2.15,13.3,6.94,14.49,19,34,27.43,57.88,25.22,40.3-2.62,67.67-46.64,53.23-85.62-8.46-22.82-31.56-40.68-53.22-41.15-6.45.13-13.09-.69-19.31.56a64.28,64.28,0,0,0-51.29,58.56c-.37,5.15-1.91,8.82-7.47,9.69l-26.45,0c-2.74-.08-5.49-.22-8.23-.24-7.45,0-14.91.06-22.36-.1-4.2-.08-6.63-2.63-6.91-6.69s2-6.74,6-7.62a21,21,0,0,1,4.35-.26c9.07-.1,18.13-.16,27.19-.24h18.91c1.74-6.26,3-12.34,5.12-18.05,7.11-18.86,20.41-32.41,37.57-42.47l9.68-4.19,19.56-4.73c0-13.52.15-27.3-.06-41.08-.1-6.07,1.19-11.53,4.75-16.44,5.09-5.14,11.18-7.06,18.45-7,26.77.17,53.56,0,80.34-.09h18.65V68.25H279.3c-1.45-.1-2.9-.29-4.36-.29H26.33V426.5H274.38c1.63,0,3.25-.14,4.87-.21h19c0-10.72,0-21.06,0-31.39,0-6.56,1.18-8.08,7.4-10.11,4.45,1,7.23,3.39,7.21,8.33-.08,23.37.25,46.75-.29,70.11-.4,17.17-12.93,31.91-29.48,36.32-1.61.43-3.19,1-4.78,1.44H44c-2.78-1.13-5.62-2.12-8.31-3.42C19,489.5,11.36,476.11,11.38,457.67q.13-206.67,0-413.36c0-1.63,0-3.26.11-4.88,1.06-16.45,9.36-28,24.07-35C38.59,3,41.81,2.11,44.92,1ZM456,126.1H440.4v19.77h35.37c0-5.17.19-10.16-.06-15.13-.17-3.25-2.41-4.82-5.61-4.82C465.4,125.93,460.71,126,456,126.1Zm-283.17,330c4.52.06,9,.26,13.55.15s7.12-2.86,7.74-7.19a53.43,53.43,0,0,0,.07-7.6H130c0,2.46-.11,4.54,0,6.62.32,5.14,3.19,8.16,8.32,8.19C149.84,456.3,161.34,456.12,172.84,456.05Zm94.68,30.1c15.67.85,27.52-6.29,29.77-19.58,1.38-8.11.26-16.64.26-25.14H208.93c0,2,0,3.6,0,5.2-.1,14.77-9.3,24.21-23.94,24.3-15.77.1-31.55.18-47.32-.07-12.64-.2-21.93-9.75-22.33-22.41-.08-2.36,0-4.73,0-7H26.09c0,5.61,0,10.94,0,16.27,0,18.38,10.29,28.59,28.72,28.59H262.65C264.27,486.31,265.9,486.21,267.52,486.15ZM279.12,53h18.71c3.84-23.94-8.2-38.59-30.34-37.24-.64,0-1.29-.12-1.94-.12q-106.67,0-213.33,0a23.13,23.13,0,0,0-5.32.5c-16.81,3.94-23.52,17.7-20,37.08h4.32q121.78,0,243.59,0C276.21,53.27,277.67,53.1,279.12,53Zm146.15,72.9H198.84c-1,0-2,0-2.93,0-3.27.21-5.2,2.1-5.35,5.23-.24,4.82-.07,9.67-.07,14.59H425.27Z" transform="translate(-11.38 -0.98)"/><path class="cls-2" d="M456,349.79c-1.93.12-3.87.35-5.81.35H201.72c-10.79,0-11.25-.47-11.25-11.27v-5.73c23.64-3.1,42.75-13.91,56.55-33.38a76.59,76.59,0,0,0,14.2-48.2c-1.24-35.41-27.52-69.71-70.48-75.27V161c1.41-.07,2.81-.2,4.2-.2q128.85,0,257.7,0c1.45,0,2.91.17,4.36.26Zm-86.33-139.3c-17.08,0-34.17-.11-51.26,0-12.5.11-20,7.69-20.15,20.15-.08,5.2-.16,10.42,0,15.62.41,11.45,8.19,19.15,19.69,19.18q51.26.15,102.51,0c11.47,0,19.26-7.79,19.67-19.23.17-4.71.05-9.44,0-14.16,0-14.23-7.37-21.55-21.71-21.59C402.17,210.45,385.9,210.48,369.62,210.49Zm-.43,122.84c17.08,0,34.17.11,51.26,0,11.48-.1,19.13-7.4,19.63-18.64.26-5.84.27-11.72,0-17.57-.55-11.18-8.4-18.65-19.68-18.67q-51.25-.12-102.52,0c-11.45,0-19.22,7.71-19.64,19.22-.17,4.87-.06,9.76,0,14.64.08,13.65,7.46,21,21.19,21.05C336,333.38,352.59,333.34,369.19,333.33ZM333.1,190.61c8.93,0,17.86,0,26.79,0,5.48,0,8.43-2.64,8.43-7.22s-3.05-7.37-8.43-7.39q-26.53-.13-53.08,0c-5.24,0-8.52,3.06-8.52,7.38s3.19,7.19,8.51,7.23C315.56,190.66,324.33,190.61,333.1,190.61Z" transform="translate(-11.38 -0.98)"/><path class="cls-3" d="M279.12,53c-1.45.1-2.91.27-4.36.27q-121.8,0-243.59,0H26.85c-3.47-19.38,3.24-33.14,20-37.08a23.13,23.13,0,0,1,5.32-.5q106.67,0,213.33,0c.65,0,1.3.08,1.95.12C278.16,26.06,280.1,39.08,279.12,53ZM158.5,41c4.7,0,9.41.11,14.11,0s8-3.36,7.87-7.49-3.21-7-7.76-7.08q-13.86-.19-27.73,0c-4.83.06-8,3.21-7.83,7.46.11,4,3.17,7,7.71,7.12S154,41,158.5,41Z" transform="translate(-11.38 -0.98)"/><path class="cls-4" d="M267.52,486.15c-1.62.06-3.25.16-4.87.16H54.81c-18.43,0-28.68-10.21-28.72-28.59,0-5.33,0-10.66,0-16.27h89.23c0,2.26-.06,4.63,0,7,.4,12.66,9.69,22.21,22.33,22.41,15.77.25,31.55.17,47.32.07,14.64-.09,23.84-9.53,23.94-24.3,0-1.6,0-3.21,0-5.2h70.29c0,4.36,0,8.72,0,13.09C279.37,466.56,276.5,477.49,267.52,486.15Z" transform="translate(-11.38 -0.98)"/><path class="cls-5" d="M111.38,260.22c5.56-.87,7.1-4.54,7.47-9.69A64.28,64.28,0,0,1,170.14,192c6.22-1.25,12.86-.43,19.31-.56C195,195.56,201.27,199,206,204c15.42,16.21,23.32,35.3,20.67,58.18-1.9,16.39-8,30.68-19.89,42.14-5.3,5.12-11.52,9.29-17.33,13.89-23.92,2.21-43.39-6.2-57.88-25.22-3.66-4.79-7.4-7.42-13.3-6.94Q114.81,273.12,111.38,260.22Zm64.34,37.89c0,.06.05.55.08,1,.4,5.51,3,8.54,7.31,8.58s6.76-2.89,7.48-8.4a6,6,0,0,1,3-3.92c10.7-5.06,17.11-14.88,16.44-26.42s-7.6-18.41-18.19-22.18c-4.57-1.63-9-3.76-13.38-5.81-3-1.39-5.21-3.51-4.47-7.21s2.62-6.5,6.72-7.4c5.19-1.13,9.47.3,13.59,3.5a7.66,7.66,0,0,0,10.89-1.12c2.45-3.33,1.67-7.81-2.37-10.57-3.83-2.61-8-4.69-12.2-7.08-.47-6.17-2.82-9.28-7.29-9.41-4.71-.13-6.89,2.81-7.92,10.71-1,.45-2.06.85-3,1.37-8,4.16-12.5,10.73-13.13,19.69s3.43,15.78,11.38,19.85c5.61,2.88,11.51,5.17,17.33,7.63s8.06,5.61,7.42,11.05a11.86,11.86,0,0,1-10.06,10.41,23.44,23.44,0,0,1-16.37-3.07c-4.49-2.76-8.85-1.63-11,2.22s-.94,7.8,3.54,10.21S170.58,295.85,175.72,298.11Z" transform="translate(-11.38 -0.98)"/><path class="cls-6" d="M425.27,125.9v19.85H190.49c0-4.92-.17-9.77.07-14.59.15-3.13,2.08-5,5.35-5.23,1-.06,2,0,2.93,0H425.27Z" transform="translate(-11.38 -0.98)"/><path class="cls-7" d="M456,349.79,457,161.09h18.89v5.41q0,42.72,0,85.43c0,6.66,1.48,8.53,7.52,10v21.14c-5.93,1.5-7.5,3.36-7.51,9.5-.06,16.43,0,32.86,0,49.29,0,6.91-1.39,8.32-8.27,8.31C463.72,350.15,459.84,349.92,456,349.79Z" transform="translate(-11.38 -0.98)"/><path class="cls-8" d="M189.44,318.18c5.81-4.6,12-8.77,17.33-13.89,11.85-11.46,18-25.75,19.89-42.14,2.65-22.88-5.25-42-20.67-58.18-4.72-4.95-11-8.41-16.54-12.56,21.66.47,44.76,18.33,53.22,41.15C257.11,271.54,229.74,315.56,189.44,318.18Z" transform="translate(-11.38 -0.98)"/><path class="cls-9" d="M279.25,426.28q0-30.58,0-61.18h26.43l0,19.69c-6.22,2-7.38,3.55-7.4,10.11,0,10.33,0,20.67,0,31.39Z" transform="translate(-11.38 -0.98)"/><path class="cls-10" d="M156.24,180.41q0-23.16,0-46.32c0-10.29,5.25-15.68,15.46-15.91,2.92-.07,5.85,0,8.77,0-3.56,4.91-4.85,10.37-4.75,16.44.21,13.78.06,27.56.06,41.08Z" transform="translate(-11.38 -0.98)"/><path class="cls-11" d="M85,245.12c2.66-7.93,5.35-15.85,7.93-23.8a23.46,23.46,0,0,0,.62-4.22l.17-.29a19.27,19.27,0,0,0,3.51-2.91c11.06-14.56,25-24.81,43.13-28.68a51.51,51.51,0,0,1,6.24-.62C129.4,194.66,116.1,208.21,109,227.07c-2.16,5.71-3.38,11.79-5.12,18.05Z" transform="translate(-11.38 -0.98)"/><path class="cls-12" d="M267.52,486.15c9-8.66,11.85-19.59,11.74-31.63,0-4.37,0-8.73,0-13.09h18.33c0,8.5,1.12,17-.26,25.14C295,479.86,283.19,487,267.52,486.15Z" transform="translate(-11.38 -0.98)"/><path class="cls-13" d="M279.28,111.06q0-21.4,0-42.81h18.63v42.81Z" transform="translate(-11.38 -0.98)"/><path class="cls-14" d="M111.38,260.22q3.44,12.9,6.88,25.8H91.78q-3.42-12.87-6.85-25.74Z" transform="translate(-11.38 -0.98)"/><path class="cls-15" d="M279.12,53c1-13.92-1-26.94-11.62-37.24,22.13-1.35,34.17,13.3,30.33,37.24Z" transform="translate(-11.38 -0.98)"/><path class="cls-16" d="M172.84,456.05c-11.5.07-23,.25-34.5.17-5.13,0-8-3.05-8.32-8.19-.13-2.08,0-4.16,0-6.62h44.8Q173.83,448.73,172.84,456.05Z" transform="translate(-11.38 -0.98)"/><path class="cls-11" d="M180,357.28c-3.55.05-7.11.21-10.66.11-7.59-.2-12.93-5.59-13.1-13.24-.11-5,0-10,0-15l19.52,4.45C176,341.59,174.66,350.06,180,357.28Z" transform="translate(-11.38 -0.98)"/><path class="cls-17" d="M456,126.1c4.7-.07,9.39-.17,14.09-.18,3.2,0,5.44,1.57,5.61,4.82.25,5,.06,10,.06,15.13H456Q456,136,456,126.1Z" transform="translate(-11.38 -0.98)"/><path class="cls-18" d="M146.78,325.07c-12.9-.88-24-6.24-34.13-13.87-3.78-2.87-6.78-6.74-10.14-10.15.64-.06,1.29-.12,1.93-.2,9.14-1.2,16.25.79,22.57,8.82C132,316,140.08,320,146.78,325.07Z" transform="translate(-11.38 -0.98)"/><path class="cls-19" d="M456,126.1q0,9.89,0,19.77H440.4V126.1Z" transform="translate(-11.38 -0.98)"/><path class="cls-20" d="M172.84,456.05q1-7.32,2-14.64h19.4a53.43,53.43,0,0,1-.07,7.6c-.62,4.33-3.16,7.09-7.74,7.19S177.36,456.11,172.84,456.05Z" transform="translate(-11.38 -0.98)"/><path class="cls-21" d="M93.68,216.81l-.17.29c-2.78,1.32-5.52,3.63-8.36,3.77-9.74.47-19.52.24-29.28.16-5.36-.05-8.54-2.89-8.53-7.28s3.24-7.3,8.54-7.36c9.44-.11,18.88-.06,28.31,0C92,206.4,94.36,209,93.68,216.81Z" transform="translate(-11.38 -0.98)"/><path class="cls-22" d="M369.62,210.48c16.28,0,32.55,0,48.82,0,14.34,0,21.66,7.36,21.71,21.59,0,4.72.13,9.45,0,14.16-.41,11.44-8.2,19.2-19.67,19.23q-51.26.15-102.51,0c-11.5,0-19.28-7.73-19.69-19.18-.19-5.2-.11-10.42,0-15.62.19-12.46,7.65-20,20.15-20.15C335.45,210.38,352.54,210.49,369.62,210.48Zm35.65,15q-43.59-.13-87.17-.28c-3.72,0-5.25,1.92-5.23,5.47,0,4.87,0,9.74,0,14.61,0,3.83,1.81,5.62,5.66,5.61q43.35-.13,86.7-.2c5,.07,10.05.16,15.07.19,3.38,0,5.13-1.78,5.17-5.09.06-5.19,0-10.39,0-15.58,0-3.37-1.79-5.07-5.16-5C415.3,225.24,410.28,225.35,405.27,225.45Z" transform="translate(-11.38 -0.98)"/><path class="cls-23" d="M369.19,333.34c-16.6,0-33.2,0-49.8,0-13.73,0-21.11-7.4-21.19-21.05,0-4.88-.14-9.77,0-14.64.42-11.51,8.19-19.19,19.64-19.22q51.27-.12,102.52,0c11.28,0,19.13,7.49,19.68,18.67.28,5.85.27,11.73,0,17.57-.5,11.24-8.15,18.54-19.63,18.64C403.36,333.44,386.27,333.33,369.19,333.34Zm37-40.1-88.16-.19c-3.43,0-5.11,1.77-5.15,5.09-.06,4.87.08,9.74,0,14.61-.12,4.41,1.92,6,6.22,6,14.13-.13,28.25,0,42.38-.06,14.61,0,29.21-.15,43.82-.24,5,.09,10,.16,15.05.27,3.43.07,5.12-1.67,5.15-5,0-5.19.08-10.38,0-15.57-.05-3.3-1.76-5.1-5.17-5.07Z" transform="translate(-11.38 -0.98)"/><path class="cls-23" d="M333.1,190.61c-8.77,0-17.54,0-26.3,0-5.32,0-8.51-2.82-8.51-7.23s3.28-7.36,8.52-7.38q26.54-.13,53.08,0c5.38,0,8.42,2.9,8.43,7.39s-2.95,7.18-8.43,7.22C351,190.66,342,190.61,333.1,190.61Z" transform="translate(-11.38 -0.98)"/><path class="cls-24" d="M158.5,41c-4.54,0-9.09.11-13.63,0s-7.6-3.09-7.71-7.12c-.12-4.25,3-7.4,7.83-7.46q13.86-.16,27.73,0c4.55.06,7.64,3.07,7.76,7.08s-3.15,7.36-7.87,7.49S163.2,41,158.5,41Z" transform="translate(-11.38 -0.98)"/><path class="cls-25" d="M175.72,298.11c-5.14-2.26-9.84-4-14.2-6.34s-5.6-6.42-3.54-10.21,6.46-5,11-2.22a23.44,23.44,0,0,0,16.37,3.07A11.86,11.86,0,0,0,195.36,272c.64-5.44-1.52-8.57-7.42-11.05s-11.72-4.75-17.33-7.63c-8-4.07-12-10.79-11.38-19.85s5.16-15.53,13.13-19.69c1-.52,2-.92,3-1.37,1-7.9,3.21-10.84,7.92-10.71,4.47.13,6.82,3.24,7.29,9.41,4.17,2.39,8.37,4.47,12.2,7.08,4,2.76,4.82,7.24,2.37,10.57a7.66,7.66,0,0,1-10.89,1.12c-4.12-3.2-8.4-4.63-13.59-3.5-4.1.9-6,3.65-6.72,7.4s1.48,5.82,4.47,7.21c4.41,2,8.81,4.18,13.38,5.81,10.59,3.77,17.51,10.51,18.19,22.18s-5.74,21.36-16.44,26.42a6,6,0,0,0-3,3.92c-.72,5.51-3.07,8.44-7.48,8.4s-6.91-3.07-7.31-8.58C175.77,298.66,175.73,298.17,175.72,298.11Z" transform="translate(-11.38 -0.98)"/><path class="cls-10" d="M405.24,250.66q-43.35.09-86.7.2c-3.85,0-5.69-1.78-5.66-5.61,0-4.87,0-9.74,0-14.61,0-3.55,1.51-5.48,5.23-5.47q43.57.17,87.17.28Z" transform="translate(-11.38 -0.98)"/><path class="cls-26" d="M405.24,250.66l0-25.21c5-.1,10-.21,15.05-.29,3.37,0,5.14,1.65,5.16,5,0,5.19.06,10.39,0,15.58,0,3.31-1.79,5.11-5.17,5.09C415.29,250.82,410.27,250.73,405.24,250.66Z" transform="translate(-11.38 -0.98)"/><path class="cls-10" d="M405.27,318.42c-14.61.09-29.21.2-43.82.24-14.13,0-28.25-.07-42.38.06-4.3,0-6.34-1.56-6.22-6,.13-4.87,0-9.74,0-14.61,0-3.32,1.72-5.09,5.15-5.09l88.16.19c0,2.11.12,4.23,0,6.34C406,305.86,405.6,312.14,405.27,318.42Z" transform="translate(-11.38 -0.98)"/><path class="cls-27" d="M405.27,318.42c.33-6.28.69-12.56,1-18.84.09-2.11,0-4.23,0-6.34l14.09-.2c3.41,0,5.12,1.77,5.17,5.07.08,5.19,0,10.38,0,15.57,0,3.34-1.72,5.08-5.15,5C415.31,318.58,410.29,318.51,405.27,318.42Z" transform="translate(-11.38 -0.98)"/></svg>