<svg id="Layer_1" data-name="Layer 1" xmlns="http://www.w3.org/2000/svg" viewBox="0 0 459.23 491.09"><defs><style>.cls-1{fill:#030202;}.cls-2{fill:#e8f2f9;}.cls-3{fill:#d2dbf9;}.cls-4{fill:#fd4054;}.cls-5{fill:#4da8f3;}.cls-6{fill:#fe4155;}.cls-7{fill:#1884e7;}.cls-8{fill:#d0d9f3;}.cls-9{fill:#d0d9f7;}.cls-10{fill:#d1daf8;}.cls-11{fill:#e60053;}.cls-12{fill:#e1ebf2;}.cls-13{fill:#284087;}.cls-14{fill:#294189;}.cls-15{fill:#030303;}.cls-16{fill:#030304;}.cls-17{fill:#030404;}.cls-18{fill:#020202;}.cls-19{fill:#020304;}.cls-20{fill:#3a579e;}.cls-21{fill:#294088;}.cls-22{fill:#e9f3fa;}.cls-23{fill:#f7d63e;}</style></defs><path class="cls-1" d="M43.93,195.86c-6.08-2-7.07-3.27-7.08-9.63,0-36.44.19-72.88-.08-109.32A39.59,39.59,0,0,1,77.52,36.63c16.46.26,32.92,0,49.38,0h5c.16-3,0-5.92.5-8.68,1.92-10.35,7.71-17.64,17.68-21.43A32.37,32.37,0,0,0,153.27,5h10.55c.15.25.26.69.46.74C178.19,9,185.74,18.25,186.16,32.48c0,1.24,0,2.48,0,3.92H314.7c.05-1.22.12-2.18.13-3.13q.27-19.92,18.85-27.09A9.28,9.28,0,0,0,335.49,5H347c15.18,4.91,22.92,15.13,22,31.72h5c17.1,0,34.2-.14,51.3,0,19,.2,34.35,12.82,38.19,31.38a56.63,56.63,0,0,1,.74,11.44q.06,100.9,0,201.81a11.23,11.23,0,0,0,2.71,7.79c61.25,74,20.65,186.73-73.66,204.69a126.52,126.52,0,0,1-139-73.09c-1.47-3.32-3.1-4.32-6.63-4.31q-61.6.19-123.2.07c-6.46,0-8.05-1.14-9.75-6.81,1.17-5.93,3.18-7.57,9.54-7.57H247.39c-1.19-6.09-2.27-11.66-3.38-17.38h-5.45c-52.7,0-105.39-.09-158.08.09-10.2,0-19.63-1.68-28-7.73-.17-.13-.58.08-.87.13A23.75,23.75,0,0,0,74.13,402c5.58.22,11.18,0,16.77.08,6.28,0,8.07,1.47,9.68,7.59-2.11,5.8-3.42,6.89-9.37,6.76-8-.17-16.08.33-23.84-1.08C50.49,412.31,38.14,397.51,37,380.47c-.11-1.6-.18-3.2-.18-4.79q0-77.88,0-155.77c0-6.89,1.14-8.44,7.07-10,6,1.45,7.3,3.17,7.3,10.32,0,41.22.23,82.44-.09,123.66-.14,17.2,13.38,26.71,26.78,26.61,53.52-.38,107.05-.16,160.57-.16h4.83c.22-30.52,9.89-57.3,28.66-80.85-9.59-3.54-12.65-7.87-12.7-17.69,0-4.95-.18-9.93.2-14.85a14.35,14.35,0,0,1,13.74-13.49c6.05-.31,12.14-.3,18.2,0,6.9.34,12.22,5.27,13.62,12.05.31,1.54.53,3.09.85,5,1.49-.77,2.75-1.4,4-2.06,27.76-14.72,57-18.59,87.67-12,13.39,2.87,25.68,8.39,37.61,14.89l14.48,10.22v-109H435.21c-1-.06-1.91-.17-2.86-.17q-188.84,0-377.68,0c-1.07,0-2.15.2-3.44.32,0,8,0,15.87,0,23.69C51.17,192.41,49.91,194,43.93,195.86ZM276.08,258c-2.06-1.09-2.66.31-2.71,1.85-.11,4.29-.18,8.6.08,12.89.05.81,1.68,1.54,2.58,2.3,3.88,0,8,1.53,11.52-1.17,4.09-3.08,5-8.52,2.73-15.87ZM153.18,21.21c-4.79,2.18-6.56,6.27-6.6,11.14q-.17,19.56,0,39.11c0,5.37,2.37,9.46,7.53,11.6,9,3.4,17.32-1.57,17.54-11,.3-13.52.33-27.07,0-40.59C171.36,21.76,162,16.78,153.18,21.21ZM336.33,21c-5.44,2.35-7.05,7-7.11,12.36-.08,6.51,0,13,0,19.55,0,6-.12,12.09.05,18.13.14,5.19,1.77,9.67,7.15,11.78,8.71,3.94,17.82-1.12,18.08-10.59q.58-20.31,0-40.64C354.21,22.06,345.12,17,336.33,21ZM402.85,476.2l0,0a20.23,20.23,0,0,0,2.81-.55c40.38-13.88,71.39-49.94,75.36-95.18,3.48-39.7-10.66-72.68-41.42-98.16a95.63,95.63,0,0,0-37.92-19.7c-16.71-5.71-33.85-6.18-51-3.34-73.48,12.15-115,93.87-81,160.26,19.23,37.54,50.77,58,92.79,61.78a90.14,90.14,0,0,0,38.2-4.48Zm32.34-328.46h14.37v-17H435.19c-.8,0-1.59-.15-2.39-.15q-188.88,0-377.74,0a34,34,0,0,0-3.5.34v17H429.45C431.37,147.92,433.28,147.8,435.19,147.74Zm0-31.74h14.37c.11-1.09.25-1.85.25-2.62,0-12.74.16-25.49-.06-38.23-.24-14.23-11.61-24.53-26-23.9h-54.4V68.41c1.78,0,3.21,0,4.64,0a30.91,30.91,0,0,1,4.31.11,7.08,7.08,0,0,1,6.37,7.64c-.22,3.85-2.7,6.3-6.85,6.58a33.14,33.14,0,0,1-6.22,0c-3.39-.41-5.32.8-7.27,3.78-9.89,15.15-31.39,16.87-42.53,2.66-4.35-5.55-8.56-7.07-14.68-6.4a2.57,2.57,0,0,1-.48,0c-4.58-.23-7.51-2.89-7.6-6.91-.1-4.24,2.86-7.18,7.66-7.45,2.51-.13,5,0,7.74,0v-17h-128V68.22l4.48.19a38,38,0,0,1,4.78.16,7.27,7.27,0,0,1,6.45,7.64,7.12,7.12,0,0,1-7,6.54,34,34,0,0,1-6.22,0c-3.39-.38-5.34.79-7.29,3.8-10.21,15.77-33.11,16.48-43.83,1.21-2.77-4-5.53-5.63-10.06-5a18.33,18.33,0,0,1-2.87,0c-5.33-.11-8.48-2.66-8.59-7s3.39-7.29,8.77-7.42c2.31,0,4.63,0,6.75,0V51.07c-18.62,0-36.84-.07-55,0-14.89.07-25.21,10.39-25.38,25.36-.12,10.39,0,20.78,0,31.17v8.55H429.44C431.35,116.17,433.27,116.06,435.18,116Z" transform="translate(-36.77 -4.96)"/><path class="cls-2" d="M43.93,195.86c6-1.89,7.24-3.45,7.28-9.52.06-7.82,0-15.64,0-23.69,1.29-.12,2.37-.32,3.44-.32q188.83,0,377.68,0c.95,0,1.9.11,2.86.17l-.06,98.81c-11.93-6.5-24.22-12-37.61-14.89-30.69-6.57-59.91-2.7-87.67,12-1.24.66-2.5,1.29-4,2.06-.32-1.89-.54-3.44-.85-5-1.4-6.78-6.72-11.71-13.62-12.05-6.06-.29-12.15-.3-18.2,0A14.35,14.35,0,0,0,259.47,257c-.38,4.92-.22,9.9-.2,14.85.05,9.82,3.11,14.15,12.7,17.69-18.77,23.55-28.44,50.33-28.66,80.85h-4.83c-53.52,0-107-.22-160.57.16-13.4.1-26.92-9.41-26.78-26.61.32-41.22.11-82.44.09-123.66,0-7.15-1.25-8.87-7.3-10.32Zm388.5,6.88h0c0-2.72.06-5.43,0-8.14-.22-8.28-6.16-14.52-14.45-14.87-5.74-.24-11.5-.25-17.24,0a14.82,14.82,0,0,0-14.36,14.5c-.18,5.75-.19,11.5,0,17.25a14.48,14.48,0,0,0,14,14.22c6.05.28,12.14.29,18.19,0,7.89-.39,13.56-6.44,13.83-14.34C432.51,208.49,432.43,205.61,432.43,202.74Zm-254.18.37c0-2.88.07-5.75,0-8.62-.24-8-6.06-14.3-14.1-14.73-5.89-.31-11.82-.29-17.71,0a14.77,14.77,0,0,0-14.24,14.6c-.14,5.75-.17,11.5,0,17.25a14.37,14.37,0,0,0,13.61,14.08,184.55,184.55,0,0,0,18.67,0c7.85-.4,13.48-6.51,13.74-14.44C178.32,208.54,178.25,205.82,178.25,203.11Zm0,63.55c0-2.71,0-5.43,0-8.14-.18-8.68-6-14.83-14.59-15.13-5.59-.19-11.18-.18-16.77,0-8.6.27-14.56,6.41-14.71,15-.1,5.27-.09,10.54,0,15.81.14,8.38,5.85,14.69,14.14,15.17a158.53,158.53,0,0,0,17.71,0c8.35-.46,14-6.69,14.23-15.08C178.3,271.77,178.26,269.22,178.26,266.66Zm167.43-40.87v0c2.88,0,5.76.12,8.62,0,8.41-.41,14.38-6.32,14.64-14.65.19-5.58.2-11.18,0-16.76a14.89,14.89,0,0,0-14.74-14.65c-5.59-.19-11.19-.21-16.77,0a14.76,14.76,0,0,0-14.54,14.76c-.13,5.58-.13,11.18,0,16.76.21,8.16,6,14,14.16,14.52C339.94,225.93,342.82,225.79,345.69,225.79ZM219,306.94v0c-2.72,0-5.43-.06-8.15,0-8.61.25-14.81,6.13-15.15,14.66-.22,5.58-.23,11.18,0,16.76.37,8.5,6.68,14.51,15.23,14.67,5.42.1,10.86.15,16.28,0a14.59,14.59,0,0,0,14.51-14.25c.23-5.9.23-11.82,0-17.72A14.35,14.35,0,0,0,227.59,307C224.72,306.83,221.84,306.94,219,306.94Zm22.8-40.6c0-2.71.08-5.43,0-8.14-.32-8.75-6.1-14.58-14.87-14.82q-8.13-.23-16.28,0c-8.58.24-14.65,6.27-14.94,14.87q-.28,8.14,0,16.29c.3,8.35,6.2,14.47,14.52,14.87a170.92,170.92,0,0,0,17.24,0c8.39-.43,14.05-6.47,14.35-14.92C241.85,271.77,241.77,269.06,241.77,266.34Zm40.7-40.57v0c2.71,0,5.43.1,8.14,0,8.29-.4,14.21-5.81,14.74-14a134.51,134.51,0,0,0,0-18.18,14.54,14.54,0,0,0-14-13.82,167.23,167.23,0,0,0-18.19,0,14.36,14.36,0,0,0-13.66,13.59,157,157,0,0,0,0,18.66c.45,7.79,6.18,13.23,13.95,13.71C276.39,225.93,279.43,225.77,282.47,225.77ZM68.69,330c0,2.88-.1,5.76,0,8.62A14.71,14.71,0,0,0,83.13,353c5.58.19,11.18.15,16.77,0a14.88,14.88,0,0,0,14.85-14.53c.24-5.74.25-11.51,0-17.24A14.64,14.64,0,0,0,100.22,307c-5.74-.18-11.5-.19-17.24,0-8.1.27-14,6.28-14.27,14.41C68.6,324.25,68.69,327.13,68.69,330ZM91.4,225.74v.07c2.88,0,5.76.12,8.62,0,8.63-.42,14.53-6.4,14.76-15,.14-5.43.18-10.87,0-16.29a14.84,14.84,0,0,0-14.19-14.7c-5.89-.3-11.82-.28-17.72,0a14.67,14.67,0,0,0-14.14,14.64c-.15,5.74-.16,11.5,0,17.24a14.32,14.32,0,0,0,13.57,14.08C85.32,225.93,88.37,225.74,91.4,225.74Zm.35,17.61c-2.87,0-5.75-.11-8.62,0-8.4.39-14.23,6.32-14.43,14.77-.13,5.42-.12,10.86,0,16.28.18,8.38,5.93,14.54,14.28,15,5.74.3,11.51.28,17.24,0,8.36-.4,14.27-6.49,14.55-14.83.19-5.42.17-10.86,0-16.28-.26-8.61-6.31-14.62-14.88-14.94C97.19,243.27,94.47,243.35,91.75,243.35Zm86.5,86.72h0c0-3,.12-6.07,0-9.1a14.45,14.45,0,0,0-13.74-14c-6.06-.25-12.14-.23-18.2,0a14.52,14.52,0,0,0-14.06,14.16c-.19,5.75-.16,11.5,0,17.25A14.81,14.81,0,0,0,146.45,353c5.74.23,11.5.2,17.24,0a14.83,14.83,0,0,0,14.55-14.77C178.32,335.5,178.25,332.79,178.25,330.07Zm63.52-126.8c0-2.87.09-5.75,0-8.62-.3-8.58-6.31-14.68-14.87-14.94-5.42-.16-10.86-.16-16.28,0-8.31.25-14.53,6.22-14.92,14.49-.27,5.73-.27,11.5,0,17.23a14.63,14.63,0,0,0,14.47,14.32c5.74.23,11.5.25,17.24,0,8.46-.36,14-6.25,14.35-14.81C241.84,208.39,241.77,205.83,241.77,203.27Z" transform="translate(-36.77 -4.96)"/><path class="cls-3" d="M100.58,409.68c-1.61-6.12-3.4-7.55-9.68-7.59-5.59,0-11.19.14-16.77-.08a23.75,23.75,0,0,1-22.54-24.77c.29-.05.7-.26.87-.13,8.39,6.05,17.82,7.76,28,7.73,52.69-.18,105.38-.09,158.08-.09H244c1.11,5.72,2.19,11.29,3.38,17.38H124.22c-6.36,0-8.37,1.64-9.54,7.57Z" transform="translate(-36.77 -4.96)"/><path class="cls-4" d="M435.18,116c-1.91.06-3.83.17-5.74.17H51.29v-8.55c0-10.39-.09-20.78,0-31.17.17-15,10.49-25.29,25.38-25.36,18.21-.09,36.43,0,55.05,0V68.41c-2.12,0-4.44,0-6.75,0-5.38.13-8.89,3.11-8.77,7.42s3.26,6.85,8.59,7a18.33,18.33,0,0,0,2.87,0c4.53-.65,7.29,1,10.06,5,10.72,15.27,33.62,14.56,43.83-1.21,1.95-3,3.9-4.18,7.29-3.8a34,34,0,0,0,6.22,0,7.12,7.12,0,0,0,7-6.54,7.27,7.27,0,0,0-6.45-7.64,38,38,0,0,0-4.78-.16l-4.48-.19V51.46h128v17c-2.7,0-5.23-.11-7.74,0-4.8.27-7.76,3.21-7.66,7.45.09,4,3,6.68,7.6,6.91a2.57,2.57,0,0,0,.48,0c6.12-.67,10.33.85,14.68,6.4,11.14,14.21,32.64,12.49,42.53-2.66,1.95-3,3.88-4.19,7.27-3.78a33.14,33.14,0,0,0,6.22,0c4.15-.28,6.63-2.73,6.85-6.58a7.08,7.08,0,0,0-6.37-7.64,30.91,30.91,0,0,0-4.31-.11c-1.43,0-2.86,0-4.64,0V51.25h54.4c8.94,8,11.89,18.22,11.54,29.94S435.19,104.4,435.18,116Z" transform="translate(-36.77 -4.96)"/><path class="cls-5" d="M400.66,476.87a90.14,90.14,0,0,1-38.2,4.48c-42-3.78-73.56-24.24-92.79-61.78-34-66.39,7.53-148.11,81-160.26,17.18-2.84,34.32-2.37,51,3.34a13,13,0,0,0,2.07,1.81c15.1,8.3,28.2,18.91,38.53,32.84Q475,341.36,464,395.05C460,414.8,451,432.2,438,447.45a118.26,118.26,0,0,1-32.85,26.67,12.62,12.62,0,0,0-2.28,2.12l0,0ZM464.19,370a94.25,94.25,0,0,0-94-94.84C318,274.94,275.35,317,275.12,369c-.24,52.28,42.2,95.13,94.33,95.26A94.63,94.63,0,0,0,464.19,370Z" transform="translate(-36.77 -4.96)"/><path class="cls-6" d="M435.19,147.74c-1.91.06-3.82.18-5.74.18H51.56V131a34,34,0,0,1,3.5-.34q188.87,0,377.74,0c.8,0,1.59.1,2.39.15Z" transform="translate(-36.77 -4.96)"/><path class="cls-7" d="M402.88,476.24a12.62,12.62,0,0,1,2.28-2.12A118.26,118.26,0,0,0,438,447.45c12.94-15.25,22-32.65,26-52.4q11-53.73-21.72-97.75c-10.33-13.93-23.43-24.54-38.53-32.84a13,13,0,0,1-2.07-1.81,95.63,95.63,0,0,1,37.92,19.7c30.76,25.48,44.9,58.46,41.42,98.16-4,45.24-35,81.3-75.36,95.18A20.23,20.23,0,0,1,402.88,476.24Z" transform="translate(-36.77 -4.96)"/><path class="cls-8" d="M435.15,261.31l.06-98.81h14.42v109Z" transform="translate(-36.77 -4.96)"/><path class="cls-9" d="M336.33,21c8.79-3.91,17.88,1.11,18.15,10.59q.58,20.31,0,40.64c-.26,9.47-9.37,14.53-18.08,10.59,2.85-4.59,3.76-9.73,3.84-15,.15-10.66.25-21.33-.05-32C340.05,30.69,339.64,25.38,336.33,21Z" transform="translate(-36.77 -4.96)"/><path class="cls-10" d="M153.18,21.21c8.84-4.43,18.18.55,18.44,10.29.35,13.52.32,27.07,0,40.59-.22,9.4-8.54,14.37-17.54,11,1-3.32,2.79-6.62,2.87-10,.32-14,.38-28.06,0-42.08C156.83,27.72,154.49,24.48,153.18,21.21Z" transform="translate(-36.77 -4.96)"/><path class="cls-11" d="M435.18,116c0-11.6-.23-23.22.11-34.81s-2.6-21.92-11.54-29.94c14.38-.63,25.75,9.67,26,23.9.22,12.74.06,25.49.06,38.23,0,.77-.14,1.53-.25,2.62Z" transform="translate(-36.77 -4.96)"/><path class="cls-12" d="M336.33,21c3.31,4.43,3.72,9.74,3.86,14.88.3,10.65.2,21.32.05,32-.08,5.23-1,10.37-3.84,15-5.38-2.11-7-6.59-7.15-11.78-.17-6-.05-12.08-.05-18.13,0-6.52-.06-13,0-19.55C329.28,27.9,330.89,23.3,336.33,21Z" transform="translate(-36.77 -4.96)"/><path class="cls-2" d="M153.18,21.21c1.31,3.27,3.65,6.51,3.75,9.81.42,14,.36,28.06,0,42.08-.08,3.34-1.87,6.64-2.87,10-5.16-2.14-7.49-6.23-7.53-11.6q-.13-19.54,0-39.11C146.62,27.48,148.39,23.39,153.18,21.21Z" transform="translate(-36.77 -4.96)"/><path class="cls-13" d="M276.08,258h14.2c2.31,7.35,1.36,12.79-2.73,15.87C284,276.53,279.91,275,276,275Q276.06,266.48,276.08,258Z" transform="translate(-36.77 -4.96)"/><path class="cls-11" d="M435.19,147.74v-17h14.37v17Z" transform="translate(-36.77 -4.96)"/><path class="cls-14" d="M276.08,258q0,8.52-.05,17c-.9-.76-2.53-1.49-2.58-2.3-.26-4.29-.19-8.6-.08-12.89C273.42,258.27,274,256.87,276.08,258Z" transform="translate(-36.77 -4.96)"/><path class="cls-7" d="M400.66,476.87l2.19-.67Z" transform="translate(-36.77 -4.96)"/><path class="cls-15" d="M432.43,202.74c0,2.87.08,5.75,0,8.62-.27,7.9-5.94,13.95-13.83,14.34-6.05.3-12.14.29-18.19,0a14.48,14.48,0,0,1-14-14.22c-.2-5.75-.19-11.5,0-17.25a14.82,14.82,0,0,1,14.36-14.5c5.74-.26,11.5-.25,17.24,0,8.29.35,14.23,6.59,14.45,14.87.07,2.71,0,5.42,0,8.14Zm-28.91-8.46c-2.09-.61-2.85.26-2.82,2.33.07,4.07.09,8.14,0,12.2-.05,2.2,1,2.74,2.89,2.37h14v-16.9Z" transform="translate(-36.77 -4.96)"/><path class="cls-15" d="M178.25,203.11c0,2.71.07,5.43,0,8.14-.26,7.93-5.89,14-13.74,14.44a184.55,184.55,0,0,1-18.67,0,14.37,14.37,0,0,1-13.61-14.08c-.19-5.75-.16-11.5,0-17.25a14.77,14.77,0,0,1,14.24-14.6c5.89-.28,11.82-.3,17.71,0,8,.43,13.86,6.7,14.1,14.73C178.32,197.36,178.25,200.23,178.25,203.11Zm-28.88-8.82c-2.08-.63-2.87.2-2.83,2.3.07,4.08.09,8.15,0,12.23-.06,2.2,1,2.74,2.89,2.35h14V194.29Z" transform="translate(-36.77 -4.96)"/><path class="cls-16" d="M178.26,266.66c0,2.56,0,5.11,0,7.66-.19,8.39-5.88,14.62-14.23,15.08a158.53,158.53,0,0,1-17.71,0c-8.29-.48-14-6.79-14.14-15.17-.08-5.27-.09-10.54,0-15.81.15-8.61,6.11-14.75,14.71-15,5.59-.18,11.18-.19,16.77,0,8.58.3,14.41,6.45,14.59,15.13C178.3,261.23,178.26,264,178.26,266.66Zm-28.81-8.57c-1.56-.22-2.91-.22-2.89,2,0,4.31,0,8.63,0,12.94,0,2.06,1.05,2.46,2.79,1.86h14.14V258.09Z" transform="translate(-36.77 -4.96)"/><path class="cls-16" d="M345.69,225.79c-2.87,0-5.75.14-8.62,0-8.19-.48-13.95-6.36-14.16-14.52-.14-5.58-.14-11.18,0-16.76a14.76,14.76,0,0,1,14.54-14.76c5.58-.21,11.18-.19,16.77,0A14.89,14.89,0,0,1,369,194.37c.2,5.58.19,11.18,0,16.76-.26,8.33-6.23,14.24-14.64,14.65-2.86.15-5.74,0-8.62,0Zm-6.42-31.55c-.64.46-1.81.91-1.82,1.39q-.21,7.08,0,14.16c0,.5,1.23,1,1.89,1.43H354.3v-17Z" transform="translate(-36.77 -4.96)"/><path class="cls-16" d="M219,306.94c2.87,0,5.75-.11,8.62,0A14.35,14.35,0,0,1,241.69,321c.23,5.9.23,11.82,0,17.72A14.59,14.59,0,0,1,227.18,353c-5.42.17-10.86.12-16.28,0-8.55-.16-14.86-6.17-15.23-14.67-.23-5.58-.22-11.18,0-16.76.34-8.53,6.54-14.41,15.15-14.66,2.72-.07,5.43,0,8.15,0Zm-6.25,14.55c-1.66-.28-2.78.05-2.76,2.09,0,4.27,0,8.54,0,12.8,0,2,1,2.46,2.72,2.09h14.18v-17Z" transform="translate(-36.77 -4.96)"/><path class="cls-17" d="M241.77,266.34c0,2.72.08,5.43,0,8.15-.3,8.45-6,14.49-14.35,14.92a170.92,170.92,0,0,1-17.24,0c-8.32-.4-14.22-6.52-14.52-14.87q-.28-8.15,0-16.29c.29-8.6,6.36-14.63,14.94-14.87q8.15-.23,16.28,0c8.77.24,14.55,6.07,14.87,14.82C241.85,260.91,241.77,263.63,241.77,266.34Zm-29-8.27c-2-.37-3,.29-2.92,2.48.1,3.82.11,7.65,0,11.48-.06,2.11.81,2.92,2.83,2.69l14.2.7V258.07Z" transform="translate(-36.77 -4.96)"/><path class="cls-16" d="M282.47,225.77c-3,0-6.08.16-9.1,0-7.77-.48-13.5-5.92-13.95-13.71a157,157,0,0,1,0-18.66,14.36,14.36,0,0,1,13.66-13.59,167.23,167.23,0,0,1,18.19,0,14.54,14.54,0,0,1,14,13.82,134.51,134.51,0,0,1,0,18.18c-.53,8.23-6.45,13.64-14.74,14-2.71.12-5.43,0-8.14,0ZM276,211.21H291.2c0-5.25,0-10,0-14.73,0-2.18-1.53-2.53-3.29-2.49l-11.94.26c-.93.74-2.61,1.43-2.66,2.22-.27,4.25-.11,8.51-.14,12.77C273.15,211.37,274.51,211.39,276,211.21Z" transform="translate(-36.77 -4.96)"/><path class="cls-15" d="M68.69,330c0-2.87-.09-5.75,0-8.62C69,313.25,74.88,307.24,83,307c5.74-.19,11.5-.18,17.24,0a14.64,14.64,0,0,1,14.52,14.26c.26,5.73.25,11.5,0,17.24A14.88,14.88,0,0,1,99.9,353c-5.59.14-11.19.18-16.77,0a14.71,14.71,0,0,1-14.42-14.37C68.59,335.76,68.69,332.88,68.69,330Zm16.48-8.53c-2.32-.21-2,1.48-2,2.87,0,4.47.09,8.94.14,13.41,5.64,1.94,11.29.48,16.86.85V321.47Z" transform="translate(-36.77 -4.96)"/><path class="cls-16" d="M91.4,225.74c-3,0-6.08.19-9.09,0a14.32,14.32,0,0,1-13.57-14.08c-.19-5.74-.18-11.5,0-17.24a14.67,14.67,0,0,1,14.14-14.64c5.9-.28,11.83-.3,17.72,0a14.84,14.84,0,0,1,14.19,14.7c.2,5.42.16,10.86,0,16.29-.23,8.65-6.13,14.63-14.76,15-2.86.14-5.74,0-8.62,0Zm-6.29-31.5c-.64.46-1.83.9-1.84,1.38q-.21,7.09,0,14.18c0,.49,1.25.95,1.91,1.41h14.94v-17Z" transform="translate(-36.77 -4.96)"/><path class="cls-16" d="M91.75,243.35c2.72,0,5.44-.08,8.15,0,8.57.32,14.62,6.33,14.88,14.94.16,5.42.18,10.86,0,16.28-.28,8.34-6.19,14.43-14.55,14.83-5.73.27-11.5.29-17.24,0-8.35-.44-14.1-6.6-14.28-15-.12-5.42-.13-10.86,0-16.28.2-8.45,6-14.38,14.43-14.77C86,243.24,88.88,243.35,91.75,243.35Zm-6.54,14.7c-.67.47-1.91.91-1.92,1.4q-.23,7.07,0,14.13c0,.46,1.19.88,1.83,1.32q6.15.18,12.31.34c1.84.05,3-.62,3-2.71,0-4.7,0-9.39,0-14.48Z" transform="translate(-36.77 -4.96)"/><path class="cls-18" d="M178.25,330.07c0,2.72.07,5.43,0,8.15A14.83,14.83,0,0,1,163.69,353c-5.74.18-11.5.21-17.24,0a14.81,14.81,0,0,1-14.26-14.57c-.14-5.75-.17-11.5,0-17.25A14.52,14.52,0,0,1,146.27,307c6.06-.21,12.14-.23,18.2,0a14.45,14.45,0,0,1,13.74,14c.14,3,0,6.07,0,9.1Zm-30.73,8.45,1.86-.07h14.11V321.51H149.41c-2-.44-2.95.2-2.88,2.41.14,4.61.12,9.22.17,13.83Z" transform="translate(-36.77 -4.96)"/><path class="cls-16" d="M241.77,203.27c0,2.56.07,5.12,0,7.67-.3,8.56-5.89,14.45-14.35,14.81-5.74.25-11.5.23-17.24,0a14.63,14.63,0,0,1-14.47-14.32c-.27-5.73-.27-11.5,0-17.23.39-8.27,6.61-14.24,14.92-14.49,5.42-.16,10.86-.16,16.28,0,8.56.26,14.57,6.36,14.87,14.94C241.86,197.52,241.77,200.4,241.77,203.27Zm-29.1-9c-1.78-.48-2.71.11-2.7,2.05q0,6.39,0,12.78c0,2,1.12,2.37,2.77,2.1h14.08V194.26Z" transform="translate(-36.77 -4.96)"/><path class="cls-19" d="M464.19,370a94.63,94.63,0,0,1-94.74,94.25c-52.13-.13-94.57-43-94.33-95.26.23-52,42.87-94.08,95.09-93.83A94.25,94.25,0,0,1,464.19,370Zm-72.77,76.59.11,0c1.23-.31,2.49-.54,3.69-.94,54-18,72.41-85.66,35-128.52-10.74-12.29-23.84-21-40-24.69-12-3.85-24.22-3.79-36.36-1.38-35,6.94-60.87,35.87-64.05,72.31a79.47,79.47,0,0,0,48.49,80c16.45,7,33.46,8.81,50.88,3.77Z" transform="translate(-36.77 -4.96)"/><path class="cls-14" d="M403.52,194.28h14.1v16.9h-14Q403.55,202.72,403.52,194.28Z" transform="translate(-36.77 -4.96)"/><path class="cls-20" d="M403.52,194.28q0,8.44.07,16.9c-1.92.37-2.94-.17-2.89-2.37.09-4.06.07-8.13,0-12.2C400.67,194.54,401.43,193.67,403.52,194.28Z" transform="translate(-36.77 -4.96)"/><path class="cls-14" d="M149.37,194.29h14.08v16.88h-14Z" transform="translate(-36.77 -4.96)"/><path class="cls-20" d="M149.37,194.29l.06,16.88c-1.91.39-3-.15-2.89-2.35.09-4.08.07-8.15,0-12.23C146.5,194.49,147.29,193.66,149.37,194.29Z" transform="translate(-36.77 -4.96)"/><path class="cls-21" d="M149.45,258.09h14v16.77H149.35Q149.39,266.47,149.45,258.09Z" transform="translate(-36.77 -4.96)"/><path class="cls-20" d="M149.45,258.09q0,8.39-.1,16.77c-1.74.6-2.79.2-2.79-1.86,0-4.31,0-8.63,0-12.94C146.54,257.87,147.89,257.87,149.45,258.09Z" transform="translate(-36.77 -4.96)"/><path class="cls-14" d="M339.27,194.24h15v17H339.35Q339.3,202.73,339.27,194.24Z" transform="translate(-36.77 -4.96)"/><path class="cls-20" d="M339.27,194.24q0,8.49.08,17c-.66-.48-1.88-.93-1.89-1.43q-.22-7.08,0-14.16C337.46,195.15,338.63,194.7,339.27,194.24Z" transform="translate(-36.77 -4.96)"/><path class="cls-14" d="M212.72,321.49h14.14v17H212.68Q212.7,330,212.72,321.49Z" transform="translate(-36.77 -4.96)"/><path class="cls-20" d="M212.72,321.49q0,8.49,0,17c-1.73.37-2.74-.09-2.72-2.09,0-4.26,0-8.53,0-12.8C209.94,321.54,211.06,321.21,212.72,321.49Z" transform="translate(-36.77 -4.96)"/><path class="cls-21" d="M212.76,258.07h14.11v17.35l-14.2-.7Z" transform="translate(-36.77 -4.96)"/><path class="cls-20" d="M212.76,258.07l-.09,16.65c-2,.23-2.89-.58-2.83-2.69.11-3.83.1-7.66,0-11.48C209.79,258.36,210.77,257.7,212.76,258.07Z" transform="translate(-36.77 -4.96)"/><path class="cls-13" d="M276,194.25,287.9,194c1.76,0,3.27.31,3.29,2.49,0,4.74,0,9.48,0,14.73H276Q276,202.72,276,194.25Z" transform="translate(-36.77 -4.96)"/><path class="cls-20" d="M276,194.25q0,8.48.08,17c-1.53.18-2.89.16-2.88-2,0-4.26-.13-8.52.14-12.77C273.35,195.68,275,195,276,194.25Z" transform="translate(-36.77 -4.96)"/><path class="cls-14" d="M85.17,321.47h15V338.6c-5.57-.37-11.22,1.09-16.86-.85.64-1.19,1.75-2.36,1.82-3.58C85.32,330,85.18,325.71,85.17,321.47Z" transform="translate(-36.77 -4.96)"/><path class="cls-20" d="M85.17,321.47c0,4.24.15,8.48-.07,12.7-.07,1.22-1.18,2.39-1.82,3.58,0-4.47-.12-8.94-.14-13.41C83.13,323,82.85,321.26,85.17,321.47Z" transform="translate(-36.77 -4.96)"/><path class="cls-21" d="M85.11,194.24h15v17H85.19Q85.16,202.74,85.11,194.24Z" transform="translate(-36.77 -4.96)"/><path class="cls-20" d="M85.11,194.24q0,8.49.08,17c-.66-.46-1.89-.92-1.91-1.41q-.23-7.08,0-14.18C83.28,195.14,84.47,194.7,85.11,194.24Z" transform="translate(-36.77 -4.96)"/><path class="cls-21" d="M85.21,258.05h15.24c0,5.09,0,9.78,0,14.48,0,2.09-1.2,2.76-3,2.71q-6.15-.15-12.31-.34Q85.16,266.47,85.21,258.05Z" transform="translate(-36.77 -4.96)"/><path class="cls-20" d="M85.21,258.05q-.06,8.43-.11,16.85c-.64-.44-1.82-.86-1.83-1.32q-.19-7.06,0-14.13C83.3,259,84.54,258.52,85.21,258.05Z" transform="translate(-36.77 -4.96)"/><path class="cls-14" d="M149.41,321.51h14.08v16.94H149.38Z" transform="translate(-36.77 -4.96)"/><path class="cls-20" d="M149.41,321.51l0,16.94-1.86.07-.82-.77c0-4.61,0-9.22-.17-13.83C146.46,321.71,147.42,321.07,149.41,321.51Z" transform="translate(-36.77 -4.96)"/><path class="cls-14" d="M146.7,337.75l.82.77Z" transform="translate(-36.77 -4.96)"/><path class="cls-14" d="M212.67,194.26h14.15v16.93H212.74Q212.71,202.73,212.67,194.26Z" transform="translate(-36.77 -4.96)"/><path class="cls-20" d="M212.67,194.26q0,8.46.07,16.93c-1.65.27-2.79-.07-2.77-2.1q0-6.39,0-12.78C210,194.37,210.89,193.78,212.67,194.26Z" transform="translate(-36.77 -4.96)"/><path class="cls-22" d="M389.19,447.09c-17.42,5-34.43,3.22-50.88-3.77a79.47,79.47,0,0,1-48.49-80c3.18-36.44,29-65.37,64.05-72.31,12.14-2.41,24.37-2.47,36.36,1.38a42,42,0,0,0,4,3.2,81.33,81.33,0,0,1,23.38,21.45c14.93,20.84,20.81,43.84,15.74,69.28-4.95,24.89-18.56,43.79-39.64,57.58a11.62,11.62,0,0,0-2.19,2.64l-.11,0Zm2.6-70.19c5.81,0,11.39.11,17,0,4.75-.13,7.9-3.19,7.87-7.28s-3.1-6.95-8-7c-4.63-.1-9.27.11-13.89-.12-1.29-.06-3.2-.84-3.68-1.85a25.47,25.47,0,0,0-14.24-13V342.7c0-9.42.07-18.84,0-28.26-.06-4.63-2.81-7.41-6.95-7.48s-7,2.7-7.36,7.18c-.17,2.54-.05,5.11-.05,7.66v25.64c-12.31,6.35-17.35,15.19-15.4,26.57,1.58,9.22,9.83,17.18,19.06,18.41C377.38,393.91,386,388.78,391.79,376.9Z" transform="translate(-36.77 -4.96)"/><path class="cls-9" d="M391.53,446.58a11.62,11.62,0,0,1,2.19-2.64c21.08-13.79,34.69-32.69,39.64-57.58,5.07-25.44-.81-48.44-15.74-69.28a81.33,81.33,0,0,0-23.38-21.45,42,42,0,0,1-4-3.2c16.14,3.69,29.24,12.4,40,24.69,37.42,42.86,19,110.49-35,128.52C394,446,392.76,446.27,391.53,446.58Z" transform="translate(-36.77 -4.96)"/><path class="cls-9" d="M389.19,447.09l2.23-.47Z" transform="translate(-36.77 -4.96)"/><path class="cls-15" d="M391.79,376.9c-5.76,11.88-14.41,17-25.68,15.52-9.23-1.23-17.48-9.19-19.06-18.41-1.95-11.38,3.09-20.22,15.4-26.57V321.8c0-2.55-.12-5.12.05-7.66.32-4.48,3.26-7.25,7.36-7.18s6.89,2.85,6.95,7.48c.11,9.42,0,18.84,0,28.26v4.87a25.47,25.47,0,0,1,14.24,13c.48,1,2.39,1.79,3.68,1.85,4.62.23,9.26,0,13.89.12,4.87.1,7.93,2.89,8,7s-3.12,7.15-7.87,7.28C403.18,377,397.6,376.9,391.79,376.9Zm-22.12,1.31a8.73,8.73,0,0,0,8.78-8.28,9,9,0,0,0-8.66-9,8.71,8.71,0,0,0-8.64,8.9A8.34,8.34,0,0,0,369.67,378.21Z" transform="translate(-36.77 -4.96)"/><path class="cls-23" d="M369.67,378.21a8.34,8.34,0,0,1-8.52-8.4,8.71,8.71,0,0,1,8.64-8.9,9,9,0,0,1,8.66,9A8.73,8.73,0,0,1,369.67,378.21Z" transform="translate(-36.77 -4.96)"/></svg>