<svg id="Layer_1" data-name="Layer 1" xmlns="http://www.w3.org/2000/svg" viewBox="0 0 452.92 480.27"><defs><style>.cls-1{fill:#040404;}.cls-2{fill:#ecf5fd;}.cls-3{fill:#030303;}.cls-4{fill:#cae1f8;}.cls-5{fill:#c9e1f7;}.cls-6{fill:#ecf4fc;}.cls-7{fill:#b1d0f0;}.cls-8{fill:#060606;}.cls-9{fill:#050506;}.cls-10{fill:#fd6c79;}.cls-11{fill:#fc8a93;}.cls-12{fill:#6c6d7d;}.cls-13{fill:#575764;}.cls-14{fill:#e9eaea;}.cls-15{fill:#020202;}</style></defs><path class="cls-1" d="M141.51,490.94q-28-27.88-56.06-55.77c-12-11.91-23.75-24-35.86-35.71a15.17,15.17,0,0,1-5-11.91q.07-130.51-.1-261c0-26.87.48-53.74-.13-80.6C43.92,23.87,60.8,10.59,79.86,10.67c102,.43,204,.19,306,.21,16.33,0,28.8,9.18,32.61,24.14a40.17,40.17,0,0,1,1.09,9.73q.12,43.11,0,86.22c0,7-1.74,9.14-8.05,10.54-6.32-1.41-8-3.54-8-10.55,0-28.74,0-57.48,0-86.22,0-11.65-6.38-17.88-18-17.88q-153.46,0-306.93,0a24.67,24.67,0,0,0-5.57.48c-8.21,1.94-12.38,8-12.38,17.88q0,117.85,0,235.71c0,1.55.16,3.1.24,4.66-.08.92-.23,1.85-.23,2.77q0,45.57,0,91.15c0,1,.15,2.08.24,3.27H105c1.56.07,3.12.18,4.67.19,5.16,0,10.32-.05,15.47,0,15.35.22,25.21,10,27.7,27.29V475h231c13.9,0,19.72-5.75,19.73-19.51q0-42.88,0-85.78c0-6.95,1.59-8.93,8.07-10.57,6.26,1.65,8,3.7,8,10.16,0,29.48.14,59,0,88.44-.1,17.21-9.56,28.57-26.39,32.5-.17,0-.26.48-.38.74ZM74.62,399l62,62c0-15.82.1-32.83,0-49.84-.06-7.39-4.53-12.1-11.45-12.15C107.81,398.91,90.47,399,74.62,399Z" transform="translate(-44.4 -10.67)"/><path class="cls-2" d="M60.86,285.6c-.08-1.56-.24-3.11-.24-4.66q0-117.85,0-235.71c0-9.89,4.17-15.94,12.38-17.88a24.67,24.67,0,0,1,5.57-.48q153.47,0,306.93,0c11.65,0,18,6.23,18,17.88.06,28.74,0,57.48,0,86.22,0,7,1.68,9.14,8,10.55L411.47,161a10.49,10.49,0,0,1-2.1-.94c-5.51-4-8.65-3.76-12.76,1.32-5.86,7.24-11.39,14.76-17.47,21.81-4.11,4.76-8.91,8.92-13.41,13.35,0-8.9-.53-17.82,0-26.69.88-15.92-11.15-29.13-28.74-29q-105.42.62-210.84,0c-16.89-.1-29,12.41-28.77,29.07.5,37.16.16,74.34.15,111.51,0,3.27-.11,6.55-.17,9.82-3.5-.5-7-1-10.49-1.5Q73.84,287.68,60.86,285.6ZM259.75,92.88q28.58,0,57.14,0a25.89,25.89,0,0,0,5.58-.36,7.16,7.16,0,0,0,5.93-6.91c.32-3.86-1.39-6.74-5-8.07a16.39,16.39,0,0,0-5.52-.69q-57.84,0-115.68,0a16.58,16.58,0,0,0-5.08.61c-3.71,1.21-5.49,4-5.29,7.88A7.24,7.24,0,0,0,198,92.55a24.91,24.91,0,0,0,5.12.32Q231.42,92.9,259.75,92.88ZM153.16,92.8v0c3.11,0,6.24.19,9.33,0,4.46-.35,7.26-3.34,7.41-7.5.17-4.35-2.59-7.94-7.17-8.21a170.63,170.63,0,0,0-18.65,0c-4.68.24-7.46,3.63-7.41,8s2.9,7.43,7.63,7.78C147.24,93,150.2,92.8,153.16,92.8Z" transform="translate(-44.4 -10.67)"/><path class="cls-3" d="M97.32,291.2c.06-3.27.17-6.55.17-9.82,0-37.17.35-74.35-.15-111.51-.23-16.66,11.88-29.17,28.77-29.07q105.42.6,210.84,0c17.59-.1,29.62,13.11,28.74,29-.49,8.87,0,17.79,0,26.69v15.35l46.84-40.57c4.53-3.8,9.1-7.56,13.6-11.4,18.4-15.7,41.92-13.79,58.41,4,15.92,17.16,15.07,36.71,7.51,49.4A55,55,0,0,1,482.23,225c-7,6.56-14.53,12.64-21.94,19,6.52,8.6,9.11,17.88,6.64,28.32a32.34,32.34,0,0,1-11,17.51q-19.56,16.74-39.09,33.52c-1.89,1.62-3.67,3.36-5.49,5L404.54,334c-4.86,4-9.45,4-12.67-.06s-2.3-8.12,2.28-12.14l17.47-15.34c11.95-10.19,24-20.27,35.82-30.61,5-4.35,6.85-14.87.15-21.11L411.4,286.22,358,332c-6.2,5.23-12.29,10.59-18.66,15.6a16,16,0,0,1-7.37,3.49c-14.08,1.78-28.2,3.25-42.32,4.69-8.14.83-16.37.6-22.73,7.52-2.61,2.84-6.76,2.13-9.75-.68a7.33,7.33,0,0,1-1.57-9.39c1-1.83,3.12-3,4.4-4.75,1.87-2.52,4.21-5.05,5-8,4.66-16.47,8.75-33.1,13.47-49.56a20.05,20.05,0,0,1,5.74-9.13c19.25-16.86,38.54-33.69,58.31-49.93,5.74-4.73,8.39-9.5,6.89-16.63q.09-22.26.17-44.5c0-10.85-3-13.79-14-13.79H127.55c-1.41,0-2.82,0-4.22.05-5.29.31-9.51,3.74-9.65,9-.33,11.82-.11,23.65-.11,35.72h47.9c0-2.16,0-4.15,0-6.13.05-3.9-.17-7.83.24-11.69a7.84,7.84,0,0,1,15.59-.12,51.26,51.26,0,0,1,.2,6.08c0,4,0,8,0,12.1H305.74c1.56,0,3.14-.06,4.69.08,4.17.39,6.42,3,7.15,6.87a7.5,7.5,0,0,1-5.3,8.35,21,21,0,0,1-6,.67q-61.64.06-123.25,0h-5.27v53.86h5.36c18.75,0,37.49-.06,56.24.07,2.72,0,5.43,1,8.15,1.48,2.54,2.69,3.8,5.81,2.42,9.38-1.67,4.32-5.37,5.15-9.57,5.14-19.2-.06-38.4,0-57.61-.05h-5v54h41c7,0,10.87,2.9,10.81,8.1s-3.76,7.87-11,7.88H177.5c0,4.26.09,8.13,0,12-.16,5.46-3,8.63-7.68,8.76-4.88.12-8.05-3.14-8.31-8.7-.18-3.74-.2-7.47-.3-11.21l-.9-.69L105,358c-5.87-1.86-7.45-4-7.47-10.15Q97.4,319.53,97.32,291.2ZM297.1,338.78c2.45-.24,4.9-.4,7.34-.71,7-.89,14-1.84,20.94-2.76,2.21-.81,4.88-1.08,6.56-2.51q41.91-35.62,83.59-71.51c7.31-6.27,14.59-12.57,22-19-4.79-5.59-9.27-10.78-13.69-16-3.84-4.56-3.83-9.18-.07-12.38s8.38-2.37,12.26,2.06c4.52,5.14,8.95,10.36,13.71,15.9,7.53-6.46,14.88-12.7,22.15-19,12.05-10.45,12.63-25.2,1.52-36.9-3.41-2.87-6.4-6.63-10.29-8.43-9.94-4.59-19-2.08-27.17,5Q381,219.88,325.87,267c-9.18,7.88-18.34,15.78-27.76,23.88l13,14.59c.93,1.22,1.79,2.48,2.78,3.65,4.81,5.7,5,7.76,1,13.89-5,2.32-9.38,1.44-12.95-2.88l-11.23-13.5c-3.07,11.57-5.9,22.28-9,33.76Zm-182.79,2.9h46.95v-49.5c.07-1.33.14-2.66.21-4H113.4l.25,4.95v47.82Zm46.92-123.35H113.71v53.3h47.52Z" transform="translate(-44.4 -10.67)"/><path class="cls-4" d="M358,332l53.41-45.77.22,20.2-17.47,15.34c-4.58,4-5.39,8.27-2.28,12.14s7.81,4,12.67.06l6.85-5.56q.11,15.35.23,30.7c-6.48,1.64-8.06,3.62-8.07,10.57q0,42.88,0,85.78c0,13.76-5.83,19.51-19.73,19.51h-231V410.3h30.89c2.18,6.1,3.93,7.56,9.64,7.56q73.07,0,146.12,0c14.77,0,25.87-11.39,26.1-26.21.09-5.62.05-11.24,0-16.86s-1.73-7.86-7.49-9.64Q358,348.55,358,332Z" transform="translate(-44.4 -10.67)"/><path class="cls-5" d="M412.57,171.3l-46.84,40.57V196.52c4.5-4.43,9.3-8.59,13.41-13.35,6.08-7,11.61-14.57,17.47-21.81,4.11-5.08,7.25-5.32,12.76-1.32a10.49,10.49,0,0,0,2.1.94Q412,166.14,412.57,171.3Z" transform="translate(-44.4 -10.67)"/><path class="cls-6" d="M358,332q0,16.56.1,33.12c-6.31,1-8.42,3.38-8.47,9.55,0,4.68,0,9.36,0,14,0,9.8-3.39,13.18-13.23,13.18H194.46c-7,0-9,1.59-10.75,8.4H152.82c-2.49-17.33-12.35-27.07-27.7-27.29-5.15-.08-10.31,0-15.47,0-1.55,0-3.11-.12-4.67-.19V358l55.32,0,.9.69c.1,3.74.12,7.47.3,11.21.26,5.56,3.43,8.82,8.31,8.7,4.66-.13,7.52-3.3,7.68-8.76.11-3.86,0-7.73,0-12h41.12c7.25,0,10.95-2.66,11-7.88s-3.79-8.1-10.81-8.1h-41v-54h5c19.21,0,38.41,0,57.61.05,4.2,0,7.9-.82,9.57-5.14,1.38-3.57.12-6.69-2.42-9.38,9.89-4,20-7.54,29.63-12.15a298.55,298.55,0,0,0,62.9-40.4c2.75-2.3,6.23-3.73,9.37-5.57,1.5,7.13-1.15,11.9-6.89,16.63-19.77,16.24-39.06,33.07-58.31,49.93a20.05,20.05,0,0,0-5.74,9.13c-4.72,16.46-8.81,33.09-13.47,49.56-.82,2.9-3.16,5.43-5,8-1.28,1.73-3.4,2.92-4.4,4.75a7.33,7.33,0,0,0,1.57,9.39c3,2.81,7.14,3.52,9.75.68,6.36-6.92,14.59-6.69,22.73-7.52,14.12-1.44,28.24-2.91,42.32-4.69a16,16,0,0,0,7.37-3.49C345.7,342.58,351.79,337.22,358,332Z" transform="translate(-44.4 -10.67)"/><path class="cls-4" d="M105,358v24.79H60.87c-.09-1.19-.24-2.23-.24-3.27q0-45.57,0-91.15c0-.92.15-1.85.23-2.77q13,2.06,26,4.1c3.49.54,7,1,10.49,1.5q.09,28.33.18,56.65C97.52,354,99.1,356.14,105,358Z" transform="translate(-44.4 -10.67)"/><path class="cls-7" d="M74.62,399c15.85,0,33.19-.08,50.51,0,6.92.05,11.39,4.76,11.45,12.15.14,17,0,34,0,49.84Z" transform="translate(-44.4 -10.67)"/><path class="cls-8" d="M259.75,92.88q-28.33,0-56.67,0a24.91,24.91,0,0,1-5.12-.32,7.24,7.24,0,0,1-6.15-7.23c-.2-3.84,1.58-6.67,5.29-7.88a16.58,16.58,0,0,1,5.08-.61q57.84,0,115.68,0a16.39,16.39,0,0,1,5.52.69c3.63,1.33,5.34,4.21,5,8.07a7.16,7.16,0,0,1-5.93,6.91,25.89,25.89,0,0,1-5.58.36Q288.31,92.91,259.75,92.88Z" transform="translate(-44.4 -10.67)"/><path class="cls-9" d="M153.16,92.8c-3,0-5.92.18-8.86,0-4.73-.35-7.59-3.4-7.63-7.78s2.73-7.75,7.41-8a170.63,170.63,0,0,1,18.65,0c4.58.27,7.34,3.86,7.17,8.21-.15,4.16-3,7.15-7.41,7.5-3.09.24-6.22,0-9.33,0Z" transform="translate(-44.4 -10.67)"/><path class="cls-10" d="M314.9,323c4-6.13,3.82-8.19-1-13.89-1-1.17-1.85-2.43-2.78-3.65,1.48-1.35,2.92-2.73,4.43-4,10.07-8.8,20.11-17.64,30.23-26.37,10.36-8.94,20.84-17.73,31.2-26.65,10-8.63,19.92-17.38,29.93-26,10.59-9.14,21.13-18.34,31.91-27.26,6.43-5.32,12.94-10.72,20.07-15,4.19-2.5,9.66-2.86,14.55-4.19,11.11,11.7,10.53,26.45-1.52,36.9-7.27,6.32-14.62,12.56-22.15,19-4.76-5.54-9.19-10.76-13.71-15.9-3.88-4.43-8.6-5.17-12.26-2.06s-3.77,7.82.07,12.38c4.42,5.24,8.9,10.43,13.69,16-7.45,6.41-14.73,12.71-22,19q-41.76,35.81-83.59,71.51c-1.68,1.43-4.35,1.7-6.56,2.51Z" transform="translate(-44.4 -10.67)"/><path class="cls-11" d="M473.45,176c-4.89,1.33-10.36,1.69-14.55,4.19-7.13,4.27-13.64,9.67-20.07,15-10.78,8.92-21.32,18.12-31.91,27.26-10,8.64-19.91,17.39-29.93,26-10.36,8.92-20.84,17.71-31.2,26.65-10.12,8.73-20.16,17.57-30.23,26.37-1.51,1.31-2.95,2.69-4.43,4l-13-14.59c9.42-8.1,18.58-16,27.76-23.88Q380.93,219.78,436,172.52c8.22-7.08,17.23-9.59,27.17-5C467.05,169.32,470,173.08,473.45,176Z" transform="translate(-44.4 -10.67)"/><path class="cls-2" d="M113.65,340.93V293.11l47.61-.93v49.5H114.31Z" transform="translate(-44.4 -10.67)"/><path class="cls-12" d="M297.1,338.78l-15.33,1.61c3.05-11.48,5.88-22.19,9-33.76L302,320.13Q299.52,329.46,297.1,338.78Z" transform="translate(-44.4 -10.67)"/><path class="cls-13" d="M297.1,338.78q2.41-9.33,4.85-18.65c3.57,4.32,7.9,5.2,12.95,2.88l10.48,12.3c-7,.92-13.95,1.87-20.94,2.76C302,338.38,299.55,338.54,297.1,338.78Z" transform="translate(-44.4 -10.67)"/><path class="cls-14" d="M161.26,292.18l-47.61.93-.25-4.95h48.07C161.4,289.52,161.33,290.85,161.26,292.18Z" transform="translate(-44.4 -10.67)"/><path class="cls-14" d="M113.65,340.93l.66.75Z" transform="translate(-44.4 -10.67)"/><path class="cls-4" d="M161.19,358.71l-.9-.69Z" transform="translate(-44.4 -10.67)"/><path class="cls-15" d="M183.71,410.3c1.74-6.81,3.75-8.4,10.75-8.4H336.38c9.84,0,13.21-3.38,13.23-13.18,0-4.69,0-9.37,0-14,.05-6.17,2.16-8.51,8.47-9.55,5.76,1.78,7.44,3.89,7.49,9.64s.08,11.24,0,16.86c-.23,14.82-11.33,26.18-26.1,26.21q-73.05.17-146.12,0C187.64,417.86,185.89,416.4,183.71,410.3Z" transform="translate(-44.4 -10.67)"/></svg>