<svg id="Layer_1" data-name="Layer 1" xmlns="http://www.w3.org/2000/svg" viewBox="0 0 492.05 492.17"><defs><style>.cls-1{fill:#030202;}.cls-2{fill:#fce36b;}.cls-3{fill:#fca444;}.cls-4{fill:#e5882c;}.cls-5{fill:#e3872c;}.cls-6{fill:#f8af63;}.cls-7{fill:#fbb66e;}.cls-8{fill:#fdc547;}.cls-9{fill:#030301;}</style></defs><path class="cls-1" d="M5,296.15V207.73a9.91,9.91,0,0,0,1-2.33c1.19-6.93,2-13.93,3.48-20.8,9.06-42,29.89-77.44,60.38-107.41C75,72.09,79,71.9,85,76.33c3.62,6.26,3.1,9.23-1.66,14.56C75.5,99.71,67,108.15,60.24,117.78c-37.62,53.41-47,111.36-23.86,172.86,20.18,53.65,59.11,90.44,110.56,114.14,47.89,22.07,98.13,27.79,149.94,18.27,53.15-9.78,98.64-33.79,134.29-74.89,28.95-33.36,45.19-72.18,46.45-116.58,1.38-48.77-15-91.52-47.13-127.82-45.08-51-103-75.49-170.24-78.33C207.67,23.22,158.9,36.35,114.74,65.52c-5.85,3.86-8.91,3.58-14.67-1-3.27-7.3-2.22-10.93,4.49-15.33,2.53-1.67,5.08-3.33,7.68-4.89C171.67,8.7,235.71-1.8,303.33,11.06c61.13,11.62,112.06,41.31,150.61,90.72,24.59,31.51,39.42,67.29,42,107.3,1.52,23.44,1,47,1,70.56a185.66,185.66,0,0,1-8.32,54.82c-18,58.74-56.05,100.93-108.76,130.84-5.75,3.26-9.79,2-14.36-3.93-1.09-7.84,0-9.72,6.82-13.89,7.13-4.36,14.05-9.08,21.05-13.65,37-26.27,63.07-60.61,76.65-104.12a8.4,8.4,0,0,0-.27-2.3c-1.32,2.06-2.2,3.37-3,4.7-10.95,17.82-23.85,34.11-39.62,47.82-10.81,9.4-22.58,17.69-33.93,26.47-.71.35-1.45.65-2.13,1.06a266,266,0,0,1-92,35l-1.18.49h0c-1.58.14-3.16.32-4.75.42-17,1-34,2.72-51,2.8-12.52.05-25.06-2-37.59-3.14a14.3,14.3,0,0,0-1.73-.71c-17-4.84-34.47-8.57-51-14.8-14.84-5.6-28.66-13.93-42.93-21.05a3.28,3.28,0,0,0-.63-.7c-29.94-19.2-54.56-43.66-73.24-74a11.11,11.11,0,0,0-2.27-2.09l-1,.78c3,7.49,5.65,15.14,9,22.44,15.31,33.08,38.11,60,67.91,80.91,12.76,7.51,25.16,15.77,38.39,22.34a193.79,193.79,0,0,0,55.9,17.79l1,.12a5.36,5.36,0,0,0,1.29.6c19.12,3.42,38.41,5.07,57.79,3.81,11.74-.77,23.4-2.89,35.09-4.4l1-.14c11.8-3.09,23.63-6.05,35.38-9.32,6.84-1.91,9.62-1.19,13.92,4.62,1.59,7.24-.24,11.55-7.09,13.36-17.1,4.5-34.31,8.59-51.54,12.55-6.08,1.4-12.35,1.95-18.54,2.88H229.84c-6-.95-12.06-1.95-18.11-2.84C163,488,119.29,469.39,81.67,437.36c-38.39-32.7-63.75-73.3-73.35-123.2C7.17,308.16,6.08,302.15,5,296.15Z" transform="translate(-4.96 -5.79)"/><path class="cls-2" d="M85,76.33l15-11.8c5.76,4.57,8.82,4.85,14.67,1,44.16-29.17,92.93-42.3,145.51-40.09,67.23,2.84,125.16,27.36,170.24,78.33,32.1,36.3,48.51,79.05,47.13,127.82-1.26,44.4-17.5,83.22-46.45,116.58-35.65,41.1-81.14,65.11-134.29,74.89-51.81,9.52-102,3.8-149.94-18.27-51.45-23.7-90.38-60.49-110.56-114.14-23.14-61.5-13.76-119.45,23.86-172.86C67,108.15,75.5,99.71,83.38,90.89,88.14,85.56,88.66,82.59,85,76.33ZM359.72,93.46l-17.4-8.77c1.43-7.93-.51-11.19-8.28-14.25a222.32,222.32,0,0,0-126.79-11.5C159,68.45,118.09,91.18,87.35,130.11c-29,36.7-40.28,78.44-31.46,124.75,7.37,38.67,28.07,69.55,57.72,94.81,5.58,4.76,9.39,4.79,15.37.3.92.64,1.87,1.23,2.76,1.9q6.36,4.85,12.68,9.72c-.55,7.62.64,9.86,7.53,13.22q63.27,30.94,132.94,20.41c46.12-7,86.59-25.9,118.79-60.11,36.55-38.84,52.47-84.73,42.24-137.87-8.75-45.45-35.17-79.41-72.44-105.58C368.59,88.23,365.09,88.91,359.72,93.46Z" transform="translate(-4.96 -5.79)"/><path class="cls-3" d="M365.48,461.37l-17.15,7.8c-4.3-5.81-7.08-6.53-13.92-4.62-11.75,3.27-23.58,6.23-35.38,9.32q0-15.36,0-30.73c0-.24,0-.48,0-.72a266,266,0,0,0,92-35c.68-.41,1.42-.71,2.13-1.06q.09,13.73.19,27.43c-7,4.57-13.92,9.29-21.05,13.65C365.5,451.65,364.39,453.53,365.48,461.37Z" transform="translate(-4.96 -5.79)"/><path class="cls-4" d="M298.07,474c-11.69,1.51-23.35,3.63-35.09,4.4-19.38,1.26-38.67-.39-57.79-3.81a5.36,5.36,0,0,1-1.29-.6q-.08-15.35-.16-30.71a1.15,1.15,0,0,1,.69-.31c12.53,1.12,25.07,3.19,37.59,3.14,17-.08,34-1.78,51-2.8,1.59-.1,3.17-.28,4.75-.42Z" transform="translate(-4.96 -5.79)"/><path class="cls-3" d="M202.93,473.88A193.79,193.79,0,0,1,147,456.09c-13.23-6.57-25.63-14.83-38.39-22.34q.08-13.67.16-27.33c14.27,7.12,28.09,15.45,42.93,21.05,16.5,6.23,33.94,10,51,14.8a14.3,14.3,0,0,1,1.73.71,1.1,1.1,0,0,0-.68.31,26.18,26.18,0,0,0-.78,4.5C202.89,456.49,202.93,465.18,202.93,473.88Z" transform="translate(-4.96 -5.79)"/><path class="cls-5" d="M393.35,433.83q-.09-13.71-.19-27.43c11.35-8.78,23.12-17.07,33.93-26.47,15.77-13.71,28.67-30,39.62-47.82.82-1.33,1.7-2.64,3-4.7a8.4,8.4,0,0,1,.27,2.3C456.42,373.22,430.36,407.56,393.35,433.83Z" transform="translate(-4.96 -5.79)"/><path class="cls-5" d="M108.8,406.42q-.09,13.66-.16,27.33c-29.8-21-52.6-47.83-67.91-80.91-3.38-7.3-6-14.95-9-22.44l1-.78a11.11,11.11,0,0,1,2.27,2.09c18.68,30.35,43.3,54.81,73.24,74A3.28,3.28,0,0,1,108.8,406.42Z" transform="translate(-4.96 -5.79)"/><path class="cls-6" d="M202.93,473.88c0-8.7,0-17.39,0-26.09a26.18,26.18,0,0,1,.78-4.5L203.9,474Z" transform="translate(-4.96 -5.79)"/><path class="cls-7" d="M298.07,474l-.27-31.11h0l1.2.23q0,15.38,0,30.73Z" transform="translate(-4.96 -5.79)"/><path class="cls-4" d="M299,443.14l-1.2-.23,1.18-.49C299,442.66,299,442.9,299,443.14Z" transform="translate(-4.96 -5.79)"/><path class="cls-8" d="M144.42,361.59q-6.33-4.86-12.68-9.72c-.89-.67-1.84-1.26-2.76-1.9,3.33-6.78,2.41-9.75-3-15.13-8.4-8.31-17.38-16.27-24.44-25.64-30.39-40.31-38.12-84.59-19.5-132,14.5-36.93,41.45-63.2,76.33-80.91,54.79-27.81,111.23-29.59,168.54-7.88,7.78,3,10.57,2.33,15.45-3.7l17.4,8.77c-3,7.29-2.05,10.49,4.47,15.1a162,162,0,0,1,36.37,34.63C425,175.61,435.21,211.79,427,252c-8.87,43.35-34.36,75.59-71.72,97.58C292.57,386.5,227.53,388.3,161.52,358,152.77,354,149.09,354.56,144.42,361.59Zm125.76-171.8c-.16,1.65-.18,2.91-.43,4.12-4.45,21.68-22.2,36.08-45,36.4-10.09.15-20.18-.07-30.27.08-6.79.1-10.84,3.84-10.85,9.57s4.12,9.52,10.81,9.63c7,.13,14.15-.5,21.12.21,5.4.55,11.33,1.58,15.8,4.36a61.64,61.64,0,0,1,15.43,14.06c9,11.49,12,25.49,14.9,39.52,2.44,11.68,6.06,23.14,9.53,34.58a9.05,9.05,0,0,0,10.06,6.44c4.31-.73,7.57-3.08,8.12-7.61.28-2.42-.41-5-1-7.46-2.83-11.29-6.19-22.47-8.59-33.85-3.68-17.43-9.16-33.95-20.93-47.76-2.24-2.62-4.71-5-7.29-7.78,22.62-11.3,35.3-29.28,38.25-54.51,5.85,0,11.59,0,17.32,0,6.88-.07,11-3.49,11.13-9.21.17-5.92-4-9.82-11-10-5.28-.13-10.58.09-15.85-.12-1.31-.05-3.47-.89-3.72-1.79-2.91-10.48-8.25-19.59-16.13-28.38h5.47c10.4,0,20.82.12,31.22-.06,6.15-.11,10.18-4.35,10-10-.16-5.44-4.09-9.17-10.18-9.18-38.11-.06-76.22-.1-114.33.12-2.68,0-6.48,1.49-7.75,3.54a14,14,0,0,0-1.33,9.69c.94,4.11,4.84,5.77,9,5.8,10.09.09,20.19-.31,30.26.17a62.34,62.34,0,0,1,17.79,3c12.69,4.54,21.18,13.67,26.33,27.08h-5.87q-32.67,0-65.34,0a26,26,0,0,0-6.65.67,9.44,9.44,0,0,0,1.38,18.33,38.52,38.52,0,0,0,5.27.2q33.87,0,67.74,0Z" transform="translate(-4.96 -5.79)"/><path class="cls-9" d="M144.42,361.59c4.67-7,8.35-7.59,17.1-3.58,66,30.29,131,28.49,193.76-8.44,37.36-22,62.85-54.23,71.72-97.58,8.21-40.2-2-76.38-26.44-108.8a162,162,0,0,0-36.37-34.63c-6.52-4.61-7.44-7.81-4.47-15.1,5.37-4.55,8.87-5.23,13.76-1.8,37.27,26.17,63.69,60.13,72.44,105.58,10.23,53.14-5.69,99-42.24,137.87-32.2,34.21-72.67,53.08-118.79,60.11Q215.29,405.84,152,374.81C145.06,371.45,143.87,369.21,144.42,361.59Z" transform="translate(-4.96 -5.79)"/><path class="cls-9" d="M342.32,84.69c-4.88,6-7.67,6.65-15.45,3.7-57.31-21.71-113.75-19.93-168.54,7.88C123.45,114,96.5,140.25,82,177.18c-18.62,47.43-10.89,91.71,19.5,132,7.06,9.37,16,17.33,24.44,25.64,5.45,5.38,6.37,8.35,3,15.13-6,4.49-9.79,4.46-15.37-.3C84,324.41,63.26,293.53,55.89,254.86c-8.82-46.31,2.48-88.05,31.46-124.75C118.09,91.18,159,68.45,207.25,58.94A222.32,222.32,0,0,1,334,70.44C341.81,73.5,343.75,76.76,342.32,84.69Z" transform="translate(-4.96 -5.79)"/><path class="cls-9" d="M270.18,189.79h-5.56q-33.87,0-67.74,0a38.52,38.52,0,0,1-5.27-.2,9.44,9.44,0,0,1-1.38-18.33,26,26,0,0,1,6.65-.67q32.67-.08,65.34,0h5.87c-5.15-13.41-13.64-22.54-26.33-27.08a62.34,62.34,0,0,0-17.79-3c-10.07-.48-20.17-.08-30.26-.17-4.16,0-8.06-1.69-9-5.8a14,14,0,0,1,1.33-9.69c1.27-2,5.07-3.53,7.75-3.54,38.11-.22,76.22-.18,114.33-.12,6.09,0,10,3.74,10.18,9.18.17,5.6-3.86,9.84-10,10-10.4.18-20.82,0-31.22.06H271.6c7.88,8.79,13.22,17.9,16.13,28.38.25.9,2.41,1.74,3.72,1.79,5.27.21,10.57,0,15.85.12,7,.16,11.17,4.06,11,10-.16,5.72-4.25,9.14-11.13,9.21-5.73.05-11.47,0-17.32,0C286.9,215,274.22,233,251.6,244.3c2.58,2.74,5,5.16,7.29,7.78,11.77,13.81,17.25,30.33,20.93,47.76,2.4,11.38,5.76,22.56,8.59,33.85.6,2.43,1.29,5,1,7.46-.55,4.53-3.81,6.88-8.12,7.61a9.05,9.05,0,0,1-10.06-6.44c-3.47-11.44-7.09-22.9-9.53-34.58-2.94-14-5.87-28-14.9-39.52a61.64,61.64,0,0,0-15.43-14.06c-4.47-2.78-10.4-3.81-15.8-4.36-7-.71-14.08-.08-21.12-.21-6.69-.11-10.82-3.91-10.81-9.63s4.06-9.47,10.85-9.57c10.09-.15,20.18.07,30.27-.08,22.78-.32,40.53-14.72,45-36.4C270,192.7,270,191.44,270.18,189.79Z" transform="translate(-4.96 -5.79)"/></svg>