<svg id="Layer_1" data-name="Layer 1" xmlns="http://www.w3.org/2000/svg" viewBox="0 0 494.05 494.06"><defs><style>.cls-1{fill:#010101;}.cls-2{fill:#5196b9;}.cls-3{fill:#f55532;}.cls-4{fill:#f68d36;}.cls-5{fill:#437f9f;}.cls-6{fill:#e13629;}.cls-7{fill:#6ce16f;}.cls-8{fill:#3b7090;}.cls-9{fill:#e3e3e3;}.cls-10{fill:#45d886;}.cls-11{fill:#d0d0d0;}.cls-12{fill:#f76e1b;}.cls-13{fill:#e2e2e2;}.cls-14{fill:#ebb425;}.cls-15{fill:#e1e1e1;}.cls-16{fill:#6ade6d;}.cls-17{fill:#bcc6cb;}.cls-18{fill:#040809;}.cls-19{fill:#040708;}.cls-20{fill:#010202;}.cls-21{fill:#f1f1f1;}.cls-22{fill:#040302;}.cls-23{fill:#020302;}.cls-24{fill:#dedede;}</style></defs><path class="cls-1" d="M226.86,3h22.19c.48.31.92.81,1.43.89,38.72,5.9,64.7,27.49,78.69,63.86.73,1.89,1.37,3.81,2.05,5.69,41.37,0,82.36,0,123.35,0,26,0,43.41,17.49,43.43,43.57q0,42,0,83.91,0,83,0,165.89c0,22.05-14.32,39-35.94,42-7.43,1-15.08.4-22.63.44-6.4,0-8-1.31-9.65-7.66,1.28-5.22,4.71-7.15,9.92-6.85,3.66.2,7.35-.07,11-.13,21.25,2.65,36.8-12.49,32.2-37.29H461.32c-1.28-.05-2.56-.14-3.85-.14H18.74c0,5.33-.62,10.37.12,15.18C21,386.05,32.1,394.71,47,394.71q177.69,0,355.38-.06c5.34,0,9.09,1.37,10.46,6.88-1.71,6.44-3.3,7.66-10.16,7.66H300.17c4.1,27.48,24,44.8,51.42,45.34,16.55.34,29,11.63,30,27.24.58,9.1-4.85,15.08-14,15.21-6.59.1-13.18,0-19.77,0q-106.1,0-212.19,0c-10.87,0-16.22-6-15.07-16.85,1.5-14.06,13.62-24.75,28.06-25.71,7.44-.49,15.12-1.43,22.1-3.86,16.46-5.73,30.94-25.94,30.62-41.38H198q-76,0-151.91,0c-19.46,0-34.57-11.22-40.44-29.61A17.92,17.92,0,0,0,4,376.39V308.84l7.49-5c5.26,1.21,7.28,4.6,7,9.88-.23,5,0,10,0,14.95v13.62H32.91V114.43c0-10.64,1.47-12.08,12.32-12.08h97c.27-5.08.5-9.51.77-14.47H48.06c-18.84,0-29.62,10.76-29.62,29.57q0,80.31,0,160.63c0,6.31-1.16,7.88-7,9.78L4,282.79V106.21a7.78,7.78,0,0,0,1.22-1.81c7.18-21.07,21-31,43.29-31H145.7c.44-1.24.77-2.13,1.08-3q16.75-49.08,66.42-64C217.69,5,222.3,4.09,226.86,3ZM340.7,469.19c-1-.06-1.92-.16-2.88-.16H151.29a31.53,31.53,0,0,0-3.37.1c-7.21.81-12.51,6.41-12.5,13.41H340.24c1.76,0,3.53-.1,5.29-.15h21.3c-1-7.92-6.23-12.93-13.68-13.28C349,468.9,344.85,469.14,340.7,469.19Zm-50.17-14.78H309c-13.68-12.49-20.54-27.71-23.7-45.06H217c-5.73,22.83-8.06,27.33-23.41,45.06ZM450.7,88.07c-.8-.06-1.6-.18-2.4-.18q-55.67,0-111.33,0a20.79,20.79,0,0,0-2.63.32v13.91c1.73.09,3.15.21,4.56.21l120.48-.15c7.84.58,9.67,2.56,9.67,10.54q0,111.91,0,223.82v5.69h14.18a15.79,15.79,0,0,0,.25-1.77q0-113.36,0-226.71A25,25,0,0,0,475.93,96C468.94,88.81,460.24,87.11,450.7,88.07ZM432.42,117H333.28l-2.12,11.9c7.57,2.24,9.54,7.74,9.42,14.88-.21,12.85,0,25.71-.07,38.57,0,10.19-4.07,14.23-14.36,14.28-7.23,0-14.46-.06-21.69.06-1.46,0-3.49.34-4.26,1.31-3,3.81-5.67,7.94-8.82,12.48,15.44,0,30,0,44.64,0q48.21-.06,96.41-.16h21.85V117Zm.89,225.46h21.27V304.23H433.31c-1.13-.06-2.25-.17-3.37-.17H174.79c-1.24,0-2.47.18-3.68.27v38.28H429.46C430.74,342.61,432,342.5,433.31,342.44ZM229.71,236.6c1,1,2,2.08,3.08,3,5.62,4.54,6,4.92,11.1,0C253.83,230,264,220.54,272.81,210c23.51-28.14,41.37-59.29,46.2-96.42,4-30.64-4.64-57-28.63-77.29C278.23,26,264.19,19.56,248.07,18.39c-16.46-2.78-31.95.58-46.58,8-33.94,17.14-50.48,54.19-42.72,94,5.07,26,16,49.3,31,70.87C201.27,207.91,214,223.6,229.71,236.6Zm224.77-11.67h-3.7q-83.94,0-167.88.12c-2,0-4.42,1.41-6,2.86-9.48,8.65-18.39,18-28.25,26.14-8,6.64-12.28,6.65-20.24.06-9.88-8.17-18.8-17.47-28.32-26.08a11.2,11.2,0,0,0-6.43-3c-8.83-.34-17.69-.14-26.53-.14s-10.83-1.8-10.83-10.58q0-24.84,0-49.69a16.26,16.26,0,0,0-.46-4.74c-4.45-14.16-9-28.29-13.64-42.75H91.64v5.6q0,46.08,0,92.15c0,7.74-2.3,10-10.08,10-10,0-19.94,0-29.91,0-1.38,0-2.75.18-4,.26v64.38c11.65,0,23,0,34.42,0,7,0,9.52,2.51,9.55,9.64,0,12.7,0,25.4,0,38.11v5h64.65c0-14.06,0-27.85,0-41.64,0-9.4,1.75-11.11,11.32-11.11H454.48ZM76.94,117.11H47.66v93H76.94ZM47.69,304.21v38.16H76.83V304.21ZM325.91,148.64l-15.35,33.19h15.35ZM171.12,189.49V210h14.14Z" transform="translate(-3.96 -2.96)"/><path class="cls-2" d="M454.48,224.93v64.64H167.61c-9.57,0-11.32,1.71-11.32,11.11,0,13.79,0,27.58,0,41.64H91.64v-5c0-12.71,0-25.41,0-38.11,0-7.13-2.51-9.62-9.55-9.64-11.38,0-22.77,0-34.42,0V225.2c1.23-.08,2.6-.26,4-.26,10,0,19.94,0,29.91,0,7.78,0,10.08-2.26,10.08-10q0-46.08,0-92.15v-5.6h50.53c4.63,14.46,9.19,28.59,13.64,42.75a16.26,16.26,0,0,1,.46,4.74q0,24.85,0,49.69c0,8.78,1.85,10.57,10.83,10.58s17.7-.2,26.53.14a11.2,11.2,0,0,1,6.43,3c9.52,8.61,18.44,17.91,28.32,26.08,8,6.59,12.24,6.58,20.24-.06,9.86-8.18,18.77-17.49,28.25-26.14,1.59-1.45,4-2.85,6-2.86q83.94-.23,167.88-.12ZM116.32,187.54c0,3.36-.23,6.74.06,10.08.36,4.17,2.7,6.9,7.09,7s7.08-2.49,7.29-6.7a196.08,196.08,0,0,0,0-20.14c-.21-4.17-2.91-6.84-7.26-6.78s-6.73,2.82-7.13,7C116.08,181.12,116.32,184.34,116.32,187.54Zm0,133.93c0,3.2-.16,6.41,0,9.6.3,4.89,3.22,7.78,7.45,7.7,4-.08,6.94-2.85,7.12-7.51.24-6.23.24-12.49,0-18.72-.18-4.56-3.23-7.46-7.18-7.51-4.15-.06-7.11,2.94-7.41,7.8C116.12,315.7,116.26,318.59,116.27,321.47Zm14.66-183.84c0-3.2.18-6.41,0-9.59-.34-4.7-3.07-7.38-7.17-7.44s-7.15,2.61-7.34,7.22c-.28,6.38-.27,12.79,0,19.18a7.34,7.34,0,0,0,7.37,7.32c3.87-.08,6.86-3.09,7.16-7.58C131.11,143.72,130.94,140.67,130.93,137.63Zm72.69,125.88c3.21,0,6.42.12,9.62,0,4.34-.21,7-2.87,7.17-6.86a6.93,6.93,0,0,0-7-7.5c-6.41-.21-12.83-.19-19.23,0-4.47.13-7.27,3.22-7.18,7.37s2.87,6.84,7.51,7C197.53,263.61,200.58,263.51,203.62,263.51Zm69.37,0c3.21,0,6.42.11,9.62,0,4.54-.2,7.33-3.05,7.3-7.23a6.91,6.91,0,0,0-6.94-7.12c-6.57-.21-13.15-.22-19.72,0a6.85,6.85,0,0,0-6.8,7.23c0,4,2.67,6.85,6.93,7.09C266.57,263.64,269.79,263.5,273,263.51Zm69.41,0v0h9.14c.32,0,.64,0,1,0,4.22-.4,6.88-3.17,6.88-7.18a6.91,6.91,0,0,0-6.88-7.18c-6.56-.21-13.15-.21-19.71,0a7.17,7.17,0,0,0,0,14.33C336,263.65,339.2,263.49,342.4,263.49Zm69.8,0h0c3.21,0,6.42.14,9.62,0,4.28-.23,6.94-3,7-7a6.84,6.84,0,0,0-6.71-7.31c-6.72-.24-13.47-.25-20.19,0a6.75,6.75,0,0,0-6.51,7.46c.26,4.14,2.6,6.52,6.68,6.81C405.46,263.67,408.84,263.49,412.2,263.49Z" transform="translate(-3.96 -2.96)"/><path class="cls-3" d="M229.71,236.6c-15.72-13-28.44-28.69-40-45.35-14.92-21.57-25.9-44.88-31-70.87-7.76-39.83,8.78-76.88,42.72-94,14.63-7.39,30.12-10.75,46.58-8A26.28,26.28,0,0,0,250.38,20c16.11,8.88,28.83,21.1,37.55,37.45,12.13,22.75,12.49,46.58,6.89,71A162.48,162.48,0,0,1,274,179.41c-8.62,13.62-18.4,26.53-28.15,39.39C241,225.15,235.12,230.69,229.71,236.6ZM220.47,59.53l-13,9.12c-6.1-2.52-8.64-1.74-12.07,3.68-20.1,31.79,1.84,75,39.42,77.11,21.14,1.19,37.7-7.64,47.87-26.2s8.91-37.32-3.75-54.34-30.14-23.14-51-19.5C221.85,50.47,219.93,53.28,220.47,59.53Z" transform="translate(-3.96 -2.96)"/><path class="cls-4" d="M433.31,342.44c-1.29.06-2.57.17-3.85.17H171.11V304.33c1.21-.09,2.44-.27,3.68-.27H429.94c1.12,0,2.24.11,3.37.17Z" transform="translate(-3.96 -2.96)"/><path class="cls-5" d="M11.45,303.86q0-8,0-16c5.86-1.9,7-3.47,7-9.78q0-80.31,0-160.63c0-18.81,10.78-29.56,29.62-29.57H143c-.27,5-.5,9.39-.77,14.47h-97c-10.85,0-12.32,1.44-12.32,12.08V342.31H18.44V328.69c0-5-.18-10,0-14.95C18.73,308.46,16.71,305.07,11.45,303.86Z" transform="translate(-3.96 -2.96)"/><path class="cls-6" d="M229.71,236.6c5.41-5.91,11.3-11.45,16.11-17.8,9.75-12.86,19.53-25.77,28.15-39.39a162.48,162.48,0,0,0,20.85-50.95c5.6-24.39,5.24-48.22-6.89-71C279.21,41.14,266.49,28.92,250.38,20a26.28,26.28,0,0,1-2.31-1.65c16.12,1.17,30.16,7.6,42.31,17.88,24,20.3,32.61,46.65,28.63,77.29-4.83,37.13-22.69,68.28-46.2,96.42-8.82,10.56-19,20.05-28.92,29.62-5.08,4.9-5.48,4.52-11.1,0C231.69,238.68,230.73,237.6,229.71,236.6Z" transform="translate(-3.96 -2.96)"/><path class="cls-7" d="M432.43,210.29q-48.21.09-96.41.16c-14.6,0-29.2,0-44.64,0,3.15-4.54,5.79-8.67,8.82-12.48.77-1,2.8-1.28,4.26-1.31,7.23-.12,14.46,0,21.69-.06,10.29-.05,14.35-4.09,14.36-14.28,0-12.86-.14-25.72.07-38.57.12-7.14-1.85-12.64-9.42-14.88l2.12-11.9h99.14v12.31c-22.31-.07-44.62-.22-66.94-.15-7,0-11.18,4.49-11.23,11.7-.09,14.12,0,28.25,0,42.38,0,9,4.19,13.28,13.21,13.38q12.53.15,25.05,0c13.31-.12,26.62-.33,39.93-.5Z" transform="translate(-3.96 -2.96)"/><path class="cls-8" d="M450.7,88.07c9.54-1,18.24.74,25.23,7.94a25,25,0,0,1,7.53,17.75q.1,113.36,0,226.71a15.79,15.79,0,0,1-.25,1.77H469.06v-5.69q0-111.92,0-223.82c0-8-1.83-10-9.67-10.54Z" transform="translate(-3.96 -2.96)"/><path class="cls-9" d="M290.53,454.41h-97c15.35-17.73,17.68-22.23,23.41-45.06h46.56c.33,1.22.68,2.44,1,3.68,3.69,14.85,10,28.12,22.61,37.65A27.09,27.09,0,0,1,290.53,454.41Z" transform="translate(-3.96 -2.96)"/><path class="cls-7" d="M76.94,117.11v93H47.66V117.11Z" transform="translate(-3.96 -2.96)"/><path class="cls-5" d="M450.7,88.07l8.68,14.12-120.48.15c-1.41,0-2.83-.12-4.56-.21V88.22A20.79,20.79,0,0,1,337,87.9q55.66,0,111.33,0C449.1,87.89,449.9,88,450.7,88.07Z" transform="translate(-3.96 -2.96)"/><path class="cls-10" d="M432.43,210.29q0-7.09,0-14.18c5.62-2.54,7.85-6.88,7.76-13q-.31-20.39,0-40.76c.09-6.14-2.21-10.45-7.76-13V117h21.86v93.31Z" transform="translate(-3.96 -2.96)"/><path class="cls-7" d="M47.69,304.21H76.83v38.16H47.69Z" transform="translate(-3.96 -2.96)"/><path class="cls-11" d="M290.53,454.41a27.09,27.09,0,0,0-3.42-3.73c-12.6-9.53-18.92-22.8-22.61-37.65-.31-1.24-.66-2.46-1-3.68h21.74c3.16,17.35,10,32.57,23.7,45.06Z" transform="translate(-3.96 -2.96)"/><path class="cls-12" d="M433.31,342.44V304.23h21.27v38.21Z" transform="translate(-3.96 -2.96)"/><path class="cls-13" d="M450.7,394.54c1.51-2.21,2.9-4.5,4.53-6.62a28.42,28.42,0,0,0,6.15-19.64c-.22-3.67-.05-7.36-.06-11H482.9C487.5,382.05,472,397.19,450.7,394.54Z" transform="translate(-3.96 -2.96)"/><path class="cls-14" d="M325.91,148.64v33.19H310.56Z" transform="translate(-3.96 -2.96)"/><path class="cls-15" d="M345.53,482.37l-4.83-13.18c4.15-.05,8.31-.29,12.45-.1,7.45.35,12.64,5.36,13.68,13.28Z" transform="translate(-3.96 -2.96)"/><path class="cls-16" d="M171.12,189.49,185.26,210H171.12Z" transform="translate(-3.96 -2.96)"/><path class="cls-17" d="M412.7,401.52h0Z" transform="translate(-3.96 -2.96)"/><path class="cls-18" d="M116.32,187.54c0-3.2-.24-6.42.06-9.6.4-4.15,2.78-6.91,7.13-7s7,2.61,7.26,6.78a196.08,196.08,0,0,1,0,20.14c-.21,4.21-2.92,6.78-7.29,6.7s-6.73-2.8-7.09-7C116.09,194.28,116.32,190.9,116.32,187.54Z" transform="translate(-3.96 -2.96)"/><path class="cls-18" d="M116.27,321.47c0-2.88-.15-5.77,0-8.64.3-4.86,3.26-7.86,7.41-7.8,4,.05,7,3,7.18,7.51.24,6.23.24,12.49,0,18.72-.18,4.66-3.08,7.43-7.12,7.51-4.23.08-7.15-2.81-7.45-7.7C116.11,327.88,116.27,324.67,116.27,321.47Z" transform="translate(-3.96 -2.96)"/><path class="cls-19" d="M130.94,137.63c0,3,.17,6.09,0,9.11-.3,4.49-3.29,7.5-7.16,7.58a7.34,7.34,0,0,1-7.37-7.32c-.26-6.39-.27-12.8,0-19.18.19-4.61,3.23-7.28,7.34-7.22s6.83,2.74,7.17,7.44C131.11,131.22,130.93,134.43,130.94,137.63Z" transform="translate(-3.96 -2.96)"/><path class="cls-20" d="M203.62,263.51c-3,0-6.09.1-9.13,0-4.64-.17-7.42-2.85-7.51-7s2.71-7.24,7.18-7.37c6.4-.18,12.82-.2,19.23,0a6.93,6.93,0,0,1,7,7.5c-.15,4-2.83,6.65-7.17,6.86C210,263.63,206.83,263.51,203.62,263.51Z" transform="translate(-3.96 -2.96)"/><path class="cls-20" d="M273,263.5c-3.2,0-6.42.14-9.61,0-4.26-.24-6.9-3.08-6.93-7.09a6.85,6.85,0,0,1,6.8-7.23c6.57-.23,13.15-.22,19.72,0a6.91,6.91,0,0,1,6.94,7.12c0,4.18-2.76,7-7.3,7.23C279.41,263.62,276.2,263.51,273,263.5Z" transform="translate(-3.96 -2.96)"/><path class="cls-20" d="M342.4,263.49c-3.2,0-6.42.16-9.61,0a7.17,7.17,0,0,1,0-14.33c6.56-.21,13.15-.21,19.71,0a6.91,6.91,0,0,1,6.88,7.18c0,4-2.66,6.78-6.88,7.18-.32,0-.64,0-1,0H342.4Z" transform="translate(-3.96 -2.96)"/><path class="cls-20" d="M412.2,263.49c-3.36,0-6.74.18-10.09-.05-4.08-.29-6.42-2.67-6.68-6.81a6.75,6.75,0,0,1,6.51-7.46c6.72-.27,13.47-.26,20.19,0a6.84,6.84,0,0,1,6.71,7.31c-.08,4-2.74,6.78-7,7-3.2.17-6.41,0-9.62,0Z" transform="translate(-3.96 -2.96)"/><path class="cls-21" d="M207.45,68.65l13-9.12c2.65,4.93,6.85,4.84,11.62,3.93,25.42-4.85,47.91,18.92,41.43,43.89-4,15.31-14,24.71-29.61,27.23-14.62,2.36-26.72-3-35.08-15.1-8.73-12.64-8.88-26.13-1.12-39.39C210.12,76,210.51,72.4,207.45,68.65Z" transform="translate(-3.96 -2.96)"/><path class="cls-22" d="M207.45,68.65c3.06,3.75,2.67,7.31.26,11.44-7.76,13.26-7.61,26.75,1.12,39.39,8.36,12.1,20.46,17.46,35.08,15.1,15.59-2.52,25.63-11.92,29.61-27.23,6.48-25-16-48.74-41.43-43.89-4.77.91-9,1-11.62-3.93-.54-6.25,1.38-9.06,7.47-10.13,20.84-3.64,38.33,2.48,51,19.5s13.9,35.8,3.75,54.34-26.73,27.39-47.87,26.2c-37.58-2.12-59.52-45.32-39.42-77.11C198.81,66.91,201.35,66.13,207.45,68.65Z" transform="translate(-3.96 -2.96)"/><path class="cls-23" d="M432.42,129.29c5.55,2.59,7.85,6.9,7.76,13q-.31,20.37,0,40.76c.09,6.14-2.14,10.48-7.76,13-13.31.17-26.62.38-39.93.5q-12.53.12-25.05,0c-9-.1-13.19-4.37-13.21-13.38,0-14.13-.07-28.26,0-42.38.05-7.21,4.21-11.68,11.23-11.7C387.8,129.07,410.11,129.22,432.42,129.29Zm-29,52.54h22V143.77H369v38.06Z" transform="translate(-3.96 -2.96)"/><path class="cls-24" d="M403.38,181.83l.07-38.06h21.91v38.06Z" transform="translate(-3.96 -2.96)"/></svg>